<?xml version="1.0" encoding="utf-8" standalone="no"?>
<!DOCTYPE svg PUBLIC "-//W3C//DTD SVG 1.1//EN"
  "http://www.w3.org/Graphics/SVG/1.1/DTD/svg11.dtd">
<svg xmlns:xlink="http://www.w3.org/1999/xlink" width="572.4pt" height="457.92pt" viewBox="0 0 572.4 457.92" xmlns="http://www.w3.org/2000/svg" version="1.1">
 <metadata>
  <rdf:RDF xmlns:dc="http://purl.org/dc/elements/1.1/" xmlns:cc="http://creativecommons.org/ns#" xmlns:rdf="http://www.w3.org/1999/02/22-rdf-syntax-ns#">
   <cc:Work>
    <dc:type rdf:resource="http://purl.org/dc/dcmitype/StillImage"/>
    <dc:date>2025-11-25T20:42:30.861773</dc:date>
    <dc:format>image/svg+xml</dc:format>
    <dc:creator>
     <cc:Agent>
      <dc:title>Matplotlib v3.10.7, https://matplotlib.org/</dc:title>
     </cc:Agent>
    </dc:creator>
   </cc:Work>
  </rdf:RDF>
 </metadata>
 <defs>
  <style type="text/css">*{stroke-linejoin: round; stroke-linecap: butt}</style>
 </defs>
 <g id="figure_1">
  <g id="patch_1">
   <path d="M 0 457.92 
L 572.4 457.92 
L 572.4 0 
L 0 0 
z
" style="fill: #ffffff"/>
  </g>
  <g id="axes_1">
   <g id="patch_2">
    <path d="M 35.1 441.8496 
L 537.3 441.8496 
Q 542.88 441.8496 542.88 437.4144 
L 542.88 29.376 
Q 542.88 24.9408 537.3 24.9408 
L 35.1 24.9408 
Q 29.52 24.9408 29.52 29.376 
L 29.52 437.4144 
Q 29.52 441.8496 35.1 441.8496 
z
" clip-path="url(#pcbde658cce)" style="fill: #ffffff; opacity: 0.9; stroke: #000080; stroke-width: 2; stroke-linejoin: miter"/>
   </g>
   <g id="text_1">
    <!-- Holographic Enhancement: Mathematical Summary -->
    <g style="fill: #262626" transform="translate(90.60875 33.4785) scale(0.16 -0.16)">
     <defs>
      <path id="LiberationSans-Bold-48" d="M 3269 0 
L 3269 1888 
L 1350 1888 
L 1350 0 
L 428 0 
L 428 4403 
L 1350 4403 
L 1350 2650 
L 3269 2650 
L 3269 4403 
L 4191 4403 
L 4191 0 
L 3269 0 
z
" transform="scale(0.015625)"/>
      <path id="LiberationSans-Bold-6f" d="M 3659 1694 
Q 3659 872 3203 404 
Q 2747 -63 1941 -63 
Q 1150 -63 700 406 
Q 250 875 250 1694 
Q 250 2509 700 2976 
Q 1150 3444 1959 3444 
Q 2788 3444 3223 2992 
Q 3659 2541 3659 1694 
z
M 2741 1694 
Q 2741 2297 2544 2569 
Q 2347 2841 1972 2841 
Q 1172 2841 1172 1694 
Q 1172 1128 1367 833 
Q 1563 538 1931 538 
Q 2741 538 2741 1694 
z
" transform="scale(0.015625)"/>
      <path id="LiberationSans-Bold-6c" d="M 447 0 
L 447 4638 
L 1325 4638 
L 1325 0 
L 447 0 
z
" transform="scale(0.015625)"/>
      <path id="LiberationSans-Bold-67" d="M 1863 -1356 
Q 1244 -1356 867 -1120 
Q 491 -884 403 -447 
L 1281 -344 
Q 1328 -547 1483 -662 
Q 1638 -778 1888 -778 
Q 2253 -778 2422 -553 
Q 2591 -328 2591 116 
L 2591 294 
L 2597 628 
L 2591 628 
Q 2300 6 1503 6 
Q 913 6 588 450 
Q 263 894 263 1719 
Q 263 2547 597 2997 
Q 931 3447 1569 3447 
Q 2306 3447 2591 2838 
L 2606 2838 
Q 2606 2947 2620 3134 
Q 2634 3322 2650 3381 
L 3481 3381 
Q 3463 3044 3463 2600 
L 3463 103 
Q 3463 -619 3053 -987 
Q 2644 -1356 1863 -1356 
z
M 2597 1738 
Q 2597 2259 2411 2551 
Q 2225 2844 1881 2844 
Q 1178 2844 1178 1719 
Q 1178 616 1875 616 
Q 2225 616 2411 908 
Q 2597 1200 2597 1738 
z
" transform="scale(0.015625)"/>
      <path id="LiberationSans-Bold-72" d="M 447 0 
L 447 2588 
Q 447 2866 439 3052 
Q 431 3238 422 3381 
L 1259 3381 
Q 1269 3325 1284 3039 
Q 1300 2753 1300 2659 
L 1313 2659 
Q 1441 3016 1541 3161 
Q 1641 3306 1778 3376 
Q 1916 3447 2122 3447 
Q 2291 3447 2394 3400 
L 2394 2666 
Q 2181 2713 2019 2713 
Q 1691 2713 1508 2447 
Q 1325 2181 1325 1659 
L 1325 0 
L 447 0 
z
" transform="scale(0.015625)"/>
      <path id="LiberationSans-Bold-61" d="M 1228 -63 
Q 738 -63 463 204 
Q 188 472 188 956 
Q 188 1481 530 1756 
Q 872 2031 1522 2038 
L 2250 2050 
L 2250 2222 
Q 2250 2553 2134 2714 
Q 2019 2875 1756 2875 
Q 1513 2875 1398 2764 
Q 1284 2653 1256 2397 
L 341 2441 
Q 425 2934 792 3189 
Q 1159 3444 1794 3444 
Q 2434 3444 2781 3128 
Q 3128 2813 3128 2231 
L 3128 1000 
Q 3128 716 3192 608 
Q 3256 500 3406 500 
Q 3506 500 3600 519 
L 3600 44 
Q 3522 25 3459 9 
Q 3397 -6 3334 -15 
Q 3272 -25 3201 -31 
Q 3131 -38 3038 -38 
Q 2706 -38 2548 125 
Q 2391 288 2359 603 
L 2341 603 
Q 1972 -63 1228 -63 
z
M 2250 1566 
L 1800 1559 
Q 1494 1547 1366 1492 
Q 1238 1438 1170 1325 
Q 1103 1213 1103 1025 
Q 1103 784 1214 667 
Q 1325 550 1509 550 
Q 1716 550 1886 662 
Q 2056 775 2153 973 
Q 2250 1172 2250 1394 
L 2250 1566 
z
" transform="scale(0.015625)"/>
      <path id="LiberationSans-Bold-70" d="M 3647 1706 
Q 3647 859 3308 398 
Q 2969 -63 2350 -63 
Q 1994 -63 1730 92 
Q 1466 247 1325 538 
L 1306 538 
Q 1325 444 1325 -31 
L 1325 -1328 
L 447 -1328 
L 447 2603 
Q 447 3081 422 3381 
L 1275 3381 
Q 1291 3325 1302 3159 
Q 1313 2994 1313 2831 
L 1325 2831 
Q 1622 3453 2406 3453 
Q 2997 3453 3322 2998 
Q 3647 2544 3647 1706 
z
M 2731 1706 
Q 2731 2844 2034 2844 
Q 1684 2844 1498 2537 
Q 1313 2231 1313 1681 
Q 1313 1134 1498 836 
Q 1684 538 2028 538 
Q 2731 538 2731 1706 
z
" transform="scale(0.015625)"/>
      <path id="LiberationSans-Bold-68" d="M 1313 2706 
Q 1491 3094 1759 3269 
Q 2028 3444 2400 3444 
Q 2938 3444 3225 3112 
Q 3513 2781 3513 2144 
L 3513 0 
L 2638 0 
L 2638 1894 
Q 2638 2784 2034 2784 
Q 1716 2784 1520 2511 
Q 1325 2238 1325 1809 
L 1325 0 
L 447 0 
L 447 4638 
L 1325 4638 
L 1325 3372 
Q 1325 3031 1300 2706 
L 1313 2706 
z
" transform="scale(0.015625)"/>
      <path id="LiberationSans-Bold-69" d="M 447 3991 
L 447 4638 
L 1325 4638 
L 1325 3991 
L 447 3991 
z
M 447 0 
L 447 3381 
L 1325 3381 
L 1325 0 
L 447 0 
z
" transform="scale(0.015625)"/>
      <path id="LiberationSans-Bold-63" d="M 1856 -63 
Q 1088 -63 669 395 
Q 250 853 250 1672 
Q 250 2509 672 2976 
Q 1094 3444 1869 3444 
Q 2466 3444 2856 3144 
Q 3247 2844 3347 2316 
L 2463 2272 
Q 2425 2531 2275 2686 
Q 2125 2841 1850 2841 
Q 1172 2841 1172 1706 
Q 1172 538 1863 538 
Q 2113 538 2281 695 
Q 2450 853 2491 1166 
L 3372 1125 
Q 3325 778 3123 506 
Q 2922 234 2594 85 
Q 2266 -63 1856 -63 
z
" transform="scale(0.015625)"/>
      <path id="LiberationSans-Bold-20" transform="scale(0.015625)"/>
      <path id="LiberationSans-Bold-45" d="M 428 0 
L 428 4403 
L 3891 4403 
L 3891 3691 
L 1350 3691 
L 1350 2584 
L 3700 2584 
L 3700 1872 
L 1350 1872 
L 1350 713 
L 4019 713 
L 4019 0 
L 428 0 
z
" transform="scale(0.015625)"/>
      <path id="LiberationSans-Bold-6e" d="M 2638 0 
L 2638 1897 
Q 2638 2788 2034 2788 
Q 1716 2788 1520 2514 
Q 1325 2241 1325 1813 
L 1325 0 
L 447 0 
L 447 2625 
Q 447 2897 439 3070 
Q 431 3244 422 3381 
L 1259 3381 
Q 1269 3322 1284 3064 
Q 1300 2806 1300 2709 
L 1313 2709 
Q 1491 3097 1759 3272 
Q 2028 3447 2400 3447 
Q 2938 3447 3225 3115 
Q 3513 2784 3513 2147 
L 3513 0 
L 2638 0 
z
" transform="scale(0.015625)"/>
      <path id="LiberationSans-Bold-65" d="M 1831 -63 
Q 1069 -63 659 389 
Q 250 841 250 1706 
Q 250 2544 665 2994 
Q 1081 3444 1844 3444 
Q 2572 3444 2956 2961 
Q 3341 2478 3341 1547 
L 3341 1522 
L 1172 1522 
Q 1172 1028 1355 776 
Q 1538 525 1875 525 
Q 2341 525 2463 928 
L 3291 856 
Q 2931 -63 1831 -63 
z
M 1831 2891 
Q 1522 2891 1355 2675 
Q 1188 2459 1178 2072 
L 2491 2072 
Q 2466 2481 2294 2686 
Q 2122 2891 1831 2891 
z
" transform="scale(0.015625)"/>
      <path id="LiberationSans-Bold-6d" d="M 2438 0 
L 2438 1897 
Q 2438 2788 1925 2788 
Q 1659 2788 1492 2516 
Q 1325 2244 1325 1813 
L 1325 0 
L 447 0 
L 447 2625 
Q 447 2897 439 3070 
Q 431 3244 422 3381 
L 1259 3381 
Q 1269 3322 1284 3064 
Q 1300 2806 1300 2709 
L 1313 2709 
Q 1475 3097 1717 3272 
Q 1959 3447 2297 3447 
Q 3072 3447 3238 2709 
L 3256 2709 
Q 3428 3103 3668 3275 
Q 3909 3447 4281 3447 
Q 4775 3447 5034 3111 
Q 5294 2775 5294 2147 
L 5294 0 
L 4422 0 
L 4422 1897 
Q 4422 2788 3909 2788 
Q 3653 2788 3489 2539 
Q 3325 2291 3309 1853 
L 3309 0 
L 2438 0 
z
" transform="scale(0.015625)"/>
      <path id="LiberationSans-Bold-74" d="M 1313 -56 
Q 925 -56 715 155 
Q 506 366 506 794 
L 506 2788 
L 78 2788 
L 78 3381 
L 550 3381 
L 825 4175 
L 1375 4175 
L 1375 3381 
L 2016 3381 
L 2016 2788 
L 1375 2788 
L 1375 1031 
Q 1375 784 1469 667 
Q 1563 550 1759 550 
Q 1863 550 2053 594 
L 2053 50 
Q 1728 -56 1313 -56 
z
" transform="scale(0.015625)"/>
      <path id="LiberationSans-Bold-3a" d="M 616 2350 
L 616 3231 
L 1516 3231 
L 1516 2350 
L 616 2350 
z
M 616 0 
L 616 878 
L 1516 878 
L 1516 0 
L 616 0 
z
" transform="scale(0.015625)"/>
      <path id="LiberationSans-Bold-4d" d="M 4084 0 
L 4084 2669 
Q 4084 2759 4086 2850 
Q 4088 2941 4116 3628 
Q 3894 2788 3788 2456 
L 2994 0 
L 2338 0 
L 1544 2456 
L 1209 3628 
Q 1247 2903 1247 2669 
L 1247 0 
L 428 0 
L 428 4403 
L 1663 4403 
L 2450 1941 
L 2519 1703 
L 2669 1113 
L 2866 1819 
L 3675 4403 
L 4903 4403 
L 4903 0 
L 4084 0 
z
" transform="scale(0.015625)"/>
      <path id="LiberationSans-Bold-53" d="M 4019 1269 
Q 4019 622 3539 279 
Q 3059 -63 2131 -63 
Q 1284 -63 803 237 
Q 322 538 184 1147 
L 1075 1294 
Q 1166 944 1428 786 
Q 1691 628 2156 628 
Q 3122 628 3122 1216 
Q 3122 1403 3011 1525 
Q 2900 1647 2698 1728 
Q 2497 1809 1925 1925 
Q 1431 2041 1237 2111 
Q 1044 2181 887 2276 
Q 731 2372 622 2506 
Q 513 2641 452 2822 
Q 391 3003 391 3238 
Q 391 3834 839 4151 
Q 1288 4469 2144 4469 
Q 2963 4469 3373 4212 
Q 3784 3956 3903 3366 
L 3009 3244 
Q 2941 3528 2730 3672 
Q 2519 3816 2125 3816 
Q 1288 3816 1288 3291 
Q 1288 3119 1377 3009 
Q 1466 2900 1641 2823 
Q 1816 2747 2350 2631 
Q 2984 2497 3257 2383 
Q 3531 2269 3690 2117 
Q 3850 1966 3934 1755 
Q 4019 1544 4019 1269 
z
" transform="scale(0.015625)"/>
      <path id="LiberationSans-Bold-75" d="M 1275 3381 
L 1275 1484 
Q 1275 594 1875 594 
Q 2194 594 2389 867 
Q 2584 1141 2584 1569 
L 2584 3381 
L 3463 3381 
L 3463 756 
Q 3463 325 3488 0 
L 2650 0 
Q 2613 450 2613 672 
L 2597 672 
Q 2422 288 2151 112 
Q 1881 -63 1509 -63 
Q 972 -63 684 267 
Q 397 597 397 1234 
L 397 3381 
L 1275 3381 
z
" transform="scale(0.015625)"/>
      <path id="LiberationSans-Bold-79" d="M 884 -1328 
Q 569 -1328 331 -1288 
L 331 -663 
Q 497 -688 634 -688 
Q 822 -688 945 -628 
Q 1069 -569 1167 -431 
Q 1266 -294 1388 34 
L 50 3381 
L 978 3381 
L 1509 1797 
Q 1634 1456 1825 753 
L 1903 1050 
L 2106 1784 
L 2606 3381 
L 3525 3381 
L 2188 -178 
Q 1919 -828 1630 -1078 
Q 1341 -1328 884 -1328 
z
" transform="scale(0.015625)"/>
     </defs>
     <use xlink:href="#LiberationSans-Bold-48"/>
     <use xlink:href="#LiberationSans-Bold-6f" transform="translate(72.216797 0)"/>
     <use xlink:href="#LiberationSans-Bold-6c" transform="translate(133.300781 0)"/>
     <use xlink:href="#LiberationSans-Bold-6f" transform="translate(161.083984 0)"/>
     <use xlink:href="#LiberationSans-Bold-67" transform="translate(222.167969 0)"/>
     <use xlink:href="#LiberationSans-Bold-72" transform="translate(283.251953 0)"/>
     <use xlink:href="#LiberationSans-Bold-61" transform="translate(322.167969 0)"/>
     <use xlink:href="#LiberationSans-Bold-70" transform="translate(377.783203 0)"/>
     <use xlink:href="#LiberationSans-Bold-68" transform="translate(438.867188 0)"/>
     <use xlink:href="#LiberationSans-Bold-69" transform="translate(499.951172 0)"/>
     <use xlink:href="#LiberationSans-Bold-63" transform="translate(527.734375 0)"/>
     <use xlink:href="#LiberationSans-Bold-20" transform="translate(583.349609 0)"/>
     <use xlink:href="#LiberationSans-Bold-45" transform="translate(611.132812 0)"/>
     <use xlink:href="#LiberationSans-Bold-6e" transform="translate(677.832031 0)"/>
     <use xlink:href="#LiberationSans-Bold-68" transform="translate(738.916016 0)"/>
     <use xlink:href="#LiberationSans-Bold-61" transform="translate(800 0)"/>
     <use xlink:href="#LiberationSans-Bold-6e" transform="translate(855.615234 0)"/>
     <use xlink:href="#LiberationSans-Bold-63" transform="translate(916.699219 0)"/>
     <use xlink:href="#LiberationSans-Bold-65" transform="translate(972.314453 0)"/>
     <use xlink:href="#LiberationSans-Bold-6d" transform="translate(1027.929688 0)"/>
     <use xlink:href="#LiberationSans-Bold-65" transform="translate(1116.845703 0)"/>
     <use xlink:href="#LiberationSans-Bold-6e" transform="translate(1172.460938 0)"/>
     <use xlink:href="#LiberationSans-Bold-74" transform="translate(1233.544922 0)"/>
     <use xlink:href="#LiberationSans-Bold-3a" transform="translate(1266.845703 0)"/>
     <use xlink:href="#LiberationSans-Bold-20" transform="translate(1300.146484 0)"/>
     <use xlink:href="#LiberationSans-Bold-4d" transform="translate(1327.929688 0)"/>
     <use xlink:href="#LiberationSans-Bold-61" transform="translate(1411.230469 0)"/>
     <use xlink:href="#LiberationSans-Bold-74" transform="translate(1466.845703 0)"/>
     <use xlink:href="#LiberationSans-Bold-68" transform="translate(1500.146484 0)"/>
     <use xlink:href="#LiberationSans-Bold-65" transform="translate(1561.230469 0)"/>
     <use xlink:href="#LiberationSans-Bold-6d" transform="translate(1616.845703 0)"/>
     <use xlink:href="#LiberationSans-Bold-61" transform="translate(1705.761719 0)"/>
     <use xlink:href="#LiberationSans-Bold-74" transform="translate(1761.376953 0)"/>
     <use xlink:href="#LiberationSans-Bold-69" transform="translate(1794.677734 0)"/>
     <use xlink:href="#LiberationSans-Bold-63" transform="translate(1822.460938 0)"/>
     <use xlink:href="#LiberationSans-Bold-61" transform="translate(1878.076172 0)"/>
     <use xlink:href="#LiberationSans-Bold-6c" transform="translate(1933.691406 0)"/>
     <use xlink:href="#LiberationSans-Bold-20" transform="translate(1961.474609 0)"/>
     <use xlink:href="#LiberationSans-Bold-53" transform="translate(1989.257812 0)"/>
     <use xlink:href="#LiberationSans-Bold-75" transform="translate(2055.957031 0)"/>
     <use xlink:href="#LiberationSans-Bold-6d" transform="translate(2117.041016 0)"/>
     <use xlink:href="#LiberationSans-Bold-6d" transform="translate(2205.957031 0)"/>
     <use xlink:href="#LiberationSans-Bold-61" transform="translate(2294.873047 0)"/>
     <use xlink:href="#LiberationSans-Bold-72" transform="translate(2350.488281 0)"/>
     <use xlink:href="#LiberationSans-Bold-79" transform="translate(2389.404297 0)"/>
    </g>
   </g>
   <g id="text_2">
    <!-- $\mathbf{Core\ Equation:}$ -->
    <g style="fill: #262626" transform="translate(225.16 90.8836) scale(0.14 -0.14)">
     <defs>
      <path id="DejaVuSans-Bold-43" d="M 4288 256 
Q 3956 84 3597 -3 
Q 3238 -91 2847 -91 
Q 1681 -91 1000 561 
Q 319 1213 319 2328 
Q 319 3447 1000 4098 
Q 1681 4750 2847 4750 
Q 3238 4750 3597 4662 
Q 3956 4575 4288 4403 
L 4288 3438 
Q 3953 3666 3628 3772 
Q 3303 3878 2944 3878 
Q 2300 3878 1931 3465 
Q 1563 3053 1563 2328 
Q 1563 1606 1931 1193 
Q 2300 781 2944 781 
Q 3303 781 3628 887 
Q 3953 994 4288 1222 
L 4288 256 
z
" transform="scale(0.015625)"/>
      <path id="DejaVuSans-Bold-6f" d="M 2203 2784 
Q 1831 2784 1636 2517 
Q 1441 2250 1441 1747 
Q 1441 1244 1636 976 
Q 1831 709 2203 709 
Q 2569 709 2762 976 
Q 2956 1244 2956 1747 
Q 2956 2250 2762 2517 
Q 2569 2784 2203 2784 
z
M 2203 3584 
Q 3106 3584 3614 3096 
Q 4122 2609 4122 1747 
Q 4122 884 3614 396 
Q 3106 -91 2203 -91 
Q 1297 -91 786 396 
Q 275 884 275 1747 
Q 275 2609 786 3096 
Q 1297 3584 2203 3584 
z
" transform="scale(0.015625)"/>
      <path id="DejaVuSans-Bold-72" d="M 3138 2547 
Q 2991 2616 2845 2648 
Q 2700 2681 2553 2681 
Q 2122 2681 1889 2404 
Q 1656 2128 1656 1613 
L 1656 0 
L 538 0 
L 538 3500 
L 1656 3500 
L 1656 2925 
Q 1872 3269 2151 3426 
Q 2431 3584 2822 3584 
Q 2878 3584 2943 3579 
Q 3009 3575 3134 3559 
L 3138 2547 
z
" transform="scale(0.015625)"/>
      <path id="DejaVuSans-Bold-65" d="M 4031 1759 
L 4031 1441 
L 1416 1441 
Q 1456 1047 1700 850 
Q 1944 653 2381 653 
Q 2734 653 3104 758 
Q 3475 863 3866 1075 
L 3866 213 
Q 3469 63 3072 -14 
Q 2675 -91 2278 -91 
Q 1328 -91 801 392 
Q 275 875 275 1747 
Q 275 2603 792 3093 
Q 1309 3584 2216 3584 
Q 3041 3584 3536 3087 
Q 4031 2591 4031 1759 
z
M 2881 2131 
Q 2881 2450 2695 2645 
Q 2509 2841 2209 2841 
Q 1884 2841 1681 2658 
Q 1478 2475 1428 2131 
L 2881 2131 
z
" transform="scale(0.015625)"/>
      <path id="DejaVuSans-Bold-45" d="M 588 4666 
L 3834 4666 
L 3834 3756 
L 1791 3756 
L 1791 2888 
L 3713 2888 
L 3713 1978 
L 1791 1978 
L 1791 909 
L 3903 909 
L 3903 0 
L 588 0 
L 588 4666 
z
" transform="scale(0.015625)"/>
      <path id="DejaVuSans-Bold-71" d="M 2181 2772 
Q 1825 2772 1636 2509 
Q 1447 2247 1447 1747 
Q 1447 1247 1636 984 
Q 1825 722 2181 722 
Q 2541 722 2730 984 
Q 2919 1247 2919 1747 
Q 2919 2247 2730 2509 
Q 2541 2772 2181 2772 
z
M 2919 506 
Q 2688 197 2409 53 
Q 2131 -91 1766 -91 
Q 1119 -91 703 423 
Q 288 938 288 1747 
Q 288 2556 703 3067 
Q 1119 3578 1766 3578 
Q 2131 3578 2409 3434 
Q 2688 3291 2919 2981 
L 2919 3500 
L 4044 3500 
L 4044 -1331 
L 2919 -1331 
L 2919 506 
z
" transform="scale(0.015625)"/>
      <path id="DejaVuSans-Bold-75" d="M 500 1363 
L 500 3500 
L 1625 3500 
L 1625 3150 
Q 1625 2866 1622 2436 
Q 1619 2006 1619 1863 
Q 1619 1441 1641 1255 
Q 1663 1069 1716 984 
Q 1784 875 1895 815 
Q 2006 756 2150 756 
Q 2500 756 2700 1025 
Q 2900 1294 2900 1772 
L 2900 3500 
L 4019 3500 
L 4019 0 
L 2900 0 
L 2900 506 
Q 2647 200 2364 54 
Q 2081 -91 1741 -91 
Q 1134 -91 817 281 
Q 500 653 500 1363 
z
" transform="scale(0.015625)"/>
      <path id="DejaVuSans-Bold-61" d="M 2106 1575 
Q 1756 1575 1579 1456 
Q 1403 1338 1403 1106 
Q 1403 894 1545 773 
Q 1688 653 1941 653 
Q 2256 653 2472 879 
Q 2688 1106 2688 1447 
L 2688 1575 
L 2106 1575 
z
M 3816 1997 
L 3816 0 
L 2688 0 
L 2688 519 
Q 2463 200 2181 54 
Q 1900 -91 1497 -91 
Q 953 -91 614 226 
Q 275 544 275 1050 
Q 275 1666 698 1953 
Q 1122 2241 2028 2241 
L 2688 2241 
L 2688 2328 
Q 2688 2594 2478 2717 
Q 2269 2841 1825 2841 
Q 1466 2841 1156 2769 
Q 847 2697 581 2553 
L 581 3406 
Q 941 3494 1303 3539 
Q 1666 3584 2028 3584 
Q 2975 3584 3395 3211 
Q 3816 2838 3816 1997 
z
" transform="scale(0.015625)"/>
      <path id="DejaVuSans-Bold-74" d="M 1759 4494 
L 1759 3500 
L 2913 3500 
L 2913 2700 
L 1759 2700 
L 1759 1216 
Q 1759 972 1856 886 
Q 1953 800 2241 800 
L 2816 800 
L 2816 0 
L 1856 0 
Q 1194 0 917 276 
Q 641 553 641 1216 
L 641 2700 
L 84 2700 
L 84 3500 
L 641 3500 
L 641 4494 
L 1759 4494 
z
" transform="scale(0.015625)"/>
      <path id="DejaVuSans-Bold-69" d="M 538 3500 
L 1656 3500 
L 1656 0 
L 538 0 
L 538 3500 
z
M 538 4863 
L 1656 4863 
L 1656 3950 
L 538 3950 
L 538 4863 
z
" transform="scale(0.015625)"/>
      <path id="DejaVuSans-Bold-6e" d="M 4056 2131 
L 4056 0 
L 2931 0 
L 2931 347 
L 2931 1631 
Q 2931 2084 2911 2256 
Q 2891 2428 2841 2509 
Q 2775 2619 2662 2680 
Q 2550 2741 2406 2741 
Q 2056 2741 1856 2470 
Q 1656 2200 1656 1722 
L 1656 0 
L 538 0 
L 538 3500 
L 1656 3500 
L 1656 2988 
Q 1909 3294 2193 3439 
Q 2478 3584 2822 3584 
Q 3428 3584 3742 3212 
Q 4056 2841 4056 2131 
z
" transform="scale(0.015625)"/>
      <path id="DejaVuSans-Bold-3a" d="M 716 3500 
L 1844 3500 
L 1844 2291 
L 716 2291 
L 716 3500 
z
M 716 1209 
L 1844 1209 
L 1844 0 
L 716 0 
L 716 1209 
z
" transform="scale(0.015625)"/>
     </defs>
     <use xlink:href="#DejaVuSans-Bold-43" transform="translate(0 0.015625)"/>
     <use xlink:href="#DejaVuSans-Bold-6f" transform="translate(73.388672 0.015625)"/>
     <use xlink:href="#DejaVuSans-Bold-72" transform="translate(142.089844 0.015625)"/>
     <use xlink:href="#DejaVuSans-Bold-65" transform="translate(191.40625 0.015625)"/>
     <use xlink:href="#DejaVuSans-Bold-45" transform="translate(291.698894 0.015625)"/>
     <use xlink:href="#DejaVuSans-Bold-71" transform="translate(360.009441 0.015625)"/>
     <use xlink:href="#DejaVuSans-Bold-75" transform="translate(431.591472 0.015625)"/>
     <use xlink:href="#DejaVuSans-Bold-61" transform="translate(502.782878 0.015625)"/>
     <use xlink:href="#DejaVuSans-Bold-74" transform="translate(570.263347 0.015625)"/>
     <use xlink:href="#DejaVuSans-Bold-69" transform="translate(618.066082 0.015625)"/>
     <use xlink:href="#DejaVuSans-Bold-6f" transform="translate(652.343425 0.015625)"/>
     <use xlink:href="#DejaVuSans-Bold-6e" transform="translate(721.044597 0.015625)"/>
     <use xlink:href="#DejaVuSans-Bold-3a" transform="translate(811.718425 0.015625)"/>
    </g>
   </g>
   <g id="text_3">
    <!-- $I_{out} = I \cdot \left(1 + \beta \cdot \alpha(L) \cdot \frac{I - I_{blur}}{I_{blur} + \epsilon}\right)$ -->
    <g style="fill: #262626" transform="translate(180.68 127.0752) scale(0.16 -0.16)">
     <defs>
      <path id="DejaVuSans-Oblique-49" d="M 1081 4666 
L 1716 4666 
L 806 0 
L 172 0 
L 1081 4666 
z
" transform="scale(0.015625)"/>
      <path id="DejaVuSans-Oblique-6f" d="M 1625 -91 
Q 1009 -91 651 289 
Q 294 669 294 1325 
Q 294 1706 417 2101 
Q 541 2497 738 2766 
Q 1047 3184 1428 3384 
Q 1809 3584 2291 3584 
Q 2888 3584 3255 3212 
Q 3622 2841 3622 2241 
Q 3622 1825 3500 1412 
Q 3378 1000 3181 728 
Q 2875 309 2494 109 
Q 2113 -91 1625 -91 
z
M 891 1344 
Q 891 869 1089 633 
Q 1288 397 1691 397 
Q 2269 397 2648 901 
Q 3028 1406 3028 2181 
Q 3028 2634 2825 2865 
Q 2622 3097 2228 3097 
Q 1903 3097 1650 2945 
Q 1397 2794 1197 2484 
Q 1050 2253 970 1956 
Q 891 1659 891 1344 
z
" transform="scale(0.015625)"/>
      <path id="DejaVuSans-Oblique-75" d="M 428 1388 
L 838 3500 
L 1416 3500 
L 1006 1409 
Q 975 1256 961 1147 
Q 947 1038 947 966 
Q 947 700 1109 554 
Q 1272 409 1569 409 
Q 2031 409 2368 721 
Q 2706 1034 2809 1563 
L 3194 3500 
L 3769 3500 
L 3091 0 
L 2516 0 
L 2631 550 
Q 2388 244 2052 76 
Q 1716 -91 1338 -91 
Q 878 -91 622 161 
Q 366 413 366 863 
Q 366 956 381 1097 
Q 397 1238 428 1388 
z
" transform="scale(0.015625)"/>
      <path id="DejaVuSans-Oblique-74" d="M 2706 3500 
L 2619 3053 
L 1472 3053 
L 1100 1153 
Q 1081 1047 1072 975 
Q 1063 903 1063 863 
Q 1063 663 1183 572 
Q 1303 481 1569 481 
L 2150 481 
L 2053 0 
L 1503 0 
Q 991 0 739 200 
Q 488 400 488 806 
Q 488 878 497 964 
Q 506 1050 525 1153 
L 897 3053 
L 409 3053 
L 500 3500 
L 978 3500 
L 1172 4494 
L 1747 4494 
L 1556 3500 
L 2706 3500 
z
" transform="scale(0.015625)"/>
      <path id="DejaVuSans-3d" d="M 678 2906 
L 4684 2906 
L 4684 2381 
L 678 2381 
L 678 2906 
z
M 678 1631 
L 4684 1631 
L 4684 1100 
L 678 1100 
L 678 1631 
z
" transform="scale(0.015625)"/>
      <path id="DejaVuSans-22c5" d="M 684 2619 
L 1344 2619 
L 1344 1825 
L 684 1825 
L 684 2619 
z
" transform="scale(0.015625)"/>
      <path id="STIXSizeTwoSym-Regular-28" d="M 3219 -1555 
L 3219 -1786 
Q 2144 -774 1517 730 
Q 890 2234 890 4115 
Q 890 6003 1533 7593 
Q 2176 9184 3219 10022 
L 3219 9811 
Q 2490 9062 1994 7606 
Q 1498 6150 1498 4115 
Q 1498 563 3219 -1555 
z
" transform="scale(0.015625)"/>
      <path id="DejaVuSans-31" d="M 794 531 
L 1825 531 
L 1825 4091 
L 703 3866 
L 703 4441 
L 1819 4666 
L 2450 4666 
L 2450 531 
L 3481 531 
L 3481 0 
L 794 0 
L 794 531 
z
" transform="scale(0.015625)"/>
      <path id="DejaVuSans-2b" d="M 2944 4013 
L 2944 2272 
L 4684 2272 
L 4684 1741 
L 2944 1741 
L 2944 0 
L 2419 0 
L 2419 1741 
L 678 1741 
L 678 2272 
L 2419 2272 
L 2419 4013 
L 2944 4013 
z
" transform="scale(0.015625)"/>
      <path id="DejaVuSans-Oblique-3b2" d="M 872 216 
L 572 -1331 
L -6 -1331 
L 928 3478 
Q 1206 4903 2538 4903 
Q 3888 4903 3659 3700 
Q 3503 2844 2894 2531 
Q 3713 2250 3553 1416 
Q 3272 -69 1759 -66 
Q 1097 -63 872 216 
z
M 1019 966 
Q 1259 422 1875 425 
Q 2775 425 2966 1406 
Q 3138 2288 1675 2219 
L 1778 2750 
Q 2909 2731 3106 3750 
Q 3241 4438 2509 4434 
Q 1691 4434 1503 3459 
L 1019 966 
z
" transform="scale(0.015625)"/>
      <path id="DejaVuSans-Oblique-3b1" d="M 2619 1628 
L 2622 2350 
Q 2625 3088 2069 3091 
Q 1653 3094 1394 2747 
Q 1069 2319 959 1747 
Q 825 1059 994 731 
Q 1169 397 1547 397 
Q 1966 397 2319 1063 
L 2619 1628 
z
M 2166 3578 
Q 3141 3594 3128 2584 
Q 3128 2584 3616 3500 
L 4128 3500 
L 3119 1603 
L 3109 919 
Q 3109 766 3194 638 
Q 3291 488 3391 488 
L 3669 488 
L 3575 0 
L 3228 0 
Q 2934 0 2722 263 
Q 2622 394 2619 669 
Q 2416 334 2066 50 
Q 1900 -81 1453 -78 
Q 722 -72 456 397 
Q 184 884 353 1747 
Q 534 2675 1009 3097 
Q 1544 3569 2166 3578 
z
" transform="scale(0.015625)"/>
      <path id="DejaVuSans-28" d="M 1984 4856 
Q 1566 4138 1362 3434 
Q 1159 2731 1159 2009 
Q 1159 1288 1364 580 
Q 1569 -128 1984 -844 
L 1484 -844 
Q 1016 -109 783 600 
Q 550 1309 550 2009 
Q 550 2706 781 3412 
Q 1013 4119 1484 4856 
L 1984 4856 
z
" transform="scale(0.015625)"/>
      <path id="DejaVuSans-Oblique-4c" d="M 1075 4666 
L 1709 4666 
L 909 525 
L 3181 525 
L 3078 0 
L 172 0 
L 1075 4666 
z
" transform="scale(0.015625)"/>
      <path id="DejaVuSans-29" d="M 513 4856 
L 1013 4856 
Q 1481 4119 1714 3412 
Q 1947 2706 1947 2009 
Q 1947 1309 1714 600 
Q 1481 -109 1013 -844 
L 513 -844 
Q 928 -128 1133 580 
Q 1338 1288 1338 2009 
Q 1338 2731 1133 3434 
Q 928 4138 513 4856 
z
" transform="scale(0.015625)"/>
      <path id="DejaVuSans-2212" d="M 678 2272 
L 4684 2272 
L 4684 1741 
L 678 1741 
L 678 2272 
z
" transform="scale(0.015625)"/>
      <path id="DejaVuSans-Oblique-62" d="M 3169 2138 
Q 3169 2591 2961 2847 
Q 2753 3103 2388 3103 
Q 2122 3103 1889 2973 
Q 1656 2844 1484 2597 
Q 1303 2338 1198 1995 
Q 1094 1653 1094 1313 
Q 1094 881 1298 636 
Q 1503 391 1863 391 
Q 2134 391 2365 517 
Q 2597 644 2772 891 
Q 2950 1147 3059 1487 
Q 3169 1828 3169 2138 
z
M 1381 2969 
Q 1594 3256 1914 3420 
Q 2234 3584 2584 3584 
Q 3122 3584 3439 3221 
Q 3756 2859 3756 2241 
Q 3756 1734 3570 1259 
Q 3384 784 3041 416 
Q 2816 172 2522 40 
Q 2228 -91 1906 -91 
Q 1566 -91 1316 65 
Q 1066 222 909 531 
L 806 0 
L 231 0 
L 1178 4863 
L 1753 4863 
L 1381 2969 
z
" transform="scale(0.015625)"/>
      <path id="DejaVuSans-Oblique-6c" d="M 1172 4863 
L 1747 4863 
L 800 0 
L 225 0 
L 1172 4863 
z
" transform="scale(0.015625)"/>
      <path id="DejaVuSans-Oblique-72" d="M 2853 2969 
Q 2766 3016 2653 3041 
Q 2541 3066 2413 3066 
Q 1953 3066 1609 2717 
Q 1266 2369 1153 1784 
L 800 0 
L 225 0 
L 909 3500 
L 1484 3500 
L 1375 2956 
Q 1603 3259 1920 3421 
Q 2238 3584 2597 3584 
Q 2691 3584 2781 3573 
Q 2872 3563 2963 3538 
L 2853 2969 
z
" transform="scale(0.015625)"/>
      <path id="DejaVuSans-Oblique-3b5" d="M 1263 1888 
Q 925 1963 778 2166 
Q 669 2309 669 2503 
Q 669 3034 1175 3344 
Q 1575 3588 2188 3588 
Q 2425 3588 2684 3550 
Q 2944 3513 3234 3438 
L 3134 2916 
Q 2847 3006 2606 3047 
Q 2359 3088 2138 3088 
Q 1766 3088 1522 2944 
Q 1228 2772 1228 2522 
Q 1228 2356 1381 2241 
Q 1563 2103 1925 2103 
L 2409 2103 
L 2319 1628 
L 1856 1628 
Q 1425 1628 1172 1469 
Q 828 1253 828 916 
Q 828 703 1013 563 
Q 1244 388 1716 388 
Q 2006 388 2284 444 
Q 2563 503 2806 619 
L 2700 84 
Q 2403 -3 2131 -47 
Q 1859 -91 1609 -91 
Q 866 -91 516 194 
Q 250 413 250 781 
Q 250 1278 600 1584 
Q 859 1813 1263 1888 
z
" transform="scale(0.015625)"/>
      <path id="STIXSizeTwoSym-Regular-29" d="M 730 9792 
L 730 10022 
Q 1805 9011 2432 7507 
Q 3059 6003 3059 4115 
Q 3059 2234 2416 643 
Q 1773 -947 730 -1786 
L 730 -1574 
Q 1459 -826 1955 633 
Q 2451 2093 2451 4115 
Q 2451 7674 730 9792 
z
" transform="scale(0.015625)"/>
     </defs>
     <use xlink:href="#DejaVuSans-Oblique-49" transform="translate(0 0.987656)"/>
     <use xlink:href="#DejaVuSans-Oblique-6f" transform="translate(29.492188 -15.418594) scale(0.7)"/>
     <use xlink:href="#DejaVuSans-Oblique-75" transform="translate(72.319336 -15.418594) scale(0.7)"/>
     <use xlink:href="#DejaVuSans-Oblique-74" transform="translate(116.68457 -15.418594) scale(0.7)"/>
     <use xlink:href="#DejaVuSans-3d" transform="translate(166.347656 0.987656)"/>
     <use xlink:href="#DejaVuSans-Oblique-49" transform="translate(269.619141 0.987656)"/>
     <use xlink:href="#DejaVuSans-22c5" transform="translate(318.59375 0.987656)"/>
     <use xlink:href="#STIXSizeTwoSym-Regular-28" transform="translate(369.863281 -25.962187) scale(0.854639)"/>
     <use xlink:href="#DejaVuSans-31" transform="translate(420.222778 0.987656)"/>
     <use xlink:href="#DejaVuSans-2b" transform="translate(503.328247 0.987656)"/>
     <use xlink:href="#DejaVuSans-Oblique-3b2" transform="translate(606.599731 0.987656)"/>
     <use xlink:href="#DejaVuSans-22c5" transform="translate(689.900513 0.987656)"/>
     <use xlink:href="#DejaVuSans-Oblique-3b1" transform="translate(741.170044 0.987656)"/>
     <use xlink:href="#DejaVuSans-28" transform="translate(807.088013 0.987656)"/>
     <use xlink:href="#DejaVuSans-Oblique-4c" transform="translate(846.101685 0.987656)"/>
     <use xlink:href="#DejaVuSans-29" transform="translate(901.814575 0.987656)"/>
     <use xlink:href="#DejaVuSans-22c5" transform="translate(960.310669 0.987656)"/>
     <use xlink:href="#DejaVuSans-Oblique-49" transform="translate(1020.5802 56.965625) scale(0.7)"/>
     <use xlink:href="#DejaVuSans-2212" transform="translate(1054.862427 56.965625) scale(0.7)"/>
     <use xlink:href="#DejaVuSans-Oblique-49" transform="translate(1127.152466 56.965625) scale(0.7)"/>
     <use xlink:href="#DejaVuSans-Oblique-62" transform="translate(1147.796997 45.48125) scale(0.49)"/>
     <use xlink:href="#DejaVuSans-Oblique-6c" transform="translate(1178.900513 45.48125) scale(0.49)"/>
     <use xlink:href="#DejaVuSans-Oblique-75" transform="translate(1192.514282 45.48125) scale(0.49)"/>
     <use xlink:href="#DejaVuSans-Oblique-72" transform="translate(1223.569946 45.48125) scale(0.49)"/>
     <use xlink:href="#DejaVuSans-Oblique-49" transform="translate(1011.5802 -37.499844) scale(0.7)"/>
     <use xlink:href="#DejaVuSans-Oblique-62" transform="translate(1032.224731 -48.984219) scale(0.49)"/>
     <use xlink:href="#DejaVuSans-Oblique-6c" transform="translate(1063.328247 -48.984219) scale(0.49)"/>
     <use xlink:href="#DejaVuSans-Oblique-75" transform="translate(1076.942017 -48.984219) scale(0.49)"/>
     <use xlink:href="#DejaVuSans-Oblique-72" transform="translate(1107.997681 -48.984219) scale(0.49)"/>
     <use xlink:href="#DejaVuSans-2b" transform="translate(1143.694946 -37.499844) scale(0.7)"/>
     <use xlink:href="#DejaVuSans-Oblique-3b5" transform="translate(1215.984985 -37.499844) scale(0.7)"/>
     <use xlink:href="#STIXSizeTwoSym-Regular-29" transform="translate(1266.321899 -25.962187) scale(0.854639)"/>
     <path d="M 1011.5802 19.784531 
L 1011.5802 26.034531 
L 1253.821899 26.034531 
L 1253.821899 19.784531 
L 1011.5802 19.784531 
z
"/>
    </g>
   </g>
   <g id="text_4">
    <!-- $\mathbf{Adaptive\ Boost:}$ -->
    <g style="fill: #262626" transform="translate(220.68 179.5876) scale(0.14 -0.14)">
     <defs>
      <path id="DejaVuSans-Bold-41" d="M 3419 850 
L 1538 850 
L 1241 0 
L 31 0 
L 1759 4666 
L 3194 4666 
L 4922 0 
L 3713 0 
L 3419 850 
z
M 1838 1716 
L 3116 1716 
L 2478 3572 
L 1838 1716 
z
" transform="scale(0.015625)"/>
      <path id="DejaVuSans-Bold-64" d="M 2919 2988 
L 2919 4863 
L 4044 4863 
L 4044 0 
L 2919 0 
L 2919 506 
Q 2688 197 2409 53 
Q 2131 -91 1766 -91 
Q 1119 -91 703 423 
Q 288 938 288 1747 
Q 288 2556 703 3070 
Q 1119 3584 1766 3584 
Q 2128 3584 2408 3439 
Q 2688 3294 2919 2988 
z
M 2181 722 
Q 2541 722 2730 984 
Q 2919 1247 2919 1747 
Q 2919 2247 2730 2509 
Q 2541 2772 2181 2772 
Q 1825 2772 1636 2509 
Q 1447 2247 1447 1747 
Q 1447 1247 1636 984 
Q 1825 722 2181 722 
z
" transform="scale(0.015625)"/>
      <path id="DejaVuSans-Bold-70" d="M 1656 506 
L 1656 -1331 
L 538 -1331 
L 538 3500 
L 1656 3500 
L 1656 2988 
Q 1888 3294 2169 3439 
Q 2450 3584 2816 3584 
Q 3463 3584 3878 3070 
Q 4294 2556 4294 1747 
Q 4294 938 3878 423 
Q 3463 -91 2816 -91 
Q 2450 -91 2169 54 
Q 1888 200 1656 506 
z
M 2400 2772 
Q 2041 2772 1848 2508 
Q 1656 2244 1656 1747 
Q 1656 1250 1848 986 
Q 2041 722 2400 722 
Q 2759 722 2948 984 
Q 3138 1247 3138 1747 
Q 3138 2247 2948 2509 
Q 2759 2772 2400 2772 
z
" transform="scale(0.015625)"/>
      <path id="DejaVuSans-Bold-76" d="M 97 3500 
L 1216 3500 
L 2088 1081 
L 2956 3500 
L 4078 3500 
L 2700 0 
L 1472 0 
L 97 3500 
z
" transform="scale(0.015625)"/>
      <path id="DejaVuSans-Bold-42" d="M 2456 2859 
Q 2741 2859 2887 2984 
Q 3034 3109 3034 3353 
Q 3034 3594 2887 3720 
Q 2741 3847 2456 3847 
L 1791 3847 
L 1791 2859 
L 2456 2859 
z
M 2497 819 
Q 2859 819 3042 972 
Q 3225 1125 3225 1434 
Q 3225 1738 3044 1889 
Q 2863 2041 2497 2041 
L 1791 2041 
L 1791 819 
L 2497 819 
z
M 3616 2497 
Q 4003 2384 4215 2081 
Q 4428 1778 4428 1338 
Q 4428 663 3972 331 
Q 3516 0 2584 0 
L 588 0 
L 588 4666 
L 2394 4666 
Q 3366 4666 3802 4372 
Q 4238 4078 4238 3431 
Q 4238 3091 4078 2852 
Q 3919 2613 3616 2497 
z
" transform="scale(0.015625)"/>
      <path id="DejaVuSans-Bold-73" d="M 3272 3391 
L 3272 2541 
Q 2913 2691 2578 2766 
Q 2244 2841 1947 2841 
Q 1628 2841 1473 2761 
Q 1319 2681 1319 2516 
Q 1319 2381 1436 2309 
Q 1553 2238 1856 2203 
L 2053 2175 
Q 2913 2066 3209 1816 
Q 3506 1566 3506 1031 
Q 3506 472 3093 190 
Q 2681 -91 1863 -91 
Q 1516 -91 1145 -36 
Q 775 19 384 128 
L 384 978 
Q 719 816 1070 734 
Q 1422 653 1784 653 
Q 2113 653 2278 743 
Q 2444 834 2444 1013 
Q 2444 1163 2330 1236 
Q 2216 1309 1875 1350 
L 1678 1375 
Q 931 1469 631 1722 
Q 331 1975 331 2491 
Q 331 3047 712 3315 
Q 1094 3584 1881 3584 
Q 2191 3584 2531 3537 
Q 2872 3491 3272 3391 
z
" transform="scale(0.015625)"/>
     </defs>
     <use xlink:href="#DejaVuSans-Bold-41" transform="translate(0 0.015625)"/>
     <use xlink:href="#DejaVuSans-Bold-64" transform="translate(77.392578 0.015625)"/>
     <use xlink:href="#DejaVuSans-Bold-61" transform="translate(148.974609 0.015625)"/>
     <use xlink:href="#DejaVuSans-Bold-70" transform="translate(216.455078 0.015625)"/>
     <use xlink:href="#DejaVuSans-Bold-74" transform="translate(288.037109 0.015625)"/>
     <use xlink:href="#DejaVuSans-Bold-69" transform="translate(335.839844 0.015625)"/>
     <use xlink:href="#DejaVuSans-Bold-76" transform="translate(370.117188 0.015625)"/>
     <use xlink:href="#DejaVuSans-Bold-65" transform="translate(435.302734 0.015625)"/>
     <use xlink:href="#DejaVuSans-Bold-42" transform="translate(535.595378 0.015625)"/>
     <use xlink:href="#DejaVuSans-Bold-6f" transform="translate(611.816082 0.015625)"/>
     <use xlink:href="#DejaVuSans-Bold-6f" transform="translate(680.517253 0.015625)"/>
     <use xlink:href="#DejaVuSans-Bold-73" transform="translate(749.218425 0.015625)"/>
     <use xlink:href="#DejaVuSans-Bold-74" transform="translate(808.73991 0.015625)"/>
     <use xlink:href="#DejaVuSans-Bold-3a" transform="translate(876.025066 0.015625)"/>
    </g>
   </g>
   <g id="text_5">
    <!-- $\alpha(L) = 4 \cdot \frac{L}{100} \cdot \left(1 - \frac{L}{100}\right) + 0.3$ -->
    <g style="fill: #262626" transform="translate(189.88 210.564) scale(0.14 -0.14)">
     <defs>
      <path id="DejaVuSans-34" d="M 2419 4116 
L 825 1625 
L 2419 1625 
L 2419 4116 
z
M 2253 4666 
L 3047 4666 
L 3047 1625 
L 3713 1625 
L 3713 1100 
L 3047 1100 
L 3047 0 
L 2419 0 
L 2419 1100 
L 313 1100 
L 313 1709 
L 2253 4666 
z
" transform="scale(0.015625)"/>
      <path id="DejaVuSans-30" d="M 2034 4250 
Q 1547 4250 1301 3770 
Q 1056 3291 1056 2328 
Q 1056 1369 1301 889 
Q 1547 409 2034 409 
Q 2525 409 2770 889 
Q 3016 1369 3016 2328 
Q 3016 3291 2770 3770 
Q 2525 4250 2034 4250 
z
M 2034 4750 
Q 2819 4750 3233 4129 
Q 3647 3509 3647 2328 
Q 3647 1150 3233 529 
Q 2819 -91 2034 -91 
Q 1250 -91 836 529 
Q 422 1150 422 2328 
Q 422 3509 836 4129 
Q 1250 4750 2034 4750 
z
" transform="scale(0.015625)"/>
      <path id="DejaVuSans-2e" d="M 684 794 
L 1344 794 
L 1344 0 
L 684 0 
L 684 794 
z
" transform="scale(0.015625)"/>
      <path id="DejaVuSans-33" d="M 2597 2516 
Q 3050 2419 3304 2112 
Q 3559 1806 3559 1356 
Q 3559 666 3084 287 
Q 2609 -91 1734 -91 
Q 1441 -91 1130 -33 
Q 819 25 488 141 
L 488 750 
Q 750 597 1062 519 
Q 1375 441 1716 441 
Q 2309 441 2620 675 
Q 2931 909 2931 1356 
Q 2931 1769 2642 2001 
Q 2353 2234 1838 2234 
L 1294 2234 
L 1294 2753 
L 1863 2753 
Q 2328 2753 2575 2939 
Q 2822 3125 2822 3475 
Q 2822 3834 2567 4026 
Q 2313 4219 1838 4219 
Q 1578 4219 1281 4162 
Q 984 4106 628 3988 
L 628 4550 
Q 988 4650 1302 4700 
Q 1616 4750 1894 4750 
Q 2613 4750 3031 4423 
Q 3450 4097 3450 3541 
Q 3450 3153 3228 2886 
Q 3006 2619 2597 2516 
z
" transform="scale(0.015625)"/>
     </defs>
     <use xlink:href="#DejaVuSans-Oblique-3b1" transform="translate(0 0.16875)"/>
     <use xlink:href="#DejaVuSans-28" transform="translate(65.917969 0.16875)"/>
     <use xlink:href="#DejaVuSans-Oblique-4c" transform="translate(104.931641 0.16875)"/>
     <use xlink:href="#DejaVuSans-29" transform="translate(160.644531 0.16875)"/>
     <use xlink:href="#DejaVuSans-3d" transform="translate(219.140625 0.16875)"/>
     <use xlink:href="#DejaVuSans-34" transform="translate(322.412109 0.16875)"/>
     <use xlink:href="#DejaVuSans-22c5" transform="translate(405.517578 0.16875)"/>
     <use xlink:href="#DejaVuSans-Oblique-4c" transform="translate(503.787109 43.965625) scale(0.7)"/>
     <use xlink:href="#DejaVuSans-31" transform="translate(456.787109 -39.2375) scale(0.7)"/>
     <use xlink:href="#DejaVuSans-30" transform="translate(501.323242 -39.2375) scale(0.7)"/>
     <use xlink:href="#DejaVuSans-30" transform="translate(545.859375 -39.2375) scale(0.7)"/>
     <use xlink:href="#DejaVuSans-22c5" transform="translate(622.37793 0.16875)"/>
     <use xlink:href="#STIXSizeTwoSym-Regular-28" transform="translate(673.647461 -19.873438) scale(0.732969)"/>
     <use xlink:href="#DejaVuSans-31" transform="translate(716.791702 0.16875)"/>
     <use xlink:href="#DejaVuSans-2212" transform="translate(799.897171 0.16875)"/>
     <use xlink:href="#DejaVuSans-Oblique-4c" transform="translate(950.168655 43.965625) scale(0.7)"/>
     <use xlink:href="#DejaVuSans-31" transform="translate(903.168655 -39.2375) scale(0.7)"/>
     <use xlink:href="#DejaVuSans-30" transform="translate(947.704788 -39.2375) scale(0.7)"/>
     <use xlink:href="#DejaVuSans-30" transform="translate(992.240921 -39.2375) scale(0.7)"/>
     <use xlink:href="#STIXSizeTwoSym-Regular-29" transform="translate(1049.277054 -19.873438) scale(0.732969)"/>
     <use xlink:href="#DejaVuSans-2b" transform="translate(1113.295471 0.16875)"/>
     <use xlink:href="#DejaVuSans-30" transform="translate(1216.566956 0.16875)"/>
     <use xlink:href="#DejaVuSans-2e" transform="translate(1280.190002 0.16875)"/>
     <use xlink:href="#DejaVuSans-33" transform="translate(1311.977112 0.16875)"/>
     <path d="M 456.787109 18.965625 
L 456.787109 25.215625 
L 590.395508 25.215625 
L 590.395508 18.965625 
L 456.787109 18.965625 
z
"/>
     <path d="M 903.168655 18.965625 
L 903.168655 25.215625 
L 1036.777054 25.215625 
L 1036.777054 18.965625 
L 903.168655 18.965625 
z
"/>
    </g>
   </g>
   <g id="text_6">
    <!-- $\mathbf{Gamma\ Correction:}$ -->
    <g style="fill: #262626" transform="translate(207.31 263.626712) scale(0.14 -0.14)">
     <defs>
      <path id="DejaVuSans-Bold-47" d="M 4781 347 
Q 4331 128 3847 18 
Q 3363 -91 2847 -91 
Q 1681 -91 1000 561 
Q 319 1213 319 2328 
Q 319 3456 1012 4103 
Q 1706 4750 2913 4750 
Q 3378 4750 3804 4662 
Q 4231 4575 4609 4403 
L 4609 3438 
Q 4219 3659 3833 3768 
Q 3447 3878 3059 3878 
Q 2341 3878 1952 3476 
Q 1563 3075 1563 2328 
Q 1563 1588 1938 1184 
Q 2313 781 3003 781 
Q 3191 781 3352 804 
Q 3513 828 3641 878 
L 3641 1784 
L 2906 1784 
L 2906 2591 
L 4781 2591 
L 4781 347 
z
" transform="scale(0.015625)"/>
      <path id="DejaVuSans-Bold-6d" d="M 3781 2919 
Q 3994 3244 4286 3414 
Q 4578 3584 4928 3584 
Q 5531 3584 5847 3212 
Q 6163 2841 6163 2131 
L 6163 0 
L 5038 0 
L 5038 1825 
Q 5041 1866 5042 1909 
Q 5044 1953 5044 2034 
Q 5044 2406 4934 2573 
Q 4825 2741 4581 2741 
Q 4263 2741 4089 2478 
Q 3916 2216 3909 1719 
L 3909 0 
L 2784 0 
L 2784 1825 
Q 2784 2406 2684 2573 
Q 2584 2741 2328 2741 
Q 2006 2741 1831 2477 
Q 1656 2213 1656 1722 
L 1656 0 
L 531 0 
L 531 3500 
L 1656 3500 
L 1656 2988 
Q 1863 3284 2130 3434 
Q 2397 3584 2719 3584 
Q 3081 3584 3359 3409 
Q 3638 3234 3781 2919 
z
" transform="scale(0.015625)"/>
      <path id="DejaVuSans-Bold-63" d="M 3366 3391 
L 3366 2478 
Q 3138 2634 2908 2709 
Q 2678 2784 2431 2784 
Q 1963 2784 1702 2511 
Q 1441 2238 1441 1747 
Q 1441 1256 1702 982 
Q 1963 709 2431 709 
Q 2694 709 2930 787 
Q 3166 866 3366 1019 
L 3366 103 
Q 3103 6 2833 -42 
Q 2563 -91 2291 -91 
Q 1344 -91 809 395 
Q 275 881 275 1747 
Q 275 2613 809 3098 
Q 1344 3584 2291 3584 
Q 2566 3584 2833 3536 
Q 3100 3488 3366 3391 
z
" transform="scale(0.015625)"/>
     </defs>
     <use xlink:href="#DejaVuSans-Bold-47" transform="translate(0 0.015625)"/>
     <use xlink:href="#DejaVuSans-Bold-61" transform="translate(82.080078 0.015625)"/>
     <use xlink:href="#DejaVuSans-Bold-6d" transform="translate(149.560547 0.015625)"/>
     <use xlink:href="#DejaVuSans-Bold-6d" transform="translate(253.759766 0.015625)"/>
     <use xlink:href="#DejaVuSans-Bold-61" transform="translate(357.958984 0.015625)"/>
     <use xlink:href="#DejaVuSans-Bold-43" transform="translate(457.909832 0.015625)"/>
     <use xlink:href="#DejaVuSans-Bold-6f" transform="translate(531.298503 0.015625)"/>
     <use xlink:href="#DejaVuSans-Bold-72" transform="translate(599.999675 0.015625)"/>
     <use xlink:href="#DejaVuSans-Bold-72" transform="translate(649.316082 0.015625)"/>
     <use xlink:href="#DejaVuSans-Bold-65" transform="translate(698.632488 0.015625)"/>
     <use xlink:href="#DejaVuSans-Bold-63" transform="translate(766.454753 0.015625)"/>
     <use xlink:href="#DejaVuSans-Bold-74" transform="translate(825.732097 0.015625)"/>
     <use xlink:href="#DejaVuSans-Bold-69" transform="translate(873.534832 0.015625)"/>
     <use xlink:href="#DejaVuSans-Bold-6f" transform="translate(907.812175 0.015625)"/>
     <use xlink:href="#DejaVuSans-Bold-6e" transform="translate(976.513347 0.015625)"/>
     <use xlink:href="#DejaVuSans-Bold-3a" transform="translate(1067.187175 0.015625)"/>
    </g>
   </g>
   <g id="text_7">
    <!-- $I_{linear} = I_{encoded}^{\gamma}, \quad I_{output} = I_{enhanced}^{1/\gamma}$ -->
    <g style="fill: #262626" transform="translate(174.34 296.1628) scale(0.14 -0.14)">
     <defs>
      <path id="DejaVuSans-Oblique-69" d="M 1172 4863 
L 1747 4863 
L 1606 4134 
L 1031 4134 
L 1172 4863 
z
M 909 3500 
L 1484 3500 
L 800 0 
L 225 0 
L 909 3500 
z
" transform="scale(0.015625)"/>
      <path id="DejaVuSans-Oblique-6e" d="M 3566 2113 
L 3156 0 
L 2578 0 
L 2988 2091 
Q 3016 2238 3031 2350 
Q 3047 2463 3047 2528 
Q 3047 2791 2881 2937 
Q 2716 3084 2419 3084 
Q 1956 3084 1622 2776 
Q 1288 2469 1184 1941 
L 800 0 
L 225 0 
L 903 3500 
L 1478 3500 
L 1363 2950 
Q 1603 3253 1940 3418 
Q 2278 3584 2650 3584 
Q 3113 3584 3367 3334 
Q 3622 3084 3622 2631 
Q 3622 2519 3608 2391 
Q 3594 2263 3566 2113 
z
" transform="scale(0.015625)"/>
      <path id="DejaVuSans-Oblique-65" d="M 3078 2063 
Q 3088 2113 3092 2166 
Q 3097 2219 3097 2272 
Q 3097 2653 2873 2875 
Q 2650 3097 2266 3097 
Q 1838 3097 1509 2826 
Q 1181 2556 1013 2059 
L 3078 2063 
z
M 3578 1613 
L 903 1613 
Q 884 1494 878 1425 
Q 872 1356 872 1306 
Q 872 872 1139 634 
Q 1406 397 1894 397 
Q 2269 397 2603 481 
Q 2938 566 3225 728 
L 3116 159 
Q 2806 34 2476 -28 
Q 2147 -91 1806 -91 
Q 1078 -91 686 257 
Q 294 606 294 1247 
Q 294 1794 489 2264 
Q 684 2734 1063 3103 
Q 1306 3334 1642 3459 
Q 1978 3584 2356 3584 
Q 2950 3584 3301 3228 
Q 3653 2872 3653 2272 
Q 3653 2128 3634 1964 
Q 3616 1800 3578 1613 
z
" transform="scale(0.015625)"/>
      <path id="DejaVuSans-Oblique-61" d="M 3438 1997 
L 3047 0 
L 2472 0 
L 2578 531 
Q 2325 219 2001 64 
Q 1678 -91 1281 -91 
Q 834 -91 548 182 
Q 263 456 263 884 
Q 263 1497 752 1853 
Q 1241 2209 2100 2209 
L 2900 2209 
L 2931 2363 
Q 2938 2388 2941 2417 
Q 2944 2447 2944 2509 
Q 2944 2788 2717 2942 
Q 2491 3097 2081 3097 
Q 1800 3097 1504 3025 
Q 1209 2953 897 2809 
L 997 3341 
Q 1322 3463 1633 3523 
Q 1944 3584 2234 3584 
Q 2853 3584 3176 3315 
Q 3500 3047 3500 2534 
Q 3500 2431 3484 2292 
Q 3469 2153 3438 1997 
z
M 2816 1759 
L 2241 1759 
Q 1534 1759 1195 1570 
Q 856 1381 856 984 
Q 856 709 1029 553 
Q 1203 397 1509 397 
Q 1978 397 2328 733 
Q 2678 1069 2791 1631 
L 2816 1759 
z
" transform="scale(0.015625)"/>
      <path id="DejaVuSans-Oblique-3b3" d="M 1491 2950 
L 1838 788 
L 3456 3500 
L 4066 3500 
L 1972 0 
L 1713 -1331 
L 1138 -1331 
L 1397 0 
L 988 2613 
Q 925 3006 628 3006 
L 475 3006 
L 569 3500 
L 788 3500 
Q 1403 3500 1491 2950 
z
" transform="scale(0.015625)"/>
      <path id="DejaVuSans-Oblique-63" d="M 3431 3366 
L 3316 2797 
Q 3109 2947 2876 3022 
Q 2644 3097 2394 3097 
Q 2119 3097 1870 3000 
Q 1622 2903 1453 2725 
Q 1184 2453 1037 2087 
Q 891 1722 891 1331 
Q 891 859 1127 628 
Q 1363 397 1844 397 
Q 2081 397 2348 469 
Q 2616 541 2906 684 
L 2797 116 
Q 2547 13 2283 -39 
Q 2019 -91 1741 -91 
Q 1044 -91 669 257 
Q 294 606 294 1253 
Q 294 1797 489 2255 
Q 684 2713 1069 3078 
Q 1331 3328 1684 3456 
Q 2038 3584 2456 3584 
Q 2700 3584 2940 3529 
Q 3181 3475 3431 3366 
z
" transform="scale(0.015625)"/>
      <path id="DejaVuSans-Oblique-64" d="M 2675 525 
Q 2444 222 2128 65 
Q 1813 -91 1428 -91 
Q 903 -91 598 267 
Q 294 625 294 1247 
Q 294 1766 478 2236 
Q 663 2706 1013 3078 
Q 1244 3325 1534 3454 
Q 1825 3584 2144 3584 
Q 2481 3584 2739 3421 
Q 2997 3259 3138 2956 
L 3513 4863 
L 4091 4863 
L 3144 0 
L 2566 0 
L 2675 525 
z
M 891 1350 
Q 891 897 1095 644 
Q 1300 391 1663 391 
Q 1931 391 2161 520 
Q 2391 650 2566 903 
Q 2750 1166 2856 1509 
Q 2963 1853 2963 2188 
Q 2963 2622 2758 2865 
Q 2553 3109 2194 3109 
Q 1922 3109 1687 2981 
Q 1453 2853 1288 2613 
Q 1106 2353 998 2009 
Q 891 1666 891 1350 
z
" transform="scale(0.015625)"/>
      <path id="DejaVuSans-2c" d="M 750 794 
L 1409 794 
L 1409 256 
L 897 -744 
L 494 -744 
L 750 256 
L 750 794 
z
" transform="scale(0.015625)"/>
      <path id="DejaVuSans-Oblique-70" d="M 3175 2156 
Q 3175 2616 2975 2859 
Q 2775 3103 2400 3103 
Q 2144 3103 1911 2972 
Q 1678 2841 1497 2591 
Q 1319 2344 1212 1994 
Q 1106 1644 1106 1300 
Q 1106 863 1306 627 
Q 1506 391 1875 391 
Q 2147 391 2380 519 
Q 2613 647 2778 891 
Q 2956 1147 3065 1494 
Q 3175 1841 3175 2156 
z
M 1394 2969 
Q 1625 3272 1939 3428 
Q 2253 3584 2638 3584 
Q 3175 3584 3472 3232 
Q 3769 2881 3769 2247 
Q 3769 1728 3584 1258 
Q 3400 788 3053 416 
Q 2822 169 2531 39 
Q 2241 -91 1919 -91 
Q 1547 -91 1294 64 
Q 1041 219 916 525 
L 556 -1331 
L -19 -1331 
L 922 3500 
L 1497 3500 
L 1394 2969 
z
" transform="scale(0.015625)"/>
      <path id="DejaVuSans-2f" d="M 1625 4666 
L 2156 4666 
L 531 -594 
L 0 -594 
L 1625 4666 
z
" transform="scale(0.015625)"/>
      <path id="DejaVuSans-Oblique-68" d="M 3566 2113 
L 3156 0 
L 2578 0 
L 2988 2091 
Q 3016 2238 3031 2350 
Q 3047 2463 3047 2528 
Q 3047 2791 2881 2937 
Q 2716 3084 2419 3084 
Q 1956 3084 1617 2771 
Q 1278 2459 1178 1941 
L 800 0 
L 225 0 
L 1172 4863 
L 1747 4863 
L 1375 2950 
Q 1594 3244 1934 3414 
Q 2275 3584 2650 3584 
Q 3113 3584 3367 3334 
Q 3622 3084 3622 2631 
Q 3622 2519 3608 2391 
Q 3594 2263 3566 2113 
z
" transform="scale(0.015625)"/>
     </defs>
     <use xlink:href="#DejaVuSans-Oblique-49" transform="translate(0 0.0625)"/>
     <use xlink:href="#DejaVuSans-Oblique-6c" transform="translate(29.492188 -16.34375) scale(0.7)"/>
     <use xlink:href="#DejaVuSans-Oblique-69" transform="translate(48.94043 -16.34375) scale(0.7)"/>
     <use xlink:href="#DejaVuSans-Oblique-6e" transform="translate(68.388672 -16.34375) scale(0.7)"/>
     <use xlink:href="#DejaVuSans-Oblique-65" transform="translate(112.753906 -16.34375) scale(0.7)"/>
     <use xlink:href="#DejaVuSans-Oblique-61" transform="translate(155.820312 -16.34375) scale(0.7)"/>
     <use xlink:href="#DejaVuSans-Oblique-72" transform="translate(198.71582 -16.34375) scale(0.7)"/>
     <use xlink:href="#DejaVuSans-3d" transform="translate(249.711914 0.0625)"/>
     <use xlink:href="#DejaVuSans-Oblique-49" transform="translate(352.983398 0.0625)"/>
     <use xlink:href="#DejaVuSans-Oblique-3b3" transform="translate(389.492357 52.965625) scale(0.7)"/>
     <use xlink:href="#DejaVuSans-Oblique-65" transform="translate(382.475586 -27.28125) scale(0.7)"/>
     <use xlink:href="#DejaVuSans-Oblique-6e" transform="translate(425.541992 -27.28125) scale(0.7)"/>
     <use xlink:href="#DejaVuSans-Oblique-63" transform="translate(469.907227 -27.28125) scale(0.7)"/>
     <use xlink:href="#DejaVuSans-Oblique-6f" transform="translate(508.393555 -27.28125) scale(0.7)"/>
     <use xlink:href="#DejaVuSans-Oblique-64" transform="translate(551.220703 -27.28125) scale(0.7)"/>
     <use xlink:href="#DejaVuSans-Oblique-65" transform="translate(595.654297 -27.28125) scale(0.7)"/>
     <use xlink:href="#DejaVuSans-Oblique-64" transform="translate(638.720703 -27.28125) scale(0.7)"/>
     <use xlink:href="#DejaVuSans-2c" transform="translate(685.888672 0.0625)"/>
     <use xlink:href="#DejaVuSans-Oblique-49" transform="translate(834.570312 0.0625)"/>
     <use xlink:href="#DejaVuSans-Oblique-6f" transform="translate(864.0625 -16.34375) scale(0.7)"/>
     <use xlink:href="#DejaVuSans-Oblique-75" transform="translate(906.889648 -16.34375) scale(0.7)"/>
     <use xlink:href="#DejaVuSans-Oblique-74" transform="translate(951.254883 -16.34375) scale(0.7)"/>
     <use xlink:href="#DejaVuSans-Oblique-70" transform="translate(978.701172 -16.34375) scale(0.7)"/>
     <use xlink:href="#DejaVuSans-Oblique-75" transform="translate(1023.134766 -16.34375) scale(0.7)"/>
     <use xlink:href="#DejaVuSans-Oblique-74" transform="translate(1067.5 -16.34375) scale(0.7)"/>
     <use xlink:href="#DejaVuSans-3d" transform="translate(1117.163086 0.0625)"/>
     <use xlink:href="#DejaVuSans-Oblique-49" transform="translate(1220.43457 0.0625)"/>
     <use xlink:href="#DejaVuSans-31" transform="translate(1256.943529 52.965625) scale(0.7)"/>
     <use xlink:href="#DejaVuSans-2f" transform="translate(1301.479661 52.965625) scale(0.7)"/>
     <use xlink:href="#DejaVuSans-Oblique-3b3" transform="translate(1325.063646 52.965625) scale(0.7)"/>
     <use xlink:href="#DejaVuSans-Oblique-65" transform="translate(1249.926758 -27.28125) scale(0.7)"/>
     <use xlink:href="#DejaVuSans-Oblique-6e" transform="translate(1292.993164 -27.28125) scale(0.7)"/>
     <use xlink:href="#DejaVuSans-Oblique-68" transform="translate(1337.358398 -27.28125) scale(0.7)"/>
     <use xlink:href="#DejaVuSans-Oblique-61" transform="translate(1381.723633 -27.28125) scale(0.7)"/>
     <use xlink:href="#DejaVuSans-Oblique-6e" transform="translate(1424.619141 -27.28125) scale(0.7)"/>
     <use xlink:href="#DejaVuSans-Oblique-63" transform="translate(1468.984375 -27.28125) scale(0.7)"/>
     <use xlink:href="#DejaVuSans-Oblique-65" transform="translate(1507.470703 -27.28125) scale(0.7)"/>
     <use xlink:href="#DejaVuSans-Oblique-64" transform="translate(1550.537109 -27.28125) scale(0.7)"/>
    </g>
   </g>
   <g id="text_8">
    <!-- $\mathbf{Holographic\ Inspiration:}$ -->
    <g style="fill: #262626" transform="translate(187.85 348.0552) scale(0.14 -0.14)">
     <defs>
      <path id="DejaVuSans-Bold-48" d="M 588 4666 
L 1791 4666 
L 1791 2888 
L 3566 2888 
L 3566 4666 
L 4769 4666 
L 4769 0 
L 3566 0 
L 3566 1978 
L 1791 1978 
L 1791 0 
L 588 0 
L 588 4666 
z
" transform="scale(0.015625)"/>
      <path id="DejaVuSans-Bold-6c" d="M 538 4863 
L 1656 4863 
L 1656 0 
L 538 0 
L 538 4863 
z
" transform="scale(0.015625)"/>
      <path id="DejaVuSans-Bold-67" d="M 2919 594 
Q 2688 288 2409 144 
Q 2131 0 1766 0 
Q 1125 0 706 504 
Q 288 1009 288 1791 
Q 288 2575 706 3076 
Q 1125 3578 1766 3578 
Q 2131 3578 2409 3434 
Q 2688 3291 2919 2981 
L 2919 3500 
L 4044 3500 
L 4044 353 
Q 4044 -491 3511 -936 
Q 2978 -1381 1966 -1381 
Q 1638 -1381 1331 -1331 
Q 1025 -1281 716 -1178 
L 716 -306 
Q 1009 -475 1290 -558 
Q 1572 -641 1856 -641 
Q 2406 -641 2662 -400 
Q 2919 -159 2919 353 
L 2919 594 
z
M 2181 2772 
Q 1834 2772 1640 2515 
Q 1447 2259 1447 1791 
Q 1447 1309 1634 1061 
Q 1822 813 2181 813 
Q 2531 813 2725 1069 
Q 2919 1325 2919 1791 
Q 2919 2259 2725 2515 
Q 2531 2772 2181 2772 
z
" transform="scale(0.015625)"/>
      <path id="DejaVuSans-Bold-68" d="M 4056 2131 
L 4056 0 
L 2931 0 
L 2931 347 
L 2931 1625 
Q 2931 2084 2911 2256 
Q 2891 2428 2841 2509 
Q 2775 2619 2662 2680 
Q 2550 2741 2406 2741 
Q 2056 2741 1856 2470 
Q 1656 2200 1656 1722 
L 1656 0 
L 538 0 
L 538 4863 
L 1656 4863 
L 1656 2988 
Q 1909 3294 2193 3439 
Q 2478 3584 2822 3584 
Q 3428 3584 3742 3212 
Q 4056 2841 4056 2131 
z
" transform="scale(0.015625)"/>
      <path id="DejaVuSans-Bold-49" d="M 588 4666 
L 1791 4666 
L 1791 0 
L 588 0 
L 588 4666 
z
" transform="scale(0.015625)"/>
     </defs>
     <use xlink:href="#DejaVuSans-Bold-48" transform="translate(0 0.015625)"/>
     <use xlink:href="#DejaVuSans-Bold-6f" transform="translate(83.691406 0.015625)"/>
     <use xlink:href="#DejaVuSans-Bold-6c" transform="translate(152.392578 0.015625)"/>
     <use xlink:href="#DejaVuSans-Bold-6f" transform="translate(186.669922 0.015625)"/>
     <use xlink:href="#DejaVuSans-Bold-67" transform="translate(255.371094 0.015625)"/>
     <use xlink:href="#DejaVuSans-Bold-72" transform="translate(326.953125 0.015625)"/>
     <use xlink:href="#DejaVuSans-Bold-61" transform="translate(376.269531 0.015625)"/>
     <use xlink:href="#DejaVuSans-Bold-70" transform="translate(443.75 0.015625)"/>
     <use xlink:href="#DejaVuSans-Bold-68" transform="translate(515.332031 0.015625)"/>
     <use xlink:href="#DejaVuSans-Bold-69" transform="translate(586.523438 0.015625)"/>
     <use xlink:href="#DejaVuSans-Bold-63" transform="translate(620.800781 0.015625)"/>
     <use xlink:href="#DejaVuSans-Bold-49" transform="translate(712.548503 0.015625)"/>
     <use xlink:href="#DejaVuSans-Bold-6e" transform="translate(749.755535 0.015625)"/>
     <use xlink:href="#DejaVuSans-Bold-73" transform="translate(820.946941 0.015625)"/>
     <use xlink:href="#DejaVuSans-Bold-70" transform="translate(880.468425 0.015625)"/>
     <use xlink:href="#DejaVuSans-Bold-69" transform="translate(952.050457 0.015625)"/>
     <use xlink:href="#DejaVuSans-Bold-72" transform="translate(986.3278 0.015625)"/>
     <use xlink:href="#DejaVuSans-Bold-61" transform="translate(1035.644207 0.015625)"/>
     <use xlink:href="#DejaVuSans-Bold-74" transform="translate(1103.124675 0.015625)"/>
     <use xlink:href="#DejaVuSans-Bold-69" transform="translate(1150.92741 0.015625)"/>
     <use xlink:href="#DejaVuSans-Bold-6f" transform="translate(1185.204753 0.015625)"/>
     <use xlink:href="#DejaVuSans-Bold-6e" transform="translate(1253.905925 0.015625)"/>
     <use xlink:href="#DejaVuSans-Bold-3a" transform="translate(1344.579753 0.015625)"/>
    </g>
   </g>
   <g id="text_9">
    <!-- $I = |A|^2 \quad \Rightarrow \quad A = \sqrt{I}$ -->
    <g style="fill: #262626" transform="translate(219 381.3416) scale(0.14 -0.14)">
     <defs>
      <path id="DejaVuSans-7c" d="M 1344 4891 
L 1344 -1509 
L 813 -1509 
L 813 4891 
L 1344 4891 
z
" transform="scale(0.015625)"/>
      <path id="DejaVuSans-Oblique-41" d="M 2356 4666 
L 3072 4666 
L 3938 0 
L 3278 0 
L 3084 1197 
L 984 1197 
L 325 0 
L -341 0 
L 2356 4666 
z
M 2584 4044 
L 1275 1722 
L 2988 1722 
L 2584 4044 
z
" transform="scale(0.015625)"/>
      <path id="DejaVuSans-32" d="M 1228 531 
L 3431 531 
L 3431 0 
L 469 0 
L 469 531 
Q 828 903 1448 1529 
Q 2069 2156 2228 2338 
Q 2531 2678 2651 2914 
Q 2772 3150 2772 3378 
Q 2772 3750 2511 3984 
Q 2250 4219 1831 4219 
Q 1534 4219 1204 4116 
Q 875 4013 500 3803 
L 500 4441 
Q 881 4594 1212 4672 
Q 1544 4750 1819 4750 
Q 2544 4750 2975 4387 
Q 3406 4025 3406 3419 
Q 3406 3131 3298 2873 
Q 3191 2616 2906 2266 
Q 2828 2175 2409 1742 
Q 1991 1309 1228 531 
z
" transform="scale(0.015625)"/>
      <path id="DejaVuSans-21d2" d="M 4113 1678 
L 4441 2006 
L 4113 2334 
L 366 2334 
L 366 2709 
L 3738 2709 
L 3447 3000 
L 3822 3375 
L 5050 2147 
L 5050 1866 
L 3822 638 
L 3447 1013 
L 3738 1303 
L 366 1303 
L 366 1678 
L 4113 1678 
z
" transform="scale(0.015625)"/>
      <path id="STIXSizeOneSym-Regular-221a" d="M 6970 9933 
L 3373 -1888 
L 3104 -1888 
L 1626 2918 
Q 1555 3149 1465 3251 
Q 1376 3354 1229 3354 
Q 1011 3354 794 3181 
L 717 3309 
L 1766 4115 
L 1926 4115 
L 3379 -602 
L 3405 -602 
L 6605 9933 
L 6970 9933 
z
" transform="scale(0.015625)"/>
     </defs>
     <use xlink:href="#DejaVuSans-Oblique-49" transform="translate(0 0.578125)"/>
     <use xlink:href="#DejaVuSans-3d" transform="translate(48.974609 0.578125)"/>
     <use xlink:href="#DejaVuSans-7c" transform="translate(152.246094 0.578125)"/>
     <use xlink:href="#DejaVuSans-Oblique-41" transform="translate(185.9375 0.578125)"/>
     <use xlink:href="#DejaVuSans-7c" transform="translate(254.345703 0.578125)"/>
     <use xlink:href="#DejaVuSans-32" transform="translate(288.994141 38.859375) scale(0.7)"/>
     <use xlink:href="#DejaVuSans-21d2" transform="translate(453.15918 0.578125)"/>
     <use xlink:href="#DejaVuSans-Oblique-41" transform="translate(653.842773 0.578125)"/>
     <use xlink:href="#DejaVuSans-3d" transform="translate(741.733398 0.578125)"/>
     <use xlink:href="#STIXSizeOneSym-Regular-221a" transform="translate(845.004883 17.09375) scale(0.563912)"/>
     <use xlink:href="#DejaVuSans-Oblique-49" transform="translate(917.093246 0.84375)"/>
     <path d="M 904.593246 97.5 
L 904.593246 103.75 
L 959.085434 103.75 
L 959.085434 97.5 
L 904.593246 97.5 
z
"/>
    </g>
   </g>
   <g id="text_10">
    <!-- $\mathbf{Parameters:}\ \beta \in [1.0, 2.0],\ \sigma \in [1.0, 5.0],\ \gamma = 2.2$ -->
    <g style="fill: #262626" transform="translate(133.62 423.0336) scale(0.12 -0.12)">
     <defs>
      <path id="DejaVuSans-Bold-50" d="M 588 4666 
L 2584 4666 
Q 3475 4666 3951 4270 
Q 4428 3875 4428 3144 
Q 4428 2409 3951 2014 
Q 3475 1619 2584 1619 
L 1791 1619 
L 1791 0 
L 588 0 
L 588 4666 
z
M 1791 3794 
L 1791 2491 
L 2456 2491 
Q 2806 2491 2997 2661 
Q 3188 2831 3188 3144 
Q 3188 3456 2997 3625 
Q 2806 3794 2456 3794 
L 1791 3794 
z
" transform="scale(0.015625)"/>
      <path id="DejaVuSans-2208" d="M 1072 1959 
Q 1094 1728 1291 1353 
Q 1522 919 1959 675 
Q 2388 438 2850 434 
L 5028 434 
L 5028 -63 
L 2850 -63 
Q 2250 -63 1695 246 
Q 1141 556 844 1106 
Q 547 1656 547 2241 
Q 547 2819 844 3369 
Q 1141 3919 1695 4231 
Q 2250 4544 2850 4544 
L 5028 4544 
L 5028 4047 
L 2850 4047 
Q 2388 4044 1959 3803 
Q 1525 3556 1291 3125 
Q 1091 2750 1063 2459 
L 5028 2459 
L 5028 1959 
L 1072 1959 
z
" transform="scale(0.015625)"/>
      <path id="DejaVuSans-5b" d="M 550 4863 
L 1875 4863 
L 1875 4416 
L 1125 4416 
L 1125 -397 
L 1875 -397 
L 1875 -844 
L 550 -844 
L 550 4863 
z
" transform="scale(0.015625)"/>
      <path id="DejaVuSans-5d" d="M 1947 4863 
L 1947 -844 
L 622 -844 
L 622 -397 
L 1369 -397 
L 1369 4416 
L 622 4416 
L 622 4863 
L 1947 4863 
z
" transform="scale(0.015625)"/>
      <path id="DejaVuSans-Oblique-3c3" d="M 2219 3044 
Q 1744 3044 1422 2700 
Q 1081 2341 969 1747 
Q 844 1119 1044 756 
Q 1241 397 1706 397 
Q 2166 397 2503 759 
Q 2844 1122 2966 1747 
Q 3075 2319 2881 2700 
Q 2700 3044 2219 3044 
z
M 2309 3503 
L 4219 3500 
L 4106 2925 
L 3463 2925 
Q 3706 2438 3575 1747 
Q 3406 888 2884 400 
Q 2359 -91 1609 -91 
Q 856 -91 525 400 
Q 194 888 363 1747 
Q 528 2609 1050 3097 
Q 1484 3503 2309 3503 
z
" transform="scale(0.015625)"/>
      <path id="DejaVuSans-35" d="M 691 4666 
L 3169 4666 
L 3169 4134 
L 1269 4134 
L 1269 2991 
Q 1406 3038 1543 3061 
Q 1681 3084 1819 3084 
Q 2600 3084 3056 2656 
Q 3513 2228 3513 1497 
Q 3513 744 3044 326 
Q 2575 -91 1722 -91 
Q 1428 -91 1123 -41 
Q 819 9 494 109 
L 494 744 
Q 775 591 1075 516 
Q 1375 441 1709 441 
Q 2250 441 2565 725 
Q 2881 1009 2881 1497 
Q 2881 1984 2565 2268 
Q 2250 2553 1709 2553 
Q 1456 2553 1204 2497 
Q 953 2441 691 2322 
L 691 4666 
z
" transform="scale(0.015625)"/>
     </defs>
     <use xlink:href="#DejaVuSans-Bold-50" transform="translate(0 0.390625)"/>
     <use xlink:href="#DejaVuSans-Bold-61" transform="translate(73.291016 0.390625)"/>
     <use xlink:href="#DejaVuSans-Bold-72" transform="translate(140.771484 0.390625)"/>
     <use xlink:href="#DejaVuSans-Bold-61" transform="translate(190.087891 0.390625)"/>
     <use xlink:href="#DejaVuSans-Bold-6d" transform="translate(257.568359 0.390625)"/>
     <use xlink:href="#DejaVuSans-Bold-65" transform="translate(361.767578 0.390625)"/>
     <use xlink:href="#DejaVuSans-Bold-74" transform="translate(429.589844 0.390625)"/>
     <use xlink:href="#DejaVuSans-Bold-65" transform="translate(477.392578 0.390625)"/>
     <use xlink:href="#DejaVuSans-Bold-72" transform="translate(545.214844 0.390625)"/>
     <use xlink:href="#DejaVuSans-Bold-73" transform="translate(594.53125 0.390625)"/>
     <use xlink:href="#DejaVuSans-Bold-3a" transform="translate(673.535156 0.390625)"/>
     <use xlink:href="#DejaVuSans-Oblique-3b2" transform="translate(765.478191 0.390625)"/>
     <use xlink:href="#DejaVuSans-2208" transform="translate(848.778972 0.390625)"/>
     <use xlink:href="#DejaVuSans-5b" transform="translate(955.370769 0.390625)"/>
     <use xlink:href="#DejaVuSans-31" transform="translate(994.384441 0.390625)"/>
     <use xlink:href="#DejaVuSans-2e" transform="translate(1058.007488 0.390625)"/>
     <use xlink:href="#DejaVuSans-30" transform="translate(1089.794597 0.390625)"/>
     <use xlink:href="#DejaVuSans-2c" transform="translate(1153.417644 0.390625)"/>
     <use xlink:href="#DejaVuSans-32" transform="translate(1204.687175 0.390625)"/>
     <use xlink:href="#DejaVuSans-2e" transform="translate(1268.310222 0.390625)"/>
     <use xlink:href="#DejaVuSans-30" transform="translate(1300.097332 0.390625)"/>
     <use xlink:href="#DejaVuSans-5d" transform="translate(1363.720378 0.390625)"/>
     <use xlink:href="#DejaVuSans-2c" transform="translate(1402.73405 0.390625)"/>
     <use xlink:href="#DejaVuSans-Oblique-3c3" transform="translate(1486.47396 0.390625)"/>
     <use xlink:href="#DejaVuSans-2208" transform="translate(1569.335288 0.390625)"/>
     <use xlink:href="#DejaVuSans-5b" transform="translate(1675.927085 0.390625)"/>
     <use xlink:href="#DejaVuSans-31" transform="translate(1714.940757 0.390625)"/>
     <use xlink:href="#DejaVuSans-2e" transform="translate(1778.563804 0.390625)"/>
     <use xlink:href="#DejaVuSans-30" transform="translate(1810.350913 0.390625)"/>
     <use xlink:href="#DejaVuSans-2c" transform="translate(1873.97396 0.390625)"/>
     <use xlink:href="#DejaVuSans-35" transform="translate(1925.243491 0.390625)"/>
     <use xlink:href="#DejaVuSans-2e" transform="translate(1988.866538 0.390625)"/>
     <use xlink:href="#DejaVuSans-30" transform="translate(2020.653647 0.390625)"/>
     <use xlink:href="#DejaVuSans-5d" transform="translate(2084.276694 0.390625)"/>
     <use xlink:href="#DejaVuSans-2c" transform="translate(2123.290366 0.390625)"/>
     <use xlink:href="#DejaVuSans-Oblique-3b3" transform="translate(2207.030276 0.390625)"/>
     <use xlink:href="#DejaVuSans-3d" transform="translate(2285.692385 0.390625)"/>
     <use xlink:href="#DejaVuSans-32" transform="translate(2388.96387 0.390625)"/>
     <use xlink:href="#DejaVuSans-2e" transform="translate(2452.586917 0.390625)"/>
     <use xlink:href="#DejaVuSans-32" transform="translate(2478.874026 0.390625)"/>
    </g>
   </g>
  </g>
 </g>
 <defs>
  <clipPath id="pcbde658cce">
   <rect x="7.2" y="7.2" width="558" height="443.52"/>
  </clipPath>
 </defs>
</svg>
