<?xml version="1.0" encoding="utf-8" standalone="no"?>
<!DOCTYPE svg PUBLIC "-//W3C//DTD SVG 1.1//EN"
  "http://www.w3.org/Graphics/SVG/1.1/DTD/svg11.dtd">
<svg xmlns:xlink="http://www.w3.org/1999/xlink" width="856.619182pt" height="352.78pt" viewBox="0 0 856.619182 352.78" xmlns="http://www.w3.org/2000/svg" version="1.1">
 <metadata>
  <rdf:RDF xmlns:dc="http://purl.org/dc/elements/1.1/" xmlns:cc="http://creativecommons.org/ns#" xmlns:rdf="http://www.w3.org/1999/02/22-rdf-syntax-ns#">
   <cc:Work>
    <dc:type rdf:resource="http://purl.org/dc/dcmitype/StillImage"/>
    <dc:date>2025-11-25T20:42:29.974128</dc:date>
    <dc:format>image/svg+xml</dc:format>
    <dc:creator>
     <cc:Agent>
      <dc:title>Matplotlib v3.10.7, https://matplotlib.org/</dc:title>
     </cc:Agent>
    </dc:creator>
   </cc:Work>
  </rdf:RDF>
 </metadata>
 <defs>
  <style type="text/css">*{stroke-linejoin: round; stroke-linecap: butt}</style>
 </defs>
 <g id="figure_1">
  <g id="patch_1">
   <path d="M -0 352.78 
L 856.619182 352.78 
L 856.619182 0 
L -0 0 
z
" style="fill: #ffffff"/>
  </g>
  <g id="axes_1">
   <g id="patch_2">
    <path d="M 39.421875 319.43625 
L 425.100529 319.43625 
L 425.100529 21.89625 
L 39.421875 21.89625 
z
" style="fill: #ffffff"/>
   </g>
   <g id="matplotlib.axis_1">
    <g id="xtick_1">
     <g id="line2d_1">
      <path d="M 90.119192 319.43625 
L 90.119192 21.89625 
" clip-path="url(#pbbaa1a2ca7)" style="fill: none; stroke: #cccccc; stroke-width: 0.8; stroke-linecap: round"/>
     </g>
     <g id="line2d_2"/>
     <g id="text_1">
      <!-- 720p -->
      <g style="fill: #262626" transform="translate(78.997317 330.183125) scale(0.1 -0.1)">
       <defs>
        <path id="LiberationSans-37" d="M 3238 3947 
Q 2563 2916 2284 2331 
Q 2006 1747 1867 1178 
Q 1728 609 1728 0 
L 1141 0 
Q 1141 844 1498 1776 
Q 1856 2709 2694 3925 
L 328 3925 
L 328 4403 
L 3238 4403 
L 3238 3947 
z
" transform="scale(0.015625)"/>
        <path id="LiberationSans-32" d="M 322 0 
L 322 397 
Q 481 763 711 1042 
Q 941 1322 1194 1548 
Q 1447 1775 1695 1969 
Q 1944 2163 2144 2356 
Q 2344 2550 2467 2762 
Q 2591 2975 2591 3244 
Q 2591 3606 2378 3806 
Q 2166 4006 1788 4006 
Q 1428 4006 1195 3811 
Q 963 3616 922 3263 
L 347 3316 
Q 409 3844 795 4156 
Q 1181 4469 1788 4469 
Q 2453 4469 2811 4155 
Q 3169 3841 3169 3263 
Q 3169 3006 3051 2753 
Q 2934 2500 2703 2247 
Q 2472 1994 1819 1463 
Q 1459 1169 1246 933 
Q 1034 697 941 478 
L 3238 478 
L 3238 0 
L 322 0 
z
" transform="scale(0.015625)"/>
        <path id="LiberationSans-30" d="M 3309 2203 
Q 3309 1100 2920 518 
Q 2531 -63 1772 -63 
Q 1013 -63 631 515 
Q 250 1094 250 2203 
Q 250 3338 620 3903 
Q 991 4469 1791 4469 
Q 2569 4469 2939 3897 
Q 3309 3325 3309 2203 
z
M 2738 2203 
Q 2738 3156 2517 3584 
Q 2297 4013 1791 4013 
Q 1272 4013 1045 3591 
Q 819 3169 819 2203 
Q 819 1266 1048 831 
Q 1278 397 1778 397 
Q 2275 397 2506 840 
Q 2738 1284 2738 2203 
z
" transform="scale(0.015625)"/>
        <path id="LiberationSans-70" d="M 3291 1706 
Q 3291 -63 2047 -63 
Q 1266 -63 997 525 
L 981 525 
Q 994 500 994 -6 
L 994 -1328 
L 431 -1328 
L 431 2691 
Q 431 3213 413 3381 
L 956 3381 
Q 959 3369 965 3292 
Q 972 3216 980 3056 
Q 988 2897 988 2838 
L 1000 2838 
Q 1150 3150 1397 3295 
Q 1644 3441 2047 3441 
Q 2672 3441 2981 3022 
Q 3291 2603 3291 1706 
z
M 2700 1694 
Q 2700 2400 2509 2703 
Q 2319 3006 1903 3006 
Q 1569 3006 1380 2865 
Q 1191 2725 1092 2426 
Q 994 2128 994 1650 
Q 994 984 1206 668 
Q 1419 353 1897 353 
Q 2316 353 2508 661 
Q 2700 969 2700 1694 
z
" transform="scale(0.015625)"/>
       </defs>
       <use xlink:href="#LiberationSans-37"/>
       <use xlink:href="#LiberationSans-32" transform="translate(55.615234 0)"/>
       <use xlink:href="#LiberationSans-30" transform="translate(111.230469 0)"/>
       <use xlink:href="#LiberationSans-70" transform="translate(166.845703 0)"/>
      </g>
     </g>
    </g>
    <g id="xtick_2">
     <g id="line2d_3">
      <path d="M 184.880532 319.43625 
L 184.880532 21.89625 
" clip-path="url(#pbbaa1a2ca7)" style="fill: none; stroke: #cccccc; stroke-width: 0.8; stroke-linecap: round"/>
     </g>
     <g id="line2d_4"/>
     <g id="text_2">
      <!-- 1080p -->
      <g style="fill: #262626" transform="translate(170.978188 330.183125) scale(0.1 -0.1)">
       <defs>
        <path id="LiberationSans-31" d="M 488 0 
L 488 478 
L 1609 478 
L 1609 3866 
L 616 3156 
L 616 3688 
L 1656 4403 
L 2175 4403 
L 2175 478 
L 3247 478 
L 3247 0 
L 488 0 
z
" transform="scale(0.015625)"/>
        <path id="LiberationSans-38" d="M 3281 1228 
Q 3281 619 2893 278 
Q 2506 -63 1781 -63 
Q 1075 -63 676 271 
Q 278 606 278 1222 
Q 278 1653 525 1947 
Q 772 2241 1156 2303 
L 1156 2316 
Q 797 2400 589 2681 
Q 381 2963 381 3341 
Q 381 3844 757 4156 
Q 1134 4469 1769 4469 
Q 2419 4469 2795 4162 
Q 3172 3856 3172 3334 
Q 3172 2956 2962 2675 
Q 2753 2394 2391 2322 
L 2391 2309 
Q 2813 2241 3047 1952 
Q 3281 1663 3281 1228 
z
M 2588 3303 
Q 2588 4050 1769 4050 
Q 1372 4050 1164 3862 
Q 956 3675 956 3303 
Q 956 2925 1170 2726 
Q 1384 2528 1775 2528 
Q 2172 2528 2380 2711 
Q 2588 2894 2588 3303 
z
M 2697 1281 
Q 2697 1691 2453 1898 
Q 2209 2106 1769 2106 
Q 1341 2106 1100 1882 
Q 859 1659 859 1269 
Q 859 359 1788 359 
Q 2247 359 2472 579 
Q 2697 800 2697 1281 
z
" transform="scale(0.015625)"/>
       </defs>
       <use xlink:href="#LiberationSans-31"/>
       <use xlink:href="#LiberationSans-30" transform="translate(55.615234 0)"/>
       <use xlink:href="#LiberationSans-38" transform="translate(111.230469 0)"/>
       <use xlink:href="#LiberationSans-30" transform="translate(166.845703 0)"/>
       <use xlink:href="#LiberationSans-70" transform="translate(222.460938 0)"/>
      </g>
     </g>
    </g>
    <g id="xtick_3">
     <g id="line2d_5">
      <path d="M 279.641872 319.43625 
L 279.641872 21.89625 
" clip-path="url(#pbbaa1a2ca7)" style="fill: none; stroke: #cccccc; stroke-width: 0.8; stroke-linecap: round"/>
     </g>
     <g id="line2d_6"/>
     <g id="text_3">
      <!-- 1440p -->
      <g style="fill: #262626" transform="translate(265.739528 330.183125) scale(0.1 -0.1)">
       <defs>
        <path id="LiberationSans-34" d="M 2753 997 
L 2753 0 
L 2222 0 
L 2222 997 
L 147 997 
L 147 1434 
L 2163 4403 
L 2753 4403 
L 2753 1441 
L 3372 1441 
L 3372 997 
L 2753 997 
z
M 2222 3769 
Q 2216 3750 2134 3603 
Q 2053 3456 2013 3397 
L 884 1734 
L 716 1503 
L 666 1441 
L 2222 1441 
L 2222 3769 
z
" transform="scale(0.015625)"/>
       </defs>
       <use xlink:href="#LiberationSans-31"/>
       <use xlink:href="#LiberationSans-34" transform="translate(55.615234 0)"/>
       <use xlink:href="#LiberationSans-34" transform="translate(111.230469 0)"/>
       <use xlink:href="#LiberationSans-30" transform="translate(166.845703 0)"/>
       <use xlink:href="#LiberationSans-70" transform="translate(222.460938 0)"/>
      </g>
     </g>
    </g>
    <g id="xtick_4">
     <g id="line2d_7">
      <path d="M 374.403212 319.43625 
L 374.403212 21.89625 
" clip-path="url(#pbbaa1a2ca7)" style="fill: none; stroke: #cccccc; stroke-width: 0.8; stroke-linecap: round"/>
     </g>
     <g id="line2d_8"/>
     <g id="text_4">
      <!-- 4K -->
      <g style="fill: #262626" transform="translate(368.287587 330.183125) scale(0.1 -0.1)">
       <defs>
        <path id="LiberationSans-4b" d="M 3456 0 
L 1697 2125 
L 1122 1688 
L 1122 0 
L 525 0 
L 525 4403 
L 1122 4403 
L 1122 2197 
L 3244 4403 
L 3947 4403 
L 2072 2491 
L 4197 0 
L 3456 0 
z
" transform="scale(0.015625)"/>
       </defs>
       <use xlink:href="#LiberationSans-34"/>
       <use xlink:href="#LiberationSans-4b" transform="translate(55.615234 0)"/>
      </g>
     </g>
    </g>
    <g id="text_5">
     <!-- Resolution -->
     <g style="fill: #262626" transform="translate(208.636983 343.505) scale(0.1 -0.1)">
      <defs>
       <path id="LiberationSans-52" d="M 3638 0 
L 2494 1828 
L 1122 1828 
L 1122 0 
L 525 0 
L 525 4403 
L 2597 4403 
Q 3341 4403 3745 4070 
Q 4150 3738 4150 3144 
Q 4150 2653 3864 2318 
Q 3578 1984 3075 1897 
L 4325 0 
L 3638 0 
z
M 3550 3138 
Q 3550 3522 3289 3723 
Q 3028 3925 2538 3925 
L 1122 3925 
L 1122 2300 
L 2563 2300 
Q 3034 2300 3292 2520 
Q 3550 2741 3550 3138 
z
" transform="scale(0.015625)"/>
       <path id="LiberationSans-65" d="M 863 1572 
Q 863 991 1103 675 
Q 1344 359 1806 359 
Q 2172 359 2392 506 
Q 2613 653 2691 878 
L 3184 738 
Q 2881 -63 1806 -63 
Q 1056 -63 664 384 
Q 272 831 272 1713 
Q 272 2550 664 2997 
Q 1056 3444 1784 3444 
Q 3275 3444 3275 1647 
L 3275 1572 
L 863 1572 
z
M 2694 2003 
Q 2647 2538 2422 2783 
Q 2197 3028 1775 3028 
Q 1366 3028 1127 2754 
Q 888 2481 869 2003 
L 2694 2003 
z
" transform="scale(0.015625)"/>
       <path id="LiberationSans-73" d="M 2969 934 
Q 2969 456 2608 196 
Q 2247 -63 1597 -63 
Q 966 -63 623 145 
Q 281 353 178 794 
L 675 891 
Q 747 619 972 492 
Q 1197 366 1597 366 
Q 2025 366 2223 497 
Q 2422 628 2422 891 
Q 2422 1091 2284 1216 
Q 2147 1341 1841 1422 
L 1438 1528 
Q 953 1653 748 1773 
Q 544 1894 428 2066 
Q 313 2238 313 2488 
Q 313 2950 642 3192 
Q 972 3434 1603 3434 
Q 2163 3434 2492 3237 
Q 2822 3041 2909 2606 
L 2403 2544 
Q 2356 2769 2151 2889 
Q 1947 3009 1603 3009 
Q 1222 3009 1040 2893 
Q 859 2778 859 2544 
Q 859 2400 934 2306 
Q 1009 2213 1156 2147 
Q 1303 2081 1775 1966 
Q 2222 1853 2419 1758 
Q 2616 1663 2730 1547 
Q 2844 1431 2906 1279 
Q 2969 1128 2969 934 
z
" transform="scale(0.015625)"/>
       <path id="LiberationSans-6f" d="M 3291 1694 
Q 3291 806 2900 371 
Q 2509 -63 1766 -63 
Q 1025 -63 647 389 
Q 269 841 269 1694 
Q 269 3444 1784 3444 
Q 2559 3444 2925 3017 
Q 3291 2591 3291 1694 
z
M 2700 1694 
Q 2700 2394 2492 2711 
Q 2284 3028 1794 3028 
Q 1300 3028 1079 2704 
Q 859 2381 859 1694 
Q 859 1025 1076 689 
Q 1294 353 1759 353 
Q 2266 353 2483 678 
Q 2700 1003 2700 1694 
z
" transform="scale(0.015625)"/>
       <path id="LiberationSans-6c" d="M 431 0 
L 431 4638 
L 994 4638 
L 994 0 
L 431 0 
z
" transform="scale(0.015625)"/>
       <path id="LiberationSans-75" d="M 981 3381 
L 981 1238 
Q 981 903 1047 718 
Q 1113 534 1256 453 
Q 1400 372 1678 372 
Q 2084 372 2318 650 
Q 2553 928 2553 1422 
L 2553 3381 
L 3116 3381 
L 3116 722 
Q 3116 131 3134 0 
L 2603 0 
Q 2600 16 2597 84 
Q 2594 153 2589 242 
Q 2584 331 2578 578 
L 2569 578 
Q 2375 228 2120 82 
Q 1866 -63 1488 -63 
Q 931 -63 673 214 
Q 416 491 416 1128 
L 416 3381 
L 981 3381 
z
" transform="scale(0.015625)"/>
       <path id="LiberationSans-74" d="M 1731 25 
Q 1453 -50 1163 -50 
Q 488 -50 488 716 
L 488 2972 
L 97 2972 
L 97 3381 
L 509 3381 
L 675 4138 
L 1050 4138 
L 1050 3381 
L 1675 3381 
L 1675 2972 
L 1050 2972 
L 1050 838 
Q 1050 594 1129 495 
Q 1209 397 1406 397 
Q 1519 397 1731 441 
L 1731 25 
z
" transform="scale(0.015625)"/>
       <path id="LiberationSans-69" d="M 428 4100 
L 428 4638 
L 991 4638 
L 991 4100 
L 428 4100 
z
M 428 0 
L 428 3381 
L 991 3381 
L 991 0 
L 428 0 
z
" transform="scale(0.015625)"/>
       <path id="LiberationSans-6e" d="M 2578 0 
L 2578 2144 
Q 2578 2478 2512 2662 
Q 2447 2847 2303 2928 
Q 2159 3009 1881 3009 
Q 1475 3009 1240 2731 
Q 1006 2453 1006 1959 
L 1006 0 
L 444 0 
L 444 2659 
Q 444 3250 425 3381 
L 956 3381 
Q 959 3366 962 3297 
Q 966 3228 970 3139 
Q 975 3050 981 2803 
L 991 2803 
Q 1184 3153 1439 3298 
Q 1694 3444 2072 3444 
Q 2628 3444 2886 3167 
Q 3144 2891 3144 2253 
L 3144 0 
L 2578 0 
z
" transform="scale(0.015625)"/>
      </defs>
      <use xlink:href="#LiberationSans-52"/>
      <use xlink:href="#LiberationSans-65" transform="translate(72.216797 0)"/>
      <use xlink:href="#LiberationSans-73" transform="translate(127.832031 0)"/>
      <use xlink:href="#LiberationSans-6f" transform="translate(177.832031 0)"/>
      <use xlink:href="#LiberationSans-6c" transform="translate(233.447266 0)"/>
      <use xlink:href="#LiberationSans-75" transform="translate(255.664062 0)"/>
      <use xlink:href="#LiberationSans-74" transform="translate(311.279297 0)"/>
      <use xlink:href="#LiberationSans-69" transform="translate(339.0625 0)"/>
      <use xlink:href="#LiberationSans-6f" transform="translate(361.279297 0)"/>
      <use xlink:href="#LiberationSans-6e" transform="translate(416.894531 0)"/>
     </g>
    </g>
   </g>
   <g id="matplotlib.axis_2">
    <g id="ytick_1">
     <g id="line2d_9">
      <path d="M 39.421875 209.716791 
L 425.100529 209.716791 
" clip-path="url(#pbbaa1a2ca7)" style="fill: none; stroke: #cccccc; stroke-opacity: 0.3; stroke-width: 0.8; stroke-linecap: round"/>
     </g>
     <g id="line2d_10"/>
     <g id="text_6">
      <!-- $\mathdefault{10^{2}}$ -->
      <g style="fill: #262626" transform="translate(20.521875 213.340229) scale(0.1 -0.1)">
       <use xlink:href="#LiberationSans-31" transform="translate(0 0.140625)"/>
       <use xlink:href="#LiberationSans-30" transform="translate(55.615234 0.140625)"/>
       <use xlink:href="#LiberationSans-32" transform="translate(112.154961 37.120312) scale(0.7)"/>
      </g>
     </g>
    </g>
    <g id="ytick_2">
     <g id="line2d_11">
      <path d="M 39.421875 72.092984 
L 425.100529 72.092984 
" clip-path="url(#pbbaa1a2ca7)" style="fill: none; stroke: #cccccc; stroke-opacity: 0.3; stroke-width: 0.8; stroke-linecap: round"/>
     </g>
     <g id="line2d_12"/>
     <g id="text_7">
      <!-- $\mathdefault{10^{3}}$ -->
      <g style="fill: #262626" transform="translate(20.521875 75.716422) scale(0.1 -0.1)">
       <defs>
        <path id="LiberationSans-33" d="M 3278 1216 
Q 3278 606 2890 271 
Q 2503 -63 1784 -63 
Q 1116 -63 717 239 
Q 319 541 244 1131 
L 825 1184 
Q 938 403 1784 403 
Q 2209 403 2451 612 
Q 2694 822 2694 1234 
Q 2694 1594 2417 1795 
Q 2141 1997 1619 1997 
L 1300 1997 
L 1300 2484 
L 1606 2484 
Q 2069 2484 2323 2686 
Q 2578 2888 2578 3244 
Q 2578 3597 2370 3801 
Q 2163 4006 1753 4006 
Q 1381 4006 1151 3815 
Q 922 3625 884 3278 
L 319 3322 
Q 381 3863 767 4166 
Q 1153 4469 1759 4469 
Q 2422 4469 2789 4161 
Q 3156 3853 3156 3303 
Q 3156 2881 2920 2617 
Q 2684 2353 2234 2259 
L 2234 2247 
Q 2728 2194 3003 1916 
Q 3278 1638 3278 1216 
z
" transform="scale(0.015625)"/>
       </defs>
       <use xlink:href="#LiberationSans-31" transform="translate(0 0.140625)"/>
       <use xlink:href="#LiberationSans-30" transform="translate(55.615234 0.140625)"/>
       <use xlink:href="#LiberationSans-33" transform="translate(112.154961 37.120312) scale(0.7)"/>
      </g>
     </g>
    </g>
    <g id="ytick_3">
     <g id="line2d_13"/>
    </g>
    <g id="ytick_4">
     <g id="line2d_14"/>
    </g>
    <g id="ytick_5">
     <g id="line2d_15"/>
    </g>
    <g id="ytick_6">
     <g id="line2d_16"/>
    </g>
    <g id="ytick_7">
     <g id="line2d_17"/>
    </g>
    <g id="ytick_8">
     <g id="line2d_18"/>
    </g>
    <g id="ytick_9">
     <g id="line2d_19"/>
    </g>
    <g id="ytick_10">
     <g id="line2d_20"/>
    </g>
    <g id="ytick_11">
     <g id="line2d_21"/>
    </g>
    <g id="ytick_12">
     <g id="line2d_22"/>
    </g>
    <g id="ytick_13">
     <g id="line2d_23"/>
    </g>
    <g id="ytick_14">
     <g id="line2d_24"/>
    </g>
    <g id="ytick_15">
     <g id="line2d_25"/>
    </g>
    <g id="ytick_16">
     <g id="line2d_26"/>
    </g>
    <g id="ytick_17">
     <g id="line2d_27"/>
    </g>
    <g id="ytick_18">
     <g id="line2d_28"/>
    </g>
    <g id="ytick_19">
     <g id="line2d_29"/>
    </g>
    <g id="text_8">
     <!-- Frames per Second -->
     <g style="fill: #262626" transform="translate(14.446875 214.571719) rotate(-90) scale(0.1 -0.1)">
      <defs>
       <path id="LiberationSans-46" d="M 1122 3916 
L 1122 2278 
L 3578 2278 
L 3578 1784 
L 1122 1784 
L 1122 0 
L 525 0 
L 525 4403 
L 3653 4403 
L 3653 3916 
L 1122 3916 
z
" transform="scale(0.015625)"/>
       <path id="LiberationSans-72" d="M 444 0 
L 444 2594 
Q 444 2950 425 3381 
L 956 3381 
Q 981 2806 981 2691 
L 994 2691 
Q 1128 3125 1303 3284 
Q 1478 3444 1797 3444 
Q 1909 3444 2025 3413 
L 2025 2897 
Q 1913 2928 1725 2928 
Q 1375 2928 1190 2626 
Q 1006 2325 1006 1763 
L 1006 0 
L 444 0 
z
" transform="scale(0.015625)"/>
       <path id="LiberationSans-61" d="M 1294 -63 
Q 784 -63 528 206 
Q 272 475 272 944 
Q 272 1469 617 1750 
Q 963 2031 1731 2050 
L 2491 2063 
L 2491 2247 
Q 2491 2659 2316 2837 
Q 2141 3016 1766 3016 
Q 1388 3016 1216 2887 
Q 1044 2759 1009 2478 
L 422 2531 
Q 566 3444 1778 3444 
Q 2416 3444 2737 3151 
Q 3059 2859 3059 2306 
L 3059 850 
Q 3059 600 3125 473 
Q 3191 347 3375 347 
Q 3456 347 3559 369 
L 3559 19 
Q 3347 -31 3125 -31 
Q 2813 -31 2670 133 
Q 2528 297 2509 647 
L 2491 647 
Q 2275 259 1989 98 
Q 1703 -63 1294 -63 
z
M 1422 359 
Q 1731 359 1972 500 
Q 2213 641 2352 886 
Q 2491 1131 2491 1391 
L 2491 1669 
L 1875 1656 
Q 1478 1650 1273 1575 
Q 1069 1500 959 1344 
Q 850 1188 850 934 
Q 850 659 998 509 
Q 1147 359 1422 359 
z
" transform="scale(0.015625)"/>
       <path id="LiberationSans-6d" d="M 2400 0 
L 2400 2144 
Q 2400 2634 2265 2821 
Q 2131 3009 1781 3009 
Q 1422 3009 1212 2734 
Q 1003 2459 1003 1959 
L 1003 0 
L 444 0 
L 444 2659 
Q 444 3250 425 3381 
L 956 3381 
Q 959 3366 962 3297 
Q 966 3228 970 3139 
Q 975 3050 981 2803 
L 991 2803 
Q 1172 3163 1406 3303 
Q 1641 3444 1978 3444 
Q 2363 3444 2586 3291 
Q 2809 3138 2897 2803 
L 2906 2803 
Q 3081 3144 3329 3294 
Q 3578 3444 3931 3444 
Q 4444 3444 4676 3166 
Q 4909 2888 4909 2253 
L 4909 0 
L 4353 0 
L 4353 2144 
Q 4353 2634 4218 2821 
Q 4084 3009 3734 3009 
Q 3366 3009 3161 2736 
Q 2956 2463 2956 1959 
L 2956 0 
L 2400 0 
z
" transform="scale(0.015625)"/>
       <path id="LiberationSans-20" transform="scale(0.015625)"/>
       <path id="LiberationSans-53" d="M 3975 1216 
Q 3975 606 3498 271 
Q 3022 -63 2156 -63 
Q 547 -63 291 1056 
L 869 1172 
Q 969 775 1294 589 
Q 1619 403 2178 403 
Q 2756 403 3070 601 
Q 3384 800 3384 1184 
Q 3384 1400 3286 1534 
Q 3188 1669 3009 1756 
Q 2831 1844 2584 1903 
Q 2338 1963 2038 2031 
Q 1516 2147 1245 2262 
Q 975 2378 819 2520 
Q 663 2663 580 2853 
Q 497 3044 497 3291 
Q 497 3856 930 4162 
Q 1363 4469 2169 4469 
Q 2919 4469 3316 4239 
Q 3713 4009 3872 3456 
L 3284 3353 
Q 3188 3703 2916 3861 
Q 2644 4019 2163 4019 
Q 1634 4019 1356 3844 
Q 1078 3669 1078 3322 
Q 1078 3119 1186 2986 
Q 1294 2853 1497 2761 
Q 1700 2669 2306 2534 
Q 2509 2488 2711 2439 
Q 2913 2391 3097 2323 
Q 3281 2256 3442 2165 
Q 3603 2075 3722 1944 
Q 3841 1813 3908 1634 
Q 3975 1456 3975 1216 
z
" transform="scale(0.015625)"/>
       <path id="LiberationSans-63" d="M 859 1706 
Q 859 1031 1071 706 
Q 1284 381 1713 381 
Q 2013 381 2214 543 
Q 2416 706 2463 1044 
L 3031 1006 
Q 2966 519 2616 228 
Q 2266 -63 1728 -63 
Q 1019 -63 645 385 
Q 272 834 272 1694 
Q 272 2547 647 2995 
Q 1022 3444 1722 3444 
Q 2241 3444 2583 3175 
Q 2925 2906 3013 2434 
L 2434 2391 
Q 2391 2672 2212 2837 
Q 2034 3003 1706 3003 
Q 1259 3003 1059 2706 
Q 859 2409 859 1706 
z
" transform="scale(0.015625)"/>
       <path id="LiberationSans-64" d="M 2566 544 
Q 2409 219 2151 78 
Q 1894 -63 1513 -63 
Q 872 -63 570 368 
Q 269 800 269 1675 
Q 269 3444 1513 3444 
Q 1897 3444 2153 3303 
Q 2409 3163 2566 2856 
L 2572 2856 
L 2566 3234 
L 2566 4638 
L 3128 4638 
L 3128 697 
Q 3128 169 3147 0 
L 2609 0 
Q 2600 50 2589 231 
Q 2578 413 2578 544 
L 2566 544 
z
M 859 1694 
Q 859 984 1046 678 
Q 1234 372 1656 372 
Q 2134 372 2350 703 
Q 2566 1034 2566 1731 
Q 2566 2403 2350 2715 
Q 2134 3028 1663 3028 
Q 1238 3028 1048 2714 
Q 859 2400 859 1694 
z
" transform="scale(0.015625)"/>
      </defs>
      <use xlink:href="#LiberationSans-46"/>
      <use xlink:href="#LiberationSans-72" transform="translate(61.083984 0)"/>
      <use xlink:href="#LiberationSans-61" transform="translate(94.384766 0)"/>
      <use xlink:href="#LiberationSans-6d" transform="translate(150 0)"/>
      <use xlink:href="#LiberationSans-65" transform="translate(233.300781 0)"/>
      <use xlink:href="#LiberationSans-73" transform="translate(288.916016 0)"/>
      <use xlink:href="#LiberationSans-20" transform="translate(338.916016 0)"/>
      <use xlink:href="#LiberationSans-70" transform="translate(366.699219 0)"/>
      <use xlink:href="#LiberationSans-65" transform="translate(422.314453 0)"/>
      <use xlink:href="#LiberationSans-72" transform="translate(477.929688 0)"/>
      <use xlink:href="#LiberationSans-20" transform="translate(511.230469 0)"/>
      <use xlink:href="#LiberationSans-53" transform="translate(539.013672 0)"/>
      <use xlink:href="#LiberationSans-65" transform="translate(605.712891 0)"/>
      <use xlink:href="#LiberationSans-63" transform="translate(661.328125 0)"/>
      <use xlink:href="#LiberationSans-6f" transform="translate(711.328125 0)"/>
      <use xlink:href="#LiberationSans-6e" transform="translate(766.943359 0)"/>
      <use xlink:href="#LiberationSans-64" transform="translate(822.558594 0)"/>
     </g>
    </g>
   </g>
   <g id="patch_3">
    <path d="M 56.952723 138108.771673 
L 90.119192 138108.771673 
L 90.119192 198.819567 
L 56.952723 198.819567 
z
" clip-path="url(#pbbaa1a2ca7)" style="fill: #4682b4"/>
   </g>
   <g id="patch_4">
    <path d="M 151.714063 138108.771673 
L 184.880532 138108.771673 
L 184.880532 231.034989 
L 151.714063 231.034989 
z
" clip-path="url(#pbbaa1a2ca7)" style="fill: #4682b4"/>
   </g>
   <g id="patch_5">
    <path d="M 246.475403 138108.771673 
L 279.641872 138108.771673 
L 279.641872 264.48281 
L 246.475403 264.48281 
z
" clip-path="url(#pbbaa1a2ca7)" style="fill: #4682b4"/>
   </g>
   <g id="patch_6">
    <path d="M 341.236743 138108.771673 
L 374.403212 138108.771673 
L 374.403212 305.911705 
L 341.236743 305.911705 
z
" clip-path="url(#pbbaa1a2ca7)" style="fill: #4682b4"/>
   </g>
   <g id="patch_7">
    <path d="M 90.119192 138108.771673 
L 123.285661 138108.771673 
L 123.285661 35.420795 
L 90.119192 35.420795 
z
" clip-path="url(#pbbaa1a2ca7)" style="fill: #228b22"/>
   </g>
   <g id="patch_8">
    <path d="M 184.880532 138108.771673 
L 218.047001 138108.771673 
L 218.047001 83.735981 
L 184.880532 83.735981 
z
" clip-path="url(#pbbaa1a2ca7)" style="fill: #228b22"/>
   </g>
   <g id="patch_9">
    <path d="M 279.641872 138108.771673 
L 312.808341 138108.771673 
L 312.808341 119.819198 
L 279.641872 119.819198 
z
" clip-path="url(#pbbaa1a2ca7)" style="fill: #228b22"/>
   </g>
   <g id="patch_10">
    <path d="M 374.403212 138108.771673 
L 407.569681 138108.771673 
L 407.569681 166.52119 
L 374.403212 166.52119 
z
" clip-path="url(#pbbaa1a2ca7)" style="fill: #228b22"/>
   </g>
   <g id="patch_11">
    <path d="M 39.421875 319.43625 
L 39.421875 21.89625 
" style="fill: none; stroke: #cccccc; stroke-linejoin: miter; stroke-linecap: square"/>
   </g>
   <g id="patch_12">
    <path d="M 425.100529 319.43625 
L 425.100529 21.89625 
" style="fill: none; stroke: #cccccc; stroke-linejoin: miter; stroke-linecap: square"/>
   </g>
   <g id="patch_13">
    <path d="M 39.421875 319.43625 
L 425.100529 319.43625 
" style="fill: none; stroke: #cccccc; stroke-linejoin: miter; stroke-linecap: square"/>
   </g>
   <g id="patch_14">
    <path d="M 39.421875 21.89625 
L 425.100529 21.89625 
" style="fill: none; stroke: #cccccc; stroke-linejoin: miter; stroke-linecap: square"/>
   </g>
   <g id="text_9">
    <!-- 15× -->
    <g style="fill: #006400" transform="translate(99.069301 30.420795) scale(0.09 -0.09)">
     <defs>
      <path id="LiberationSans-Bold-31" d="M 403 0 
L 403 653 
L 1494 653 
L 1494 3656 
L 438 2997 
L 438 3688 
L 1541 4403 
L 2372 4403 
L 2372 653 
L 3381 653 
L 3381 0 
L 403 0 
z
" transform="scale(0.015625)"/>
      <path id="LiberationSans-Bold-35" d="M 3381 1466 
Q 3381 766 2945 351 
Q 2509 -63 1750 -63 
Q 1088 -63 689 235 
Q 291 534 197 1100 
L 1075 1172 
Q 1144 891 1319 762 
Q 1494 634 1759 634 
Q 2088 634 2283 843 
Q 2478 1053 2478 1447 
Q 2478 1794 2293 2001 
Q 2109 2209 1778 2209 
Q 1413 2209 1181 1925 
L 325 1925 
L 478 4403 
L 3125 4403 
L 3125 3750 
L 1275 3750 
L 1203 2638 
Q 1522 2919 2000 2919 
Q 2628 2919 3004 2528 
Q 3381 2138 3381 1466 
z
" transform="scale(0.015625)"/>
      <path id="LiberationSans-Bold-d7" d="M 269 1019 
L 1381 2138 
L 281 3238 
L 775 3725 
L 1875 2631 
L 2975 3731 
L 3469 3238 
L 2369 2131 
L 3469 1038 
L 2975 538 
L 1875 1644 
L 763 525 
L 269 1019 
z
" transform="scale(0.015625)"/>
     </defs>
     <use xlink:href="#LiberationSans-Bold-31"/>
     <use xlink:href="#LiberationSans-Bold-35" transform="translate(55.615234 0)"/>
     <use xlink:href="#LiberationSans-Bold-d7" transform="translate(111.230469 0)"/>
    </g>
   </g>
   <g id="text_10">
    <!-- 12× -->
    <g style="fill: #006400" transform="translate(193.830641 78.735981) scale(0.09 -0.09)">
     <defs>
      <path id="LiberationSans-Bold-32" d="M 222 0 
L 222 609 
Q 394 988 711 1347 
Q 1028 1706 1509 2097 
Q 1972 2472 2158 2715 
Q 2344 2959 2344 3194 
Q 2344 3769 1766 3769 
Q 1484 3769 1336 3617 
Q 1188 3466 1144 3163 
L 259 3213 
Q 334 3825 717 4147 
Q 1100 4469 1759 4469 
Q 2472 4469 2853 4144 
Q 3234 3819 3234 3231 
Q 3234 2922 3112 2672 
Q 2991 2422 2800 2211 
Q 2609 2000 2376 1815 
Q 2144 1631 1925 1456 
Q 1706 1281 1526 1103 
Q 1347 925 1259 722 
L 3303 722 
L 3303 0 
L 222 0 
z
" transform="scale(0.015625)"/>
     </defs>
     <use xlink:href="#LiberationSans-Bold-31"/>
     <use xlink:href="#LiberationSans-Bold-32" transform="translate(55.615234 0)"/>
     <use xlink:href="#LiberationSans-Bold-d7" transform="translate(111.230469 0)"/>
    </g>
   </g>
   <g id="text_11">
    <!-- 11× -->
    <g style="fill: #006400" transform="translate(288.839481 114.819198) scale(0.09 -0.09)">
     <use xlink:href="#LiberationSans-Bold-31"/>
     <use xlink:href="#LiberationSans-Bold-31" transform="translate(50.115234 0)"/>
     <use xlink:href="#LiberationSans-Bold-d7" transform="translate(105.730469 0)"/>
    </g>
   </g>
   <g id="text_12">
    <!-- 10× -->
    <g style="fill: #006400" transform="translate(383.353321 161.52119) scale(0.09 -0.09)">
     <defs>
      <path id="LiberationSans-Bold-30" d="M 3297 2203 
Q 3297 1088 2914 512 
Q 2531 -63 1766 -63 
Q 253 -63 253 2203 
Q 253 2994 418 3494 
Q 584 3994 915 4231 
Q 1247 4469 1791 4469 
Q 2572 4469 2934 3903 
Q 3297 3338 3297 2203 
z
M 2416 2203 
Q 2416 2813 2356 3150 
Q 2297 3488 2165 3634 
Q 2034 3781 1784 3781 
Q 1519 3781 1383 3632 
Q 1247 3484 1189 3148 
Q 1131 2813 1131 2203 
Q 1131 1600 1192 1261 
Q 1253 922 1386 775 
Q 1519 628 1772 628 
Q 2022 628 2158 783 
Q 2294 938 2355 1278 
Q 2416 1619 2416 2203 
z
" transform="scale(0.015625)"/>
     </defs>
     <use xlink:href="#LiberationSans-Bold-31"/>
     <use xlink:href="#LiberationSans-Bold-30" transform="translate(55.615234 0)"/>
     <use xlink:href="#LiberationSans-Bold-d7" transform="translate(111.230469 0)"/>
    </g>
   </g>
   <g id="text_13">
    <!-- Processing Speed by Resolution -->
    <g style="fill: #262626" transform="translate(145.547139 15.89625) scale(0.12 -0.12)">
     <defs>
      <path id="LiberationSans-50" d="M 3931 3078 
Q 3931 2453 3523 2084 
Q 3116 1716 2416 1716 
L 1122 1716 
L 1122 0 
L 525 0 
L 525 4403 
L 2378 4403 
Q 3119 4403 3525 4056 
Q 3931 3709 3931 3078 
z
M 3331 3072 
Q 3331 3925 2306 3925 
L 1122 3925 
L 1122 2188 
L 2331 2188 
Q 3331 2188 3331 3072 
z
" transform="scale(0.015625)"/>
      <path id="LiberationSans-67" d="M 1713 -1328 
Q 1159 -1328 831 -1111 
Q 503 -894 409 -494 
L 975 -413 
Q 1031 -647 1223 -773 
Q 1416 -900 1728 -900 
Q 2569 -900 2569 84 
L 2569 628 
L 2563 628 
Q 2403 303 2125 139 
Q 1847 -25 1475 -25 
Q 853 -25 561 387 
Q 269 800 269 1684 
Q 269 2581 583 3007 
Q 897 3434 1538 3434 
Q 1897 3434 2161 3270 
Q 2425 3106 2569 2803 
L 2575 2803 
Q 2575 2897 2587 3128 
Q 2600 3359 2613 3381 
L 3147 3381 
Q 3128 3213 3128 2681 
L 3128 97 
Q 3128 -1328 1713 -1328 
z
M 2569 1691 
Q 2569 2103 2456 2401 
Q 2344 2700 2139 2858 
Q 1934 3016 1675 3016 
Q 1244 3016 1047 2703 
Q 850 2391 850 1691 
Q 850 997 1034 694 
Q 1219 391 1666 391 
Q 1931 391 2137 547 
Q 2344 703 2456 995 
Q 2569 1288 2569 1691 
z
" transform="scale(0.015625)"/>
      <path id="LiberationSans-62" d="M 3291 1706 
Q 3291 -63 2047 -63 
Q 1663 -63 1408 76 
Q 1153 216 994 525 
L 988 525 
Q 988 428 975 229 
Q 963 31 956 0 
L 413 0 
Q 431 169 431 697 
L 431 4638 
L 994 4638 
L 994 3316 
Q 994 3113 981 2838 
L 994 2838 
Q 1150 3163 1408 3303 
Q 1666 3444 2047 3444 
Q 2688 3444 2989 3012 
Q 3291 2581 3291 1706 
z
M 2700 1688 
Q 2700 2397 2512 2703 
Q 2325 3009 1903 3009 
Q 1428 3009 1211 2684 
Q 994 2359 994 1653 
Q 994 988 1206 670 
Q 1419 353 1897 353 
Q 2322 353 2511 667 
Q 2700 981 2700 1688 
z
" transform="scale(0.015625)"/>
      <path id="LiberationSans-79" d="M 597 -1328 
Q 366 -1328 209 -1294 
L 209 -872 
Q 328 -891 472 -891 
Q 997 -891 1303 -119 
L 1356 16 
L 16 3381 
L 616 3381 
L 1328 1513 
Q 1344 1469 1366 1408 
Q 1388 1347 1506 1000 
Q 1625 653 1634 613 
L 1853 1228 
L 2594 3381 
L 3188 3381 
L 1888 0 
Q 1678 -541 1497 -805 
Q 1316 -1069 1095 -1198 
Q 875 -1328 597 -1328 
z
" transform="scale(0.015625)"/>
     </defs>
     <use xlink:href="#LiberationSans-50"/>
     <use xlink:href="#LiberationSans-72" transform="translate(66.699219 0)"/>
     <use xlink:href="#LiberationSans-6f" transform="translate(100 0)"/>
     <use xlink:href="#LiberationSans-63" transform="translate(155.615234 0)"/>
     <use xlink:href="#LiberationSans-65" transform="translate(205.615234 0)"/>
     <use xlink:href="#LiberationSans-73" transform="translate(261.230469 0)"/>
     <use xlink:href="#LiberationSans-73" transform="translate(311.230469 0)"/>
     <use xlink:href="#LiberationSans-69" transform="translate(361.230469 0)"/>
     <use xlink:href="#LiberationSans-6e" transform="translate(383.447266 0)"/>
     <use xlink:href="#LiberationSans-67" transform="translate(439.0625 0)"/>
     <use xlink:href="#LiberationSans-20" transform="translate(494.677734 0)"/>
     <use xlink:href="#LiberationSans-53" transform="translate(522.460938 0)"/>
     <use xlink:href="#LiberationSans-70" transform="translate(589.160156 0)"/>
     <use xlink:href="#LiberationSans-65" transform="translate(644.775391 0)"/>
     <use xlink:href="#LiberationSans-65" transform="translate(700.390625 0)"/>
     <use xlink:href="#LiberationSans-64" transform="translate(756.005859 0)"/>
     <use xlink:href="#LiberationSans-20" transform="translate(811.621094 0)"/>
     <use xlink:href="#LiberationSans-62" transform="translate(839.404297 0)"/>
     <use xlink:href="#LiberationSans-79" transform="translate(895.019531 0)"/>
     <use xlink:href="#LiberationSans-20" transform="translate(945.019531 0)"/>
     <use xlink:href="#LiberationSans-52" transform="translate(972.802734 0)"/>
     <use xlink:href="#LiberationSans-65" transform="translate(1045.019531 0)"/>
     <use xlink:href="#LiberationSans-73" transform="translate(1100.634766 0)"/>
     <use xlink:href="#LiberationSans-6f" transform="translate(1150.634766 0)"/>
     <use xlink:href="#LiberationSans-6c" transform="translate(1206.25 0)"/>
     <use xlink:href="#LiberationSans-75" transform="translate(1228.466797 0)"/>
     <use xlink:href="#LiberationSans-74" transform="translate(1284.082031 0)"/>
     <use xlink:href="#LiberationSans-69" transform="translate(1311.865234 0)"/>
     <use xlink:href="#LiberationSans-6f" transform="translate(1334.082031 0)"/>
     <use xlink:href="#LiberationSans-6e" transform="translate(1389.697266 0)"/>
    </g>
   </g>
   <g id="legend_1">
    <g id="patch_15">
     <path d="M 314.748966 38.143125 
L 334.748966 38.143125 
L 334.748966 31.143125 
L 314.748966 31.143125 
z
" style="fill: #4682b4"/>
    </g>
    <g id="text_14">
     <!-- Python (NumPy) -->
     <g style="fill: #262626" transform="translate(342.748966 38.143125) scale(0.1 -0.1)">
      <defs>
       <path id="LiberationSans-68" d="M 991 2803 
Q 1172 3134 1426 3289 
Q 1681 3444 2072 3444 
Q 2622 3444 2883 3170 
Q 3144 2897 3144 2253 
L 3144 0 
L 2578 0 
L 2578 2144 
Q 2578 2500 2512 2673 
Q 2447 2847 2297 2928 
Q 2147 3009 1881 3009 
Q 1484 3009 1245 2734 
Q 1006 2459 1006 1994 
L 1006 0 
L 444 0 
L 444 4638 
L 1006 4638 
L 1006 3431 
Q 1006 3241 995 3037 
Q 984 2834 981 2803 
L 991 2803 
z
" transform="scale(0.015625)"/>
       <path id="LiberationSans-28" d="M 397 1663 
Q 397 2566 680 3284 
Q 963 4003 1550 4638 
L 2094 4638 
Q 1509 3988 1236 3256 
Q 963 2525 963 1656 
Q 963 791 1233 62 
Q 1503 -666 2094 -1325 
L 1550 -1325 
Q 959 -688 678 32 
Q 397 753 397 1650 
L 397 1663 
z
" transform="scale(0.015625)"/>
       <path id="LiberationSans-4e" d="M 3381 0 
L 1025 3750 
L 1041 3447 
L 1056 2925 
L 1056 0 
L 525 0 
L 525 4403 
L 1219 4403 
L 3600 628 
Q 3563 1241 3563 1516 
L 3563 4403 
L 4100 4403 
L 4100 0 
L 3381 0 
z
" transform="scale(0.015625)"/>
       <path id="LiberationSans-29" d="M 1734 1650 
Q 1734 747 1451 28 
Q 1169 -691 581 -1325 
L 38 -1325 
Q 625 -669 897 57 
Q 1169 784 1169 1656 
Q 1169 2528 895 3256 
Q 622 3984 38 4638 
L 581 4638 
Q 1172 4000 1453 3279 
Q 1734 2559 1734 1663 
L 1734 1650 
z
" transform="scale(0.015625)"/>
      </defs>
      <use xlink:href="#LiberationSans-50"/>
      <use xlink:href="#LiberationSans-79" transform="translate(66.699219 0)"/>
      <use xlink:href="#LiberationSans-74" transform="translate(116.699219 0)"/>
      <use xlink:href="#LiberationSans-68" transform="translate(144.482422 0)"/>
      <use xlink:href="#LiberationSans-6f" transform="translate(200.097656 0)"/>
      <use xlink:href="#LiberationSans-6e" transform="translate(255.712891 0)"/>
      <use xlink:href="#LiberationSans-20" transform="translate(311.328125 0)"/>
      <use xlink:href="#LiberationSans-28" transform="translate(339.111328 0)"/>
      <use xlink:href="#LiberationSans-4e" transform="translate(372.412109 0)"/>
      <use xlink:href="#LiberationSans-75" transform="translate(444.628906 0)"/>
      <use xlink:href="#LiberationSans-6d" transform="translate(500.244141 0)"/>
      <use xlink:href="#LiberationSans-50" transform="translate(583.544922 0)"/>
      <use xlink:href="#LiberationSans-79" transform="translate(650.244141 0)"/>
      <use xlink:href="#LiberationSans-29" transform="translate(700.244141 0)"/>
     </g>
    </g>
    <g id="patch_16">
     <path d="M 314.748966 52.465 
L 334.748966 52.465 
L 334.748966 45.465 
L 314.748966 45.465 
z
" style="fill: #228b22"/>
    </g>
    <g id="text_15">
     <!-- CUDA -->
     <g style="fill: #262626" transform="translate(342.748966 52.465) scale(0.1 -0.1)">
      <defs>
       <path id="LiberationSans-43" d="M 2475 3981 
Q 1744 3981 1337 3511 
Q 931 3041 931 2222 
Q 931 1413 1354 920 
Q 1778 428 2500 428 
Q 3425 428 3891 1344 
L 4378 1100 
Q 4106 531 3614 234 
Q 3122 -63 2472 -63 
Q 1806 -63 1320 214 
Q 834 491 579 1005 
Q 325 1519 325 2222 
Q 325 3275 894 3872 
Q 1463 4469 2469 4469 
Q 3172 4469 3644 4194 
Q 4116 3919 4338 3378 
L 3772 3191 
Q 3619 3575 3280 3778 
Q 2941 3981 2475 3981 
z
" transform="scale(0.015625)"/>
       <path id="LiberationSans-55" d="M 2284 -63 
Q 1744 -63 1341 134 
Q 938 331 716 706 
Q 494 1081 494 1600 
L 494 4403 
L 1091 4403 
L 1091 1650 
Q 1091 1047 1397 734 
Q 1703 422 2281 422 
Q 2875 422 3204 745 
Q 3534 1069 3534 1691 
L 3534 4403 
L 4128 4403 
L 4128 1656 
Q 4128 1122 3901 734 
Q 3675 347 3261 142 
Q 2847 -63 2284 -63 
z
" transform="scale(0.015625)"/>
       <path id="LiberationSans-44" d="M 4316 2247 
Q 4316 1566 4050 1055 
Q 3784 544 3296 272 
Q 2809 0 2172 0 
L 525 0 
L 525 4403 
L 1981 4403 
Q 3100 4403 3708 3842 
Q 4316 3281 4316 2247 
z
M 3716 2247 
Q 3716 3066 3267 3495 
Q 2819 3925 1969 3925 
L 1122 3925 
L 1122 478 
L 2103 478 
Q 2588 478 2955 690 
Q 3322 903 3519 1303 
Q 3716 1703 3716 2247 
z
" transform="scale(0.015625)"/>
       <path id="LiberationSans-41" d="M 3647 0 
L 3144 1288 
L 1138 1288 
L 631 0 
L 13 0 
L 1809 4403 
L 2488 4403 
L 4256 0 
L 3647 0 
z
M 2141 3953 
L 2113 3866 
Q 2034 3606 1881 3200 
L 1319 1753 
L 2966 1753 
L 2400 3206 
Q 2313 3422 2225 3694 
L 2141 3953 
z
" transform="scale(0.015625)"/>
      </defs>
      <use xlink:href="#LiberationSans-43"/>
      <use xlink:href="#LiberationSans-55" transform="translate(72.216797 0)"/>
      <use xlink:href="#LiberationSans-44" transform="translate(144.433594 0)"/>
      <use xlink:href="#LiberationSans-41" transform="translate(216.650391 0)"/>
     </g>
    </g>
   </g>
  </g>
  <g id="axes_2">
   <g id="patch_17">
    <path d="M 463.740529 319.43625 
L 849.419182 319.43625 
L 849.419182 21.89625 
L 463.740529 21.89625 
z
" style="fill: #ffffff"/>
   </g>
   <g id="matplotlib.axis_3">
    <g id="xtick_5">
     <g id="line2d_30">
      <path d="M 518.178425 319.43625 
L 518.178425 21.89625 
" clip-path="url(#p25b963fc37)" style="fill: none; stroke: #cccccc; stroke-width: 0.8; stroke-linecap: round"/>
     </g>
     <g id="line2d_31"/>
     <g id="text_16">
      <!-- 720p -->
      <g style="fill: #262626" transform="translate(507.05655 330.183125) scale(0.1 -0.1)">
       <use xlink:href="#LiberationSans-37"/>
       <use xlink:href="#LiberationSans-32" transform="translate(55.615234 0)"/>
       <use xlink:href="#LiberationSans-30" transform="translate(111.230469 0)"/>
       <use xlink:href="#LiberationSans-70" transform="translate(166.845703 0)"/>
      </g>
     </g>
    </g>
    <g id="xtick_6">
     <g id="line2d_32">
      <path d="M 610.446045 319.43625 
L 610.446045 21.89625 
" clip-path="url(#p25b963fc37)" style="fill: none; stroke: #cccccc; stroke-width: 0.8; stroke-linecap: round"/>
     </g>
     <g id="line2d_33"/>
     <g id="text_17">
      <!-- 1080p -->
      <g style="fill: #262626" transform="translate(596.543701 330.183125) scale(0.1 -0.1)">
       <use xlink:href="#LiberationSans-31"/>
       <use xlink:href="#LiberationSans-30" transform="translate(55.615234 0)"/>
       <use xlink:href="#LiberationSans-38" transform="translate(111.230469 0)"/>
       <use xlink:href="#LiberationSans-30" transform="translate(166.845703 0)"/>
       <use xlink:href="#LiberationSans-70" transform="translate(222.460938 0)"/>
      </g>
     </g>
    </g>
    <g id="xtick_7">
     <g id="line2d_34">
      <path d="M 702.713666 319.43625 
L 702.713666 21.89625 
" clip-path="url(#p25b963fc37)" style="fill: none; stroke: #cccccc; stroke-width: 0.8; stroke-linecap: round"/>
     </g>
     <g id="line2d_35"/>
     <g id="text_18">
      <!-- 1440p -->
      <g style="fill: #262626" transform="translate(688.811322 330.183125) scale(0.1 -0.1)">
       <use xlink:href="#LiberationSans-31"/>
       <use xlink:href="#LiberationSans-34" transform="translate(55.615234 0)"/>
       <use xlink:href="#LiberationSans-34" transform="translate(111.230469 0)"/>
       <use xlink:href="#LiberationSans-30" transform="translate(166.845703 0)"/>
       <use xlink:href="#LiberationSans-70" transform="translate(222.460938 0)"/>
      </g>
     </g>
    </g>
    <g id="xtick_8">
     <g id="line2d_36">
      <path d="M 794.981286 319.43625 
L 794.981286 21.89625 
" clip-path="url(#p25b963fc37)" style="fill: none; stroke: #cccccc; stroke-width: 0.8; stroke-linecap: round"/>
     </g>
     <g id="line2d_37"/>
     <g id="text_19">
      <!-- 4K -->
      <g style="fill: #262626" transform="translate(788.865661 330.183125) scale(0.1 -0.1)">
       <use xlink:href="#LiberationSans-34"/>
       <use xlink:href="#LiberationSans-4b" transform="translate(55.615234 0)"/>
      </g>
     </g>
    </g>
    <g id="text_20">
     <!-- Resolution -->
     <g style="fill: #262626" transform="translate(632.955637 343.505) scale(0.1 -0.1)">
      <use xlink:href="#LiberationSans-52"/>
      <use xlink:href="#LiberationSans-65" transform="translate(72.216797 0)"/>
      <use xlink:href="#LiberationSans-73" transform="translate(127.832031 0)"/>
      <use xlink:href="#LiberationSans-6f" transform="translate(177.832031 0)"/>
      <use xlink:href="#LiberationSans-6c" transform="translate(233.447266 0)"/>
      <use xlink:href="#LiberationSans-75" transform="translate(255.664062 0)"/>
      <use xlink:href="#LiberationSans-74" transform="translate(311.279297 0)"/>
      <use xlink:href="#LiberationSans-69" transform="translate(339.0625 0)"/>
      <use xlink:href="#LiberationSans-6f" transform="translate(361.279297 0)"/>
      <use xlink:href="#LiberationSans-6e" transform="translate(416.894531 0)"/>
     </g>
    </g>
   </g>
   <g id="matplotlib.axis_4">
    <g id="ytick_20">
     <g id="line2d_38">
      <path d="M 463.740529 319.43625 
L 849.419182 319.43625 
" clip-path="url(#p25b963fc37)" style="fill: none; stroke: #cccccc; stroke-opacity: 0.3; stroke-width: 0.8; stroke-linecap: round"/>
     </g>
     <g id="line2d_39"/>
     <g id="text_21">
      <!-- 0 -->
      <g style="fill: #262626" transform="translate(454.679591 323.059688) scale(0.1 -0.1)">
       <use xlink:href="#LiberationSans-30"/>
      </g>
     </g>
    </g>
    <g id="ytick_21">
     <g id="line2d_40">
      <path d="M 463.740529 282.614841 
L 849.419182 282.614841 
" clip-path="url(#p25b963fc37)" style="fill: none; stroke: #cccccc; stroke-opacity: 0.3; stroke-width: 0.8; stroke-linecap: round"/>
     </g>
     <g id="line2d_41"/>
     <g id="text_22">
      <!-- 2 -->
      <g style="fill: #262626" transform="translate(454.679591 286.238278) scale(0.1 -0.1)">
       <use xlink:href="#LiberationSans-32"/>
      </g>
     </g>
    </g>
    <g id="ytick_22">
     <g id="line2d_42">
      <path d="M 463.740529 245.793432 
L 849.419182 245.793432 
" clip-path="url(#p25b963fc37)" style="fill: none; stroke: #cccccc; stroke-opacity: 0.3; stroke-width: 0.8; stroke-linecap: round"/>
     </g>
     <g id="line2d_43"/>
     <g id="text_23">
      <!-- 4 -->
      <g style="fill: #262626" transform="translate(454.679591 249.416869) scale(0.1 -0.1)">
       <use xlink:href="#LiberationSans-34"/>
      </g>
     </g>
    </g>
    <g id="ytick_23">
     <g id="line2d_44">
      <path d="M 463.740529 208.972022 
L 849.419182 208.972022 
" clip-path="url(#p25b963fc37)" style="fill: none; stroke: #cccccc; stroke-opacity: 0.3; stroke-width: 0.8; stroke-linecap: round"/>
     </g>
     <g id="line2d_45"/>
     <g id="text_24">
      <!-- 6 -->
      <g style="fill: #262626" transform="translate(454.679591 212.59546) scale(0.1 -0.1)">
       <defs>
        <path id="LiberationSans-36" d="M 3278 1441 
Q 3278 744 2900 340 
Q 2522 -63 1856 -63 
Q 1113 -63 719 490 
Q 325 1044 325 2100 
Q 325 3244 734 3856 
Q 1144 4469 1900 4469 
Q 2897 4469 3156 3572 
L 2619 3475 
Q 2453 4013 1894 4013 
Q 1413 4013 1148 3564 
Q 884 3116 884 2266 
Q 1038 2550 1316 2698 
Q 1594 2847 1953 2847 
Q 2563 2847 2920 2465 
Q 3278 2084 3278 1441 
z
M 2706 1416 
Q 2706 1894 2472 2153 
Q 2238 2413 1819 2413 
Q 1425 2413 1183 2183 
Q 941 1953 941 1550 
Q 941 1041 1192 716 
Q 1444 391 1838 391 
Q 2244 391 2475 664 
Q 2706 938 2706 1416 
z
" transform="scale(0.015625)"/>
       </defs>
       <use xlink:href="#LiberationSans-36"/>
      </g>
     </g>
    </g>
    <g id="ytick_24">
     <g id="line2d_46">
      <path d="M 463.740529 172.150613 
L 849.419182 172.150613 
" clip-path="url(#p25b963fc37)" style="fill: none; stroke: #cccccc; stroke-opacity: 0.3; stroke-width: 0.8; stroke-linecap: round"/>
     </g>
     <g id="line2d_47"/>
     <g id="text_25">
      <!-- 8 -->
      <g style="fill: #262626" transform="translate(454.679591 175.774051) scale(0.1 -0.1)">
       <use xlink:href="#LiberationSans-38"/>
      </g>
     </g>
    </g>
    <g id="ytick_25">
     <g id="line2d_48">
      <path d="M 463.740529 135.329204 
L 849.419182 135.329204 
" clip-path="url(#p25b963fc37)" style="fill: none; stroke: #cccccc; stroke-opacity: 0.3; stroke-width: 0.8; stroke-linecap: round"/>
     </g>
     <g id="line2d_49"/>
     <g id="text_26">
      <!-- 10 -->
      <g style="fill: #262626" transform="translate(449.118654 138.952641) scale(0.1 -0.1)">
       <use xlink:href="#LiberationSans-31"/>
       <use xlink:href="#LiberationSans-30" transform="translate(55.615234 0)"/>
      </g>
     </g>
    </g>
    <g id="ytick_26">
     <g id="line2d_50">
      <path d="M 463.740529 98.507795 
L 849.419182 98.507795 
" clip-path="url(#p25b963fc37)" style="fill: none; stroke: #cccccc; stroke-opacity: 0.3; stroke-width: 0.8; stroke-linecap: round"/>
     </g>
     <g id="line2d_51"/>
     <g id="text_27">
      <!-- 12 -->
      <g style="fill: #262626" transform="translate(449.118654 102.131232) scale(0.1 -0.1)">
       <use xlink:href="#LiberationSans-31"/>
       <use xlink:href="#LiberationSans-32" transform="translate(55.615234 0)"/>
      </g>
     </g>
    </g>
    <g id="ytick_27">
     <g id="line2d_52">
      <path d="M 463.740529 61.686385 
L 849.419182 61.686385 
" clip-path="url(#p25b963fc37)" style="fill: none; stroke: #cccccc; stroke-opacity: 0.3; stroke-width: 0.8; stroke-linecap: round"/>
     </g>
     <g id="line2d_53"/>
     <g id="text_28">
      <!-- 14 -->
      <g style="fill: #262626" transform="translate(449.118654 65.309823) scale(0.1 -0.1)">
       <use xlink:href="#LiberationSans-31"/>
       <use xlink:href="#LiberationSans-34" transform="translate(55.615234 0)"/>
      </g>
     </g>
    </g>
    <g id="ytick_28">
     <g id="line2d_54">
      <path d="M 463.740529 24.864976 
L 849.419182 24.864976 
" clip-path="url(#p25b963fc37)" style="fill: none; stroke: #cccccc; stroke-opacity: 0.3; stroke-width: 0.8; stroke-linecap: round"/>
     </g>
     <g id="line2d_55"/>
     <g id="text_29">
      <!-- 16 -->
      <g style="fill: #262626" transform="translate(449.118654 28.488414) scale(0.1 -0.1)">
       <use xlink:href="#LiberationSans-31"/>
       <use xlink:href="#LiberationSans-36" transform="translate(55.615234 0)"/>
      </g>
     </g>
    </g>
    <g id="text_30">
     <!-- Speedup (CUDA / Python) -->
     <g style="fill: #262626" transform="translate(443.043654 229.02875) rotate(-90) scale(0.1 -0.1)">
      <defs>
       <path id="LiberationSans-2f" d="M 0 -63 
L 1284 4638 
L 1778 4638 
L 506 -63 
L 0 -63 
z
" transform="scale(0.015625)"/>
      </defs>
      <use xlink:href="#LiberationSans-53"/>
      <use xlink:href="#LiberationSans-70" transform="translate(66.699219 0)"/>
      <use xlink:href="#LiberationSans-65" transform="translate(122.314453 0)"/>
      <use xlink:href="#LiberationSans-65" transform="translate(177.929688 0)"/>
      <use xlink:href="#LiberationSans-64" transform="translate(233.544922 0)"/>
      <use xlink:href="#LiberationSans-75" transform="translate(289.160156 0)"/>
      <use xlink:href="#LiberationSans-70" transform="translate(344.775391 0)"/>
      <use xlink:href="#LiberationSans-20" transform="translate(400.390625 0)"/>
      <use xlink:href="#LiberationSans-28" transform="translate(428.173828 0)"/>
      <use xlink:href="#LiberationSans-43" transform="translate(461.474609 0)"/>
      <use xlink:href="#LiberationSans-55" transform="translate(533.691406 0)"/>
      <use xlink:href="#LiberationSans-44" transform="translate(605.908203 0)"/>
      <use xlink:href="#LiberationSans-41" transform="translate(678.125 0)"/>
      <use xlink:href="#LiberationSans-20" transform="translate(739.324219 0)"/>
      <use xlink:href="#LiberationSans-2f" transform="translate(767.107422 0)"/>
      <use xlink:href="#LiberationSans-20" transform="translate(794.890625 0)"/>
      <use xlink:href="#LiberationSans-50" transform="translate(822.673828 0)"/>
      <use xlink:href="#LiberationSans-79" transform="translate(889.373047 0)"/>
      <use xlink:href="#LiberationSans-74" transform="translate(939.373047 0)"/>
      <use xlink:href="#LiberationSans-68" transform="translate(967.15625 0)"/>
      <use xlink:href="#LiberationSans-6f" transform="translate(1022.771484 0)"/>
      <use xlink:href="#LiberationSans-6e" transform="translate(1078.386719 0)"/>
      <use xlink:href="#LiberationSans-29" transform="translate(1134.001953 0)"/>
     </g>
    </g>
   </g>
   <g id="patch_18">
    <path d="M 481.271376 319.43625 
L 555.085473 319.43625 
L 555.085473 36.064821 
L 481.271376 36.064821 
z
" clip-path="url(#p25b963fc37)" style="fill: #98d594; stroke: #006400; stroke-width: 1.5; stroke-linejoin: miter"/>
   </g>
   <g id="patch_19">
    <path d="M 573.538997 319.43625 
L 647.353093 319.43625 
L 647.353093 102.978966 
L 573.538997 102.978966 
z
" clip-path="url(#p25b963fc37)" style="fill: #66bd6f; stroke: #006400; stroke-width: 1.5; stroke-linejoin: miter"/>
   </g>
   <g id="patch_20">
    <path d="M 665.806617 319.43625 
L 739.620714 319.43625 
L 739.620714 112.315823 
L 665.806617 112.315823 
z
" clip-path="url(#p25b963fc37)" style="fill: #37a055; stroke: #006400; stroke-width: 1.5; stroke-linejoin: miter"/>
   </g>
   <g id="patch_21">
    <path d="M 758.074238 319.43625 
L 831.888334 319.43625 
L 831.888334 129.805992 
L 758.074238 129.805992 
z
" clip-path="url(#p25b963fc37)" style="fill: #157f3b; stroke: #006400; stroke-width: 1.5; stroke-linejoin: miter"/>
   </g>
   <g id="line2d_56">
    <path d="M 463.740529 135.329204 
L 849.419182 135.329204 
" clip-path="url(#p25b963fc37)" style="fill: none; stroke-dasharray: 5.55,2.4; stroke-dashoffset: 0; stroke: #ff0000; stroke-opacity: 0.7; stroke-width: 1.5"/>
   </g>
   <g id="patch_22">
    <path d="M 463.740529 319.43625 
L 463.740529 21.89625 
" style="fill: none; stroke: #cccccc; stroke-linejoin: miter; stroke-linecap: square"/>
   </g>
   <g id="patch_23">
    <path d="M 849.419182 319.43625 
L 849.419182 21.89625 
" style="fill: none; stroke: #cccccc; stroke-linejoin: miter; stroke-linecap: square"/>
   </g>
   <g id="patch_24">
    <path d="M 463.740529 319.43625 
L 849.419182 319.43625 
" style="fill: none; stroke: #cccccc; stroke-linejoin: miter; stroke-linecap: square"/>
   </g>
   <g id="patch_25">
    <path d="M 463.740529 21.89625 
L 849.419182 21.89625 
" style="fill: none; stroke: #cccccc; stroke-linejoin: miter; stroke-linecap: square"/>
   </g>
   <g id="text_31">
    <!-- 15.4× -->
    <g style="fill: #262626" transform="translate(505.527643 30.54161) scale(0.1 -0.1)">
     <defs>
      <path id="LiberationSans-Bold-2e" d="M 434 0 
L 434 953 
L 1338 953 
L 1338 0 
L 434 0 
z
" transform="scale(0.015625)"/>
      <path id="LiberationSans-Bold-34" d="M 2938 897 
L 2938 0 
L 2100 0 
L 2100 897 
L 97 897 
L 97 1556 
L 1956 4403 
L 2938 4403 
L 2938 1550 
L 3525 1550 
L 3525 897 
L 2938 897 
z
M 2100 2991 
Q 2100 3159 2111 3356 
Q 2122 3553 2128 3609 
Q 2047 3434 1834 3103 
L 813 1550 
L 2100 1550 
L 2100 2991 
z
" transform="scale(0.015625)"/>
     </defs>
     <use xlink:href="#LiberationSans-Bold-31"/>
     <use xlink:href="#LiberationSans-Bold-35" transform="translate(55.615234 0)"/>
     <use xlink:href="#LiberationSans-Bold-2e" transform="translate(111.230469 0)"/>
     <use xlink:href="#LiberationSans-Bold-34" transform="translate(139.013672 0)"/>
     <use xlink:href="#LiberationSans-Bold-d7" transform="translate(194.628906 0)"/>
    </g>
   </g>
   <g id="text_32">
    <!-- 11.8× -->
    <g style="fill: #262626" transform="translate(598.070264 97.455754) scale(0.1 -0.1)">
     <defs>
      <path id="LiberationSans-Bold-38" d="M 3363 1241 
Q 3363 622 2953 279 
Q 2544 -63 1784 -63 
Q 1031 -63 617 278 
Q 203 619 203 1234 
Q 203 1656 447 1945 
Q 691 2234 1100 2303 
L 1100 2316 
Q 744 2394 525 2669 
Q 306 2944 306 3303 
Q 306 3844 689 4156 
Q 1072 4469 1772 4469 
Q 2488 4469 2870 4164 
Q 3253 3859 3253 3297 
Q 3253 2938 3036 2666 
Q 2819 2394 2453 2322 
L 2453 2309 
Q 2878 2241 3120 1961 
Q 3363 1681 3363 1241 
z
M 2350 3250 
Q 2350 3563 2206 3708 
Q 2063 3853 1772 3853 
Q 1203 3853 1203 3250 
Q 1203 2619 1778 2619 
Q 2066 2619 2208 2766 
Q 2350 2913 2350 3250 
z
M 2453 1313 
Q 2453 2003 1766 2003 
Q 1447 2003 1276 1822 
Q 1106 1641 1106 1300 
Q 1106 913 1275 734 
Q 1444 556 1791 556 
Q 2131 556 2292 734 
Q 2453 913 2453 1313 
z
" transform="scale(0.015625)"/>
     </defs>
     <use xlink:href="#LiberationSans-Bold-31"/>
     <use xlink:href="#LiberationSans-Bold-31" transform="translate(50.115234 0)"/>
     <use xlink:href="#LiberationSans-Bold-2e" transform="translate(105.730469 0)"/>
     <use xlink:href="#LiberationSans-Bold-38" transform="translate(133.513672 0)"/>
     <use xlink:href="#LiberationSans-Bold-d7" transform="translate(189.128906 0)"/>
    </g>
   </g>
   <g id="text_33">
    <!-- 11.2× -->
    <g style="fill: #262626" transform="translate(690.337884 106.792612) scale(0.1 -0.1)">
     <use xlink:href="#LiberationSans-Bold-31"/>
     <use xlink:href="#LiberationSans-Bold-31" transform="translate(50.115234 0)"/>
     <use xlink:href="#LiberationSans-Bold-2e" transform="translate(105.730469 0)"/>
     <use xlink:href="#LiberationSans-Bold-32" transform="translate(133.513672 0)"/>
     <use xlink:href="#LiberationSans-Bold-d7" transform="translate(189.128906 0)"/>
    </g>
   </g>
   <g id="text_34">
    <!-- 10.3× -->
    <g style="fill: #262626" transform="translate(782.330505 124.282781) scale(0.1 -0.1)">
     <defs>
      <path id="LiberationSans-Bold-33" d="M 3328 1222 
Q 3328 603 2922 265 
Q 2516 -72 1766 -72 
Q 1056 -72 637 254 
Q 219 581 147 1197 
L 1041 1275 
Q 1125 641 1763 641 
Q 2078 641 2253 797 
Q 2428 953 2428 1275 
Q 2428 1569 2215 1725 
Q 2003 1881 1584 1881 
L 1278 1881 
L 1278 2591 
L 1566 2591 
Q 1944 2591 2134 2745 
Q 2325 2900 2325 3188 
Q 2325 3459 2173 3614 
Q 2022 3769 1731 3769 
Q 1459 3769 1292 3619 
Q 1125 3469 1100 3194 
L 222 3256 
Q 291 3825 694 4147 
Q 1097 4469 1747 4469 
Q 2438 4469 2827 4158 
Q 3216 3847 3216 3297 
Q 3216 2884 2973 2618 
Q 2731 2353 2275 2266 
L 2275 2253 
Q 2781 2194 3054 1920 
Q 3328 1647 3328 1222 
z
" transform="scale(0.015625)"/>
     </defs>
     <use xlink:href="#LiberationSans-Bold-31"/>
     <use xlink:href="#LiberationSans-Bold-30" transform="translate(55.615234 0)"/>
     <use xlink:href="#LiberationSans-Bold-2e" transform="translate(111.230469 0)"/>
     <use xlink:href="#LiberationSans-Bold-33" transform="translate(139.013672 0)"/>
     <use xlink:href="#LiberationSans-Bold-d7" transform="translate(194.628906 0)"/>
    </g>
   </g>
   <g id="text_35">
    <!-- GPU Acceleration Factor -->
    <g style="fill: #262626" transform="translate(590.55548 15.89625) scale(0.12 -0.12)">
     <defs>
      <path id="LiberationSans-47" d="M 322 2222 
Q 322 3294 897 3881 
Q 1472 4469 2513 4469 
Q 3244 4469 3700 4222 
Q 4156 3975 4403 3431 
L 3834 3263 
Q 3647 3638 3317 3809 
Q 2988 3981 2497 3981 
Q 1734 3981 1331 3520 
Q 928 3059 928 2222 
Q 928 1388 1356 905 
Q 1784 422 2541 422 
Q 2972 422 3345 553 
Q 3719 684 3950 909 
L 3950 1703 
L 2634 1703 
L 2634 2203 
L 4500 2203 
L 4500 684 
Q 4150 328 3642 132 
Q 3134 -63 2541 -63 
Q 1850 -63 1350 212 
Q 850 488 586 1005 
Q 322 1522 322 2222 
z
" transform="scale(0.015625)"/>
     </defs>
     <use xlink:href="#LiberationSans-47"/>
     <use xlink:href="#LiberationSans-50" transform="translate(77.783203 0)"/>
     <use xlink:href="#LiberationSans-55" transform="translate(144.482422 0)"/>
     <use xlink:href="#LiberationSans-20" transform="translate(216.699219 0)"/>
     <use xlink:href="#LiberationSans-41" transform="translate(238.982422 0)"/>
     <use xlink:href="#LiberationSans-63" transform="translate(305.681641 0)"/>
     <use xlink:href="#LiberationSans-63" transform="translate(355.681641 0)"/>
     <use xlink:href="#LiberationSans-65" transform="translate(405.681641 0)"/>
     <use xlink:href="#LiberationSans-6c" transform="translate(461.296875 0)"/>
     <use xlink:href="#LiberationSans-65" transform="translate(483.513672 0)"/>
     <use xlink:href="#LiberationSans-72" transform="translate(539.128906 0)"/>
     <use xlink:href="#LiberationSans-61" transform="translate(572.429688 0)"/>
     <use xlink:href="#LiberationSans-74" transform="translate(628.044922 0)"/>
     <use xlink:href="#LiberationSans-69" transform="translate(655.828125 0)"/>
     <use xlink:href="#LiberationSans-6f" transform="translate(678.044922 0)"/>
     <use xlink:href="#LiberationSans-6e" transform="translate(733.660156 0)"/>
     <use xlink:href="#LiberationSans-20" transform="translate(789.275391 0)"/>
     <use xlink:href="#LiberationSans-46" transform="translate(817.058594 0)"/>
     <use xlink:href="#LiberationSans-61" transform="translate(878.142578 0)"/>
     <use xlink:href="#LiberationSans-63" transform="translate(933.757812 0)"/>
     <use xlink:href="#LiberationSans-74" transform="translate(983.757812 0)"/>
     <use xlink:href="#LiberationSans-6f" transform="translate(1011.541016 0)"/>
     <use xlink:href="#LiberationSans-72" transform="translate(1067.15625 0)"/>
    </g>
   </g>
   <g id="legend_2">
    <g id="line2d_57">
     <path d="M 755.43012 34.643125 
L 765.43012 34.643125 
L 775.43012 34.643125 
" style="fill: none; stroke-dasharray: 5.55,2.4; stroke-dashoffset: 0; stroke: #ff0000; stroke-opacity: 0.7; stroke-width: 1.5"/>
    </g>
    <g id="text_36">
     <!-- 10× baseline -->
     <g style="fill: #262626" transform="translate(783.43012 38.143125) scale(0.1 -0.1)">
      <defs>
       <path id="LiberationSans-d7" d="M 444 1031 
L 1550 2138 
L 450 3238 
L 775 3559 
L 1869 2456 
L 2963 3553 
L 3291 3225 
L 2197 2138 
L 3297 1038 
L 2978 709 
L 1875 1813 
L 763 703 
L 444 1031 
z
" transform="scale(0.015625)"/>
      </defs>
      <use xlink:href="#LiberationSans-31"/>
      <use xlink:href="#LiberationSans-30" transform="translate(55.615234 0)"/>
      <use xlink:href="#LiberationSans-d7" transform="translate(111.230469 0)"/>
      <use xlink:href="#LiberationSans-20" transform="translate(169.628906 0)"/>
      <use xlink:href="#LiberationSans-62" transform="translate(197.412109 0)"/>
      <use xlink:href="#LiberationSans-61" transform="translate(253.027344 0)"/>
      <use xlink:href="#LiberationSans-73" transform="translate(308.642578 0)"/>
      <use xlink:href="#LiberationSans-65" transform="translate(358.642578 0)"/>
      <use xlink:href="#LiberationSans-6c" transform="translate(414.257812 0)"/>
      <use xlink:href="#LiberationSans-69" transform="translate(436.474609 0)"/>
      <use xlink:href="#LiberationSans-6e" transform="translate(458.691406 0)"/>
      <use xlink:href="#LiberationSans-65" transform="translate(514.306641 0)"/>
     </g>
    </g>
   </g>
  </g>
 </g>
 <defs>
  <clipPath id="pbbaa1a2ca7">
   <rect x="39.421875" y="21.89625" width="385.678654" height="297.54"/>
  </clipPath>
  <clipPath id="p25b963fc37">
   <rect x="463.740529" y="21.89625" width="385.678654" height="297.54"/>
  </clipPath>
 </defs>
</svg>
