<?xml version="1.0" encoding="utf-8" standalone="no"?>
<!DOCTYPE svg PUBLIC "-//W3C//DTD SVG 1.1//EN"
  "http://www.w3.org/Graphics/SVG/1.1/DTD/svg11.dtd">
<svg xmlns:xlink="http://www.w3.org/1999/xlink" width="1000.8pt" height="280.8pt" viewBox="0 0 1000.8 280.8" xmlns="http://www.w3.org/2000/svg" version="1.1">
 <metadata>
  <rdf:RDF xmlns:dc="http://purl.org/dc/elements/1.1/" xmlns:cc="http://creativecommons.org/ns#" xmlns:rdf="http://www.w3.org/1999/02/22-rdf-syntax-ns#">
   <cc:Work>
    <dc:type rdf:resource="http://purl.org/dc/dcmitype/StillImage"/>
    <dc:date>2025-11-25T20:42:29.592696</dc:date>
    <dc:format>image/svg+xml</dc:format>
    <dc:creator>
     <cc:Agent>
      <dc:title>Matplotlib v3.10.7, https://matplotlib.org/</dc:title>
     </cc:Agent>
    </dc:creator>
   </cc:Work>
  </rdf:RDF>
 </metadata>
 <defs>
  <style type="text/css">*{stroke-linejoin: round; stroke-linecap: butt}</style>
 </defs>
 <g id="figure_1">
  <g id="patch_1">
   <path d="M 0 280.8 
L 1000.8 280.8 
L 1000.8 0 
L 0 0 
z
" style="fill: #ffffff"/>
  </g>
  <g id="axes_1">
   <g id="text_1">
    <g id="patch_2">
     <path d="M 65.441518 153.446562 
L 89.872768 153.446562 
Q 92.872768 153.446562 92.872768 150.446562 
L 92.872768 130.353437 
Q 92.872768 127.353437 89.872768 127.353437 
L 65.441518 127.353437 
Q 62.441518 127.353437 62.441518 130.353437 
L 62.441518 150.446562 
Q 62.441518 153.446562 65.441518 153.446562 
z
" style="fill: #add8e6; stroke: #000080; stroke-width: 2; stroke-linejoin: miter"/>
    </g>
    <!-- Input -->
    <g style="fill: #262626" transform="translate(65.441518 137.600313) scale(0.1 -0.1)">
     <defs>
      <path id="LiberationSans-Bold-49" d="M 428 0 
L 428 4403 
L 1350 4403 
L 1350 0 
L 428 0 
z
" transform="scale(0.015625)"/>
      <path id="LiberationSans-Bold-6e" d="M 2638 0 
L 2638 1897 
Q 2638 2788 2034 2788 
Q 1716 2788 1520 2514 
Q 1325 2241 1325 1813 
L 1325 0 
L 447 0 
L 447 2625 
Q 447 2897 439 3070 
Q 431 3244 422 3381 
L 1259 3381 
Q 1269 3322 1284 3064 
Q 1300 2806 1300 2709 
L 1313 2709 
Q 1491 3097 1759 3272 
Q 2028 3447 2400 3447 
Q 2938 3447 3225 3115 
Q 3513 2784 3513 2147 
L 3513 0 
L 2638 0 
z
" transform="scale(0.015625)"/>
      <path id="LiberationSans-Bold-70" d="M 3647 1706 
Q 3647 859 3308 398 
Q 2969 -63 2350 -63 
Q 1994 -63 1730 92 
Q 1466 247 1325 538 
L 1306 538 
Q 1325 444 1325 -31 
L 1325 -1328 
L 447 -1328 
L 447 2603 
Q 447 3081 422 3381 
L 1275 3381 
Q 1291 3325 1302 3159 
Q 1313 2994 1313 2831 
L 1325 2831 
Q 1622 3453 2406 3453 
Q 2997 3453 3322 2998 
Q 3647 2544 3647 1706 
z
M 2731 1706 
Q 2731 2844 2034 2844 
Q 1684 2844 1498 2537 
Q 1313 2231 1313 1681 
Q 1313 1134 1498 836 
Q 1684 538 2028 538 
Q 2731 538 2731 1706 
z
" transform="scale(0.015625)"/>
      <path id="LiberationSans-Bold-75" d="M 1275 3381 
L 1275 1484 
Q 1275 594 1875 594 
Q 2194 594 2389 867 
Q 2584 1141 2584 1569 
L 2584 3381 
L 3463 3381 
L 3463 756 
Q 3463 325 3488 0 
L 2650 0 
Q 2613 450 2613 672 
L 2597 672 
Q 2422 288 2151 112 
Q 1881 -63 1509 -63 
Q 972 -63 684 267 
Q 397 597 397 1234 
L 397 3381 
L 1275 3381 
z
" transform="scale(0.015625)"/>
      <path id="LiberationSans-Bold-74" d="M 1313 -56 
Q 925 -56 715 155 
Q 506 366 506 794 
L 506 2788 
L 78 2788 
L 78 3381 
L 550 3381 
L 825 4175 
L 1375 4175 
L 1375 3381 
L 2016 3381 
L 2016 2788 
L 1375 2788 
L 1375 1031 
Q 1375 784 1469 667 
Q 1563 550 1759 550 
Q 1863 550 2053 594 
L 2053 50 
Q 1728 -56 1313 -56 
z
" transform="scale(0.015625)"/>
     </defs>
     <use xlink:href="#LiberationSans-Bold-49"/>
     <use xlink:href="#LiberationSans-Bold-6e" transform="translate(27.783203 0)"/>
     <use xlink:href="#LiberationSans-Bold-70" transform="translate(88.867188 0)"/>
     <use xlink:href="#LiberationSans-Bold-75" transform="translate(149.951172 0)"/>
     <use xlink:href="#LiberationSans-Bold-74" transform="translate(211.035156 0)"/>
    </g>
    <!-- RGB -->
    <g style="fill: #262626" transform="translate(66.546205 148.371563) scale(0.1 -0.1)">
     <defs>
      <path id="LiberationSans-Bold-52" d="M 3453 0 
L 2431 1672 
L 1350 1672 
L 1350 0 
L 428 0 
L 428 4403 
L 2628 4403 
Q 3416 4403 3844 4064 
Q 4272 3725 4272 3091 
Q 4272 2628 4009 2292 
Q 3747 1956 3300 1850 
L 4491 0 
L 3453 0 
z
M 3344 3053 
Q 3344 3688 2531 3688 
L 1350 3688 
L 1350 2388 
L 2556 2388 
Q 2944 2388 3144 2563 
Q 3344 2738 3344 3053 
z
" transform="scale(0.015625)"/>
      <path id="LiberationSans-Bold-47" d="M 2519 659 
Q 2878 659 3215 764 
Q 3553 869 3738 1031 
L 3738 1641 
L 2663 1641 
L 2663 2322 
L 4581 2322 
L 4581 703 
Q 4231 344 3670 140 
Q 3109 -63 2494 -63 
Q 1419 -63 841 532 
Q 263 1128 263 2222 
Q 263 3309 844 3889 
Q 1425 4469 2516 4469 
Q 4066 4469 4488 3322 
L 3638 3066 
Q 3500 3400 3206 3572 
Q 2913 3744 2516 3744 
Q 1866 3744 1528 3350 
Q 1191 2956 1191 2222 
Q 1191 1475 1539 1067 
Q 1888 659 2519 659 
z
" transform="scale(0.015625)"/>
      <path id="LiberationSans-Bold-42" d="M 4331 1256 
Q 4331 656 3881 328 
Q 3431 0 2631 0 
L 428 0 
L 428 4403 
L 2444 4403 
Q 3250 4403 3664 4123 
Q 4078 3844 4078 3297 
Q 4078 2922 3870 2664 
Q 3663 2406 3238 2316 
Q 3772 2253 4051 1979 
Q 4331 1706 4331 1256 
z
M 3150 3172 
Q 3150 3469 2961 3594 
Q 2772 3719 2400 3719 
L 1350 3719 
L 1350 2628 
L 2406 2628 
Q 2797 2628 2973 2764 
Q 3150 2900 3150 3172 
z
M 3406 1328 
Q 3406 1947 2519 1947 
L 1350 1947 
L 1350 684 
L 2553 684 
Q 2997 684 3201 845 
Q 3406 1006 3406 1328 
z
" transform="scale(0.015625)"/>
     </defs>
     <use xlink:href="#LiberationSans-Bold-52"/>
     <use xlink:href="#LiberationSans-Bold-47" transform="translate(72.216797 0)"/>
     <use xlink:href="#LiberationSans-Bold-42" transform="translate(150 0)"/>
    </g>
   </g>
   <g id="text_2">
    <g id="patch_3">
     <path d="M 192.18471 148.060937 
L 244.958147 148.060937 
Q 247.958147 148.060937 247.958147 145.060937 
L 247.958147 135.739062 
Q 247.958147 132.739062 244.958147 132.739062 
L 192.18471 132.739062 
Q 189.18471 132.739062 189.18471 135.739062 
L 189.18471 145.060937 
Q 189.18471 148.060937 192.18471 148.060937 
z
" style="fill: #add8e6; stroke: #000080; stroke-width: 2; stroke-linejoin: miter"/>
    </g>
    <!-- BGR→LAB -->
    <g style="fill: #262626" transform="translate(192.18471 142.985938) scale(0.1 -0.1)">
     <defs>
      <path id="LiberationSans-Bold-2192" d="M 4397 1197 
Q 4219 1406 4025 1813 
L 4250 1813 
Q 4647 1347 5094 1119 
L 5094 1006 
Q 4647 778 4250 313 
L 4025 313 
Q 4219 719 4397 928 
L 1306 928 
L 1306 1197 
L 4397 1197 
z
" transform="scale(0.015625)"/>
      <path id="LiberationSans-Bold-4c" d="M 428 0 
L 428 4403 
L 1350 4403 
L 1350 713 
L 3713 713 
L 3713 0 
L 428 0 
z
" transform="scale(0.015625)"/>
      <path id="LiberationSans-Bold-41" d="M 3541 0 
L 3150 1125 
L 1472 1125 
L 1081 0 
L 159 0 
L 1766 4403 
L 2853 4403 
L 4453 0 
L 3541 0 
z
M 2309 3725 
L 2291 3656 
Q 2259 3544 2215 3400 
Q 2172 3256 1678 1819 
L 2944 1819 
L 2509 3084 
L 2375 3509 
L 2309 3725 
z
" transform="scale(0.015625)"/>
     </defs>
     <use xlink:href="#LiberationSans-Bold-42"/>
     <use xlink:href="#LiberationSans-Bold-47" transform="translate(72.216797 0)"/>
     <use xlink:href="#LiberationSans-Bold-52" transform="translate(150 0)"/>
     <use xlink:href="#LiberationSans-Bold-2192" transform="translate(222.216797 0)"/>
     <use xlink:href="#LiberationSans-Bold-4c" transform="translate(322.216797 0)"/>
     <use xlink:href="#LiberationSans-Bold-41" transform="translate(383.300781 0)"/>
     <use xlink:href="#LiberationSans-Bold-42" transform="translate(455.517578 0)"/>
    </g>
   </g>
   <g id="text_3">
    <g id="patch_4">
     <path d="M 341.143527 153.446562 
L 377.827902 153.446562 
Q 380.827902 153.446562 380.827902 150.446562 
L 380.827902 130.353437 
Q 380.827902 127.353437 377.827902 127.353437 
L 341.143527 127.353437 
Q 338.143527 127.353437 338.143527 130.353437 
L 338.143527 150.446562 
Q 338.143527 153.446562 341.143527 153.446562 
z
" style="fill: #add8e6; stroke: #000080; stroke-width: 2; stroke-linejoin: miter"/>
    </g>
    <!-- Gamma -->
    <g style="fill: #262626" transform="translate(341.143527 137.600313) scale(0.1 -0.1)">
     <defs>
      <path id="LiberationSans-Bold-61" d="M 1228 -63 
Q 738 -63 463 204 
Q 188 472 188 956 
Q 188 1481 530 1756 
Q 872 2031 1522 2038 
L 2250 2050 
L 2250 2222 
Q 2250 2553 2134 2714 
Q 2019 2875 1756 2875 
Q 1513 2875 1398 2764 
Q 1284 2653 1256 2397 
L 341 2441 
Q 425 2934 792 3189 
Q 1159 3444 1794 3444 
Q 2434 3444 2781 3128 
Q 3128 2813 3128 2231 
L 3128 1000 
Q 3128 716 3192 608 
Q 3256 500 3406 500 
Q 3506 500 3600 519 
L 3600 44 
Q 3522 25 3459 9 
Q 3397 -6 3334 -15 
Q 3272 -25 3201 -31 
Q 3131 -38 3038 -38 
Q 2706 -38 2548 125 
Q 2391 288 2359 603 
L 2341 603 
Q 1972 -63 1228 -63 
z
M 2250 1566 
L 1800 1559 
Q 1494 1547 1366 1492 
Q 1238 1438 1170 1325 
Q 1103 1213 1103 1025 
Q 1103 784 1214 667 
Q 1325 550 1509 550 
Q 1716 550 1886 662 
Q 2056 775 2153 973 
Q 2250 1172 2250 1394 
L 2250 1566 
z
" transform="scale(0.015625)"/>
      <path id="LiberationSans-Bold-6d" d="M 2438 0 
L 2438 1897 
Q 2438 2788 1925 2788 
Q 1659 2788 1492 2516 
Q 1325 2244 1325 1813 
L 1325 0 
L 447 0 
L 447 2625 
Q 447 2897 439 3070 
Q 431 3244 422 3381 
L 1259 3381 
Q 1269 3322 1284 3064 
Q 1300 2806 1300 2709 
L 1313 2709 
Q 1475 3097 1717 3272 
Q 1959 3447 2297 3447 
Q 3072 3447 3238 2709 
L 3256 2709 
Q 3428 3103 3668 3275 
Q 3909 3447 4281 3447 
Q 4775 3447 5034 3111 
Q 5294 2775 5294 2147 
L 5294 0 
L 4422 0 
L 4422 1897 
Q 4422 2788 3909 2788 
Q 3653 2788 3489 2539 
Q 3325 2291 3309 1853 
L 3309 0 
L 2438 0 
z
" transform="scale(0.015625)"/>
     </defs>
     <use xlink:href="#LiberationSans-Bold-47"/>
     <use xlink:href="#LiberationSans-Bold-61" transform="translate(77.783203 0)"/>
     <use xlink:href="#LiberationSans-Bold-6d" transform="translate(133.398438 0)"/>
     <use xlink:href="#LiberationSans-Bold-6d" transform="translate(222.314453 0)"/>
     <use xlink:href="#LiberationSans-Bold-61" transform="translate(311.230469 0)"/>
    </g>
    <!-- Decode -->
    <g style="fill: #262626" transform="translate(341.425558 148.371563) scale(0.1 -0.1)">
     <defs>
      <path id="LiberationSans-Bold-44" d="M 4353 2234 
Q 4353 1553 4086 1045 
Q 3819 538 3330 269 
Q 2841 0 2209 0 
L 428 0 
L 428 4403 
L 2022 4403 
Q 3134 4403 3743 3842 
Q 4353 3281 4353 2234 
z
M 3425 2234 
Q 3425 2944 3056 3317 
Q 2688 3691 2003 3691 
L 1350 3691 
L 1350 713 
L 2131 713 
Q 2725 713 3075 1122 
Q 3425 1531 3425 2234 
z
" transform="scale(0.015625)"/>
      <path id="LiberationSans-Bold-65" d="M 1831 -63 
Q 1069 -63 659 389 
Q 250 841 250 1706 
Q 250 2544 665 2994 
Q 1081 3444 1844 3444 
Q 2572 3444 2956 2961 
Q 3341 2478 3341 1547 
L 3341 1522 
L 1172 1522 
Q 1172 1028 1355 776 
Q 1538 525 1875 525 
Q 2341 525 2463 928 
L 3291 856 
Q 2931 -63 1831 -63 
z
M 1831 2891 
Q 1522 2891 1355 2675 
Q 1188 2459 1178 2072 
L 2491 2072 
Q 2466 2481 2294 2686 
Q 2122 2891 1831 2891 
z
" transform="scale(0.015625)"/>
      <path id="LiberationSans-Bold-63" d="M 1856 -63 
Q 1088 -63 669 395 
Q 250 853 250 1672 
Q 250 2509 672 2976 
Q 1094 3444 1869 3444 
Q 2466 3444 2856 3144 
Q 3247 2844 3347 2316 
L 2463 2272 
Q 2425 2531 2275 2686 
Q 2125 2841 1850 2841 
Q 1172 2841 1172 1706 
Q 1172 538 1863 538 
Q 2113 538 2281 695 
Q 2450 853 2491 1166 
L 3372 1125 
Q 3325 778 3123 506 
Q 2922 234 2594 85 
Q 2266 -63 1856 -63 
z
" transform="scale(0.015625)"/>
      <path id="LiberationSans-Bold-6f" d="M 3659 1694 
Q 3659 872 3203 404 
Q 2747 -63 1941 -63 
Q 1150 -63 700 406 
Q 250 875 250 1694 
Q 250 2509 700 2976 
Q 1150 3444 1959 3444 
Q 2788 3444 3223 2992 
Q 3659 2541 3659 1694 
z
M 2741 1694 
Q 2741 2297 2544 2569 
Q 2347 2841 1972 2841 
Q 1172 2841 1172 1694 
Q 1172 1128 1367 833 
Q 1563 538 1931 538 
Q 2741 538 2741 1694 
z
" transform="scale(0.015625)"/>
      <path id="LiberationSans-Bold-64" d="M 2638 0 
Q 2625 47 2608 236 
Q 2591 425 2591 550 
L 2578 550 
Q 2294 -63 1497 -63 
Q 906 -63 584 398 
Q 263 859 263 1688 
Q 263 2528 602 2986 
Q 941 3444 1563 3444 
Q 1922 3444 2183 3294 
Q 2444 3144 2584 2847 
L 2591 2847 
L 2584 3403 
L 2584 4638 
L 3463 4638 
L 3463 738 
Q 3463 425 3488 0 
L 2638 0 
z
M 2597 1709 
Q 2597 2256 2414 2551 
Q 2231 2847 1875 2847 
Q 1522 2847 1350 2561 
Q 1178 2275 1178 1688 
Q 1178 538 1869 538 
Q 2216 538 2406 842 
Q 2597 1147 2597 1709 
z
" transform="scale(0.015625)"/>
     </defs>
     <use xlink:href="#LiberationSans-Bold-44"/>
     <use xlink:href="#LiberationSans-Bold-65" transform="translate(72.216797 0)"/>
     <use xlink:href="#LiberationSans-Bold-63" transform="translate(127.832031 0)"/>
     <use xlink:href="#LiberationSans-Bold-6f" transform="translate(183.447266 0)"/>
     <use xlink:href="#LiberationSans-Bold-64" transform="translate(244.53125 0)"/>
     <use xlink:href="#LiberationSans-Bold-65" transform="translate(305.615234 0)"/>
    </g>
   </g>
   <g id="text_4">
    <g id="patch_5">
     <path d="M 477.892187 153.446562 
L 522.907812 153.446562 
Q 525.907812 153.446562 525.907812 150.446562 
L 525.907812 130.353437 
Q 525.907812 127.353437 522.907812 127.353437 
L 477.892187 127.353437 
Q 474.892187 127.353437 474.892187 130.353437 
L 474.892187 150.446562 
Q 474.892187 153.446562 477.892187 153.446562 
z
" style="fill: #add8e6; stroke: #000080; stroke-width: 2; stroke-linejoin: miter"/>
    </g>
    <!-- Gaussian -->
    <g style="fill: #262626" transform="translate(477.892187 137.600313) scale(0.1 -0.1)">
     <defs>
      <path id="LiberationSans-Bold-73" d="M 3297 988 
Q 3297 497 2895 217 
Q 2494 -63 1784 -63 
Q 1088 -63 717 157 
Q 347 378 225 844 
L 997 959 
Q 1063 719 1223 619 
Q 1384 519 1784 519 
Q 2153 519 2322 612 
Q 2491 706 2491 906 
Q 2491 1069 2355 1164 
Q 2219 1259 1894 1325 
Q 1150 1472 890 1598 
Q 631 1725 495 1926 
Q 359 2128 359 2422 
Q 359 2906 732 3176 
Q 1106 3447 1791 3447 
Q 2394 3447 2761 3212 
Q 3128 2978 3219 2534 
L 2441 2453 
Q 2403 2659 2256 2761 
Q 2109 2863 1791 2863 
Q 1478 2863 1322 2783 
Q 1166 2703 1166 2516 
Q 1166 2369 1286 2283 
Q 1406 2197 1691 2141 
Q 2088 2059 2395 1973 
Q 2703 1888 2889 1769 
Q 3075 1650 3186 1464 
Q 3297 1278 3297 988 
z
" transform="scale(0.015625)"/>
      <path id="LiberationSans-Bold-69" d="M 447 3991 
L 447 4638 
L 1325 4638 
L 1325 3991 
L 447 3991 
z
M 447 0 
L 447 3381 
L 1325 3381 
L 1325 0 
L 447 0 
z
" transform="scale(0.015625)"/>
     </defs>
     <use xlink:href="#LiberationSans-Bold-47"/>
     <use xlink:href="#LiberationSans-Bold-61" transform="translate(77.783203 0)"/>
     <use xlink:href="#LiberationSans-Bold-75" transform="translate(133.398438 0)"/>
     <use xlink:href="#LiberationSans-Bold-73" transform="translate(194.482422 0)"/>
     <use xlink:href="#LiberationSans-Bold-73" transform="translate(250.097656 0)"/>
     <use xlink:href="#LiberationSans-Bold-69" transform="translate(305.712891 0)"/>
     <use xlink:href="#LiberationSans-Bold-61" transform="translate(333.496094 0)"/>
     <use xlink:href="#LiberationSans-Bold-6e" transform="translate(389.111328 0)"/>
    </g>
    <!-- Blur -->
    <g style="fill: #262626" transform="translate(490.4 148.371563) scale(0.1 -0.1)">
     <defs>
      <path id="LiberationSans-Bold-6c" d="M 447 0 
L 447 4638 
L 1325 4638 
L 1325 0 
L 447 0 
z
" transform="scale(0.015625)"/>
      <path id="LiberationSans-Bold-72" d="M 447 0 
L 447 2588 
Q 447 2866 439 3052 
Q 431 3238 422 3381 
L 1259 3381 
Q 1269 3325 1284 3039 
Q 1300 2753 1300 2659 
L 1313 2659 
Q 1441 3016 1541 3161 
Q 1641 3306 1778 3376 
Q 1916 3447 2122 3447 
Q 2291 3447 2394 3400 
L 2394 2666 
Q 2181 2713 2019 2713 
Q 1691 2713 1508 2447 
Q 1325 2181 1325 1659 
L 1325 0 
L 447 0 
z
" transform="scale(0.015625)"/>
     </defs>
     <use xlink:href="#LiberationSans-Bold-42"/>
     <use xlink:href="#LiberationSans-Bold-6c" transform="translate(72.216797 0)"/>
     <use xlink:href="#LiberationSans-Bold-75" transform="translate(100 0)"/>
     <use xlink:href="#LiberationSans-Bold-72" transform="translate(161.083984 0)"/>
    </g>
   </g>
   <g id="text_5">
    <g id="patch_6">
     <path d="M 620.476004 153.446562 
L 662.152567 153.446562 
Q 665.152567 153.446562 665.152567 150.446562 
L 665.152567 130.353437 
Q 665.152567 127.353437 662.152567 127.353437 
L 620.476004 127.353437 
Q 617.476004 127.353437 617.476004 130.353437 
L 617.476004 150.446562 
Q 617.476004 153.446562 620.476004 153.446562 
z
" style="fill: #add8e6; stroke: #000080; stroke-width: 2; stroke-linejoin: miter"/>
    </g>
    <!-- Ratio -->
    <g style="fill: #262626" transform="translate(628.815067 137.600313) scale(0.1 -0.1)">
     <use xlink:href="#LiberationSans-Bold-52"/>
     <use xlink:href="#LiberationSans-Bold-61" transform="translate(72.216797 0)"/>
     <use xlink:href="#LiberationSans-Bold-74" transform="translate(127.832031 0)"/>
     <use xlink:href="#LiberationSans-Bold-69" transform="translate(161.132812 0)"/>
     <use xlink:href="#LiberationSans-Bold-6f" transform="translate(188.916016 0)"/>
    </g>
    <!-- Enhance -->
    <g style="fill: #262626" transform="translate(620.476004 148.371563) scale(0.1 -0.1)">
     <defs>
      <path id="LiberationSans-Bold-45" d="M 428 0 
L 428 4403 
L 3891 4403 
L 3891 3691 
L 1350 3691 
L 1350 2584 
L 3700 2584 
L 3700 1872 
L 1350 1872 
L 1350 713 
L 4019 713 
L 4019 0 
L 428 0 
z
" transform="scale(0.015625)"/>
      <path id="LiberationSans-Bold-68" d="M 1313 2706 
Q 1491 3094 1759 3269 
Q 2028 3444 2400 3444 
Q 2938 3444 3225 3112 
Q 3513 2781 3513 2144 
L 3513 0 
L 2638 0 
L 2638 1894 
Q 2638 2784 2034 2784 
Q 1716 2784 1520 2511 
Q 1325 2238 1325 1809 
L 1325 0 
L 447 0 
L 447 4638 
L 1325 4638 
L 1325 3372 
Q 1325 3031 1300 2706 
L 1313 2706 
z
" transform="scale(0.015625)"/>
     </defs>
     <use xlink:href="#LiberationSans-Bold-45"/>
     <use xlink:href="#LiberationSans-Bold-6e" transform="translate(66.699219 0)"/>
     <use xlink:href="#LiberationSans-Bold-68" transform="translate(127.783203 0)"/>
     <use xlink:href="#LiberationSans-Bold-61" transform="translate(188.867188 0)"/>
     <use xlink:href="#LiberationSans-Bold-6e" transform="translate(244.482422 0)"/>
     <use xlink:href="#LiberationSans-Bold-63" transform="translate(305.566406 0)"/>
     <use xlink:href="#LiberationSans-Bold-65" transform="translate(361.181641 0)"/>
    </g>
   </g>
   <g id="text_6">
    <g id="patch_7">
     <path d="M 763.886384 153.446562 
L 800.570759 153.446562 
Q 803.570759 153.446562 803.570759 150.446562 
L 803.570759 130.353437 
Q 803.570759 127.353437 800.570759 127.353437 
L 763.886384 127.353437 
Q 760.886384 127.353437 760.886384 130.353437 
L 760.886384 150.446562 
Q 760.886384 153.446562 763.886384 153.446562 
z
" style="fill: #add8e6; stroke: #000080; stroke-width: 2; stroke-linejoin: miter"/>
    </g>
    <!-- Gamma -->
    <g style="fill: #262626" transform="translate(763.886384 137.600313) scale(0.1 -0.1)">
     <use xlink:href="#LiberationSans-Bold-47"/>
     <use xlink:href="#LiberationSans-Bold-61" transform="translate(77.783203 0)"/>
     <use xlink:href="#LiberationSans-Bold-6d" transform="translate(133.398438 0)"/>
     <use xlink:href="#LiberationSans-Bold-6d" transform="translate(222.314453 0)"/>
     <use xlink:href="#LiberationSans-Bold-61" transform="translate(311.230469 0)"/>
    </g>
    <!-- Encode -->
    <g style="fill: #262626" transform="translate(764.170759 148.371563) scale(0.1 -0.1)">
     <use xlink:href="#LiberationSans-Bold-45"/>
     <use xlink:href="#LiberationSans-Bold-6e" transform="translate(66.699219 0)"/>
     <use xlink:href="#LiberationSans-Bold-63" transform="translate(127.783203 0)"/>
     <use xlink:href="#LiberationSans-Bold-6f" transform="translate(183.398438 0)"/>
     <use xlink:href="#LiberationSans-Bold-64" transform="translate(244.482422 0)"/>
     <use xlink:href="#LiberationSans-Bold-65" transform="translate(305.566406 0)"/>
    </g>
   </g>
   <g id="text_7">
    <g id="patch_8">
     <path d="M 906.762388 153.446562 
L 939.523326 153.446562 
Q 942.523326 153.446562 942.523326 150.446562 
L 942.523326 130.353437 
Q 942.523326 127.353437 939.523326 127.353437 
L 906.762388 127.353437 
Q 903.762388 127.353437 903.762388 130.353437 
L 903.762388 150.446562 
Q 903.762388 153.446562 906.762388 153.446562 
z
" style="fill: #add8e6; stroke: #000080; stroke-width: 2; stroke-linejoin: miter"/>
    </g>
    <!-- Output -->
    <g style="fill: #262626" transform="translate(906.762388 137.600313) scale(0.1 -0.1)">
     <defs>
      <path id="LiberationSans-Bold-4f" d="M 4709 2222 
Q 4709 1534 4437 1012 
Q 4166 491 3659 214 
Q 3153 -63 2478 -63 
Q 1441 -63 852 548 
Q 263 1159 263 2222 
Q 263 3281 850 3875 
Q 1438 4469 2484 4469 
Q 3531 4469 4120 3869 
Q 4709 3269 4709 2222 
z
M 3769 2222 
Q 3769 2934 3431 3339 
Q 3094 3744 2484 3744 
Q 1866 3744 1528 3342 
Q 1191 2941 1191 2222 
Q 1191 1497 1536 1080 
Q 1881 663 2478 663 
Q 3097 663 3433 1069 
Q 3769 1475 3769 2222 
z
" transform="scale(0.015625)"/>
     </defs>
     <use xlink:href="#LiberationSans-Bold-4f"/>
     <use xlink:href="#LiberationSans-Bold-75" transform="translate(77.783203 0)"/>
     <use xlink:href="#LiberationSans-Bold-74" transform="translate(138.867188 0)"/>
     <use xlink:href="#LiberationSans-Bold-70" transform="translate(172.167969 0)"/>
     <use xlink:href="#LiberationSans-Bold-75" transform="translate(233.251953 0)"/>
     <use xlink:href="#LiberationSans-Bold-74" transform="translate(294.335938 0)"/>
    </g>
    <!-- RGB -->
    <g style="fill: #262626" transform="translate(912.03192 148.371563) scale(0.1 -0.1)">
     <use xlink:href="#LiberationSans-Bold-52"/>
     <use xlink:href="#LiberationSans-Bold-47" transform="translate(72.216797 0)"/>
     <use xlink:href="#LiberationSans-Bold-42" transform="translate(150 0)"/>
    </g>
   </g>
   <g id="patch_9">
    <path d="M 128.976812 140.4 
Q 148.113646 140.4 165.014412 140.4 
" style="fill: none; stroke: #000080; stroke-width: 2; stroke-linecap: round"/>
    <path d="M 161.014412 138.4 
L 165.014412 140.4 
L 161.014412 142.4 
" style="fill: none; stroke: #000080; stroke-width: 2; stroke-linecap: round"/>
   </g>
   <g id="patch_10">
    <path d="M 269.891097 140.4 
Q 289.027932 140.4 305.928698 140.4 
" style="fill: none; stroke: #000080; stroke-width: 2; stroke-linecap: round"/>
    <path d="M 301.928698 138.4 
L 305.928698 140.4 
L 301.928698 142.4 
" style="fill: none; stroke: #000080; stroke-width: 2; stroke-linecap: round"/>
   </g>
   <g id="patch_11">
    <path d="M 410.805383 140.4 
Q 429.942217 140.4 446.842984 140.4 
" style="fill: none; stroke: #000080; stroke-width: 2; stroke-linecap: round"/>
    <path d="M 442.842984 138.4 
L 446.842984 140.4 
L 442.842984 142.4 
" style="fill: none; stroke: #000080; stroke-width: 2; stroke-linecap: round"/>
   </g>
   <g id="patch_12">
    <path d="M 551.719669 140.4 
Q 570.856503 140.4 587.757269 140.4 
" style="fill: none; stroke: #000080; stroke-width: 2; stroke-linecap: round"/>
    <path d="M 583.757269 138.4 
L 587.757269 140.4 
L 583.757269 142.4 
" style="fill: none; stroke: #000080; stroke-width: 2; stroke-linecap: round"/>
   </g>
   <g id="patch_13">
    <path d="M 692.633954 140.4 
Q 711.770789 140.4 728.671555 140.4 
" style="fill: none; stroke: #000080; stroke-width: 2; stroke-linecap: round"/>
    <path d="M 724.671555 138.4 
L 728.671555 140.4 
L 724.671555 142.4 
" style="fill: none; stroke: #000080; stroke-width: 2; stroke-linecap: round"/>
   </g>
   <g id="patch_14">
    <path d="M 833.54824 140.4 
Q 852.685074 140.4 869.585841 140.4 
" style="fill: none; stroke: #000080; stroke-width: 2; stroke-linecap: round"/>
    <path d="M 865.585841 138.4 
L 869.585841 140.4 
L 865.585841 142.4 
" style="fill: none; stroke: #000080; stroke-width: 2; stroke-linecap: round"/>
   </g>
   <g id="patch_15">
    <path d="M 500.4 175.704016 
Q 500.4 190.352997 500.4 203.324927 
" style="fill: none; stroke: #008000; stroke-width: 1.5; stroke-linecap: round"/>
    <path d="M 502.4 199.324927 
L 500.4 203.324927 
L 498.4 199.324927 
" style="fill: none; stroke: #008000; stroke-width: 1.5; stroke-linecap: round"/>
   </g>
   <g id="text_8">
    <g id="patch_16">
     <path d="M 480.392578 244.481906 
L 520.407422 244.481906 
Q 522.207422 244.481906 522.207422 242.681906 
L 522.207422 224.598094 
Q 522.207422 222.798094 520.407422 222.798094 
L 480.392578 222.798094 
Q 478.592578 222.798094 478.592578 224.598094 
L 478.592578 242.681906 
Q 478.592578 244.481906 480.392578 244.481906 
z
" style="fill: #90ee90; stroke: #006400; stroke-width: 1.5; stroke-linejoin: miter"/>
    </g>
    <!-- Structure -->
    <g style="fill: #262626" transform="translate(482.144062 231.120281) scale(0.09 -0.09)">
     <defs>
      <path id="LiberationSans-53" d="M 3975 1216 
Q 3975 606 3498 271 
Q 3022 -63 2156 -63 
Q 547 -63 291 1056 
L 869 1172 
Q 969 775 1294 589 
Q 1619 403 2178 403 
Q 2756 403 3070 601 
Q 3384 800 3384 1184 
Q 3384 1400 3286 1534 
Q 3188 1669 3009 1756 
Q 2831 1844 2584 1903 
Q 2338 1963 2038 2031 
Q 1516 2147 1245 2262 
Q 975 2378 819 2520 
Q 663 2663 580 2853 
Q 497 3044 497 3291 
Q 497 3856 930 4162 
Q 1363 4469 2169 4469 
Q 2919 4469 3316 4239 
Q 3713 4009 3872 3456 
L 3284 3353 
Q 3188 3703 2916 3861 
Q 2644 4019 2163 4019 
Q 1634 4019 1356 3844 
Q 1078 3669 1078 3322 
Q 1078 3119 1186 2986 
Q 1294 2853 1497 2761 
Q 1700 2669 2306 2534 
Q 2509 2488 2711 2439 
Q 2913 2391 3097 2323 
Q 3281 2256 3442 2165 
Q 3603 2075 3722 1944 
Q 3841 1813 3908 1634 
Q 3975 1456 3975 1216 
z
" transform="scale(0.015625)"/>
      <path id="LiberationSans-74" d="M 1731 25 
Q 1453 -50 1163 -50 
Q 488 -50 488 716 
L 488 2972 
L 97 2972 
L 97 3381 
L 509 3381 
L 675 4138 
L 1050 4138 
L 1050 3381 
L 1675 3381 
L 1675 2972 
L 1050 2972 
L 1050 838 
Q 1050 594 1129 495 
Q 1209 397 1406 397 
Q 1519 397 1731 441 
L 1731 25 
z
" transform="scale(0.015625)"/>
      <path id="LiberationSans-72" d="M 444 0 
L 444 2594 
Q 444 2950 425 3381 
L 956 3381 
Q 981 2806 981 2691 
L 994 2691 
Q 1128 3125 1303 3284 
Q 1478 3444 1797 3444 
Q 1909 3444 2025 3413 
L 2025 2897 
Q 1913 2928 1725 2928 
Q 1375 2928 1190 2626 
Q 1006 2325 1006 1763 
L 1006 0 
L 444 0 
z
" transform="scale(0.015625)"/>
      <path id="LiberationSans-75" d="M 981 3381 
L 981 1238 
Q 981 903 1047 718 
Q 1113 534 1256 453 
Q 1400 372 1678 372 
Q 2084 372 2318 650 
Q 2553 928 2553 1422 
L 2553 3381 
L 3116 3381 
L 3116 722 
Q 3116 131 3134 0 
L 2603 0 
Q 2600 16 2597 84 
Q 2594 153 2589 242 
Q 2584 331 2578 578 
L 2569 578 
Q 2375 228 2120 82 
Q 1866 -63 1488 -63 
Q 931 -63 673 214 
Q 416 491 416 1128 
L 416 3381 
L 981 3381 
z
" transform="scale(0.015625)"/>
      <path id="LiberationSans-63" d="M 859 1706 
Q 859 1031 1071 706 
Q 1284 381 1713 381 
Q 2013 381 2214 543 
Q 2416 706 2463 1044 
L 3031 1006 
Q 2966 519 2616 228 
Q 2266 -63 1728 -63 
Q 1019 -63 645 385 
Q 272 834 272 1694 
Q 272 2547 647 2995 
Q 1022 3444 1722 3444 
Q 2241 3444 2583 3175 
Q 2925 2906 3013 2434 
L 2434 2391 
Q 2391 2672 2212 2837 
Q 2034 3003 1706 3003 
Q 1259 3003 1059 2706 
Q 859 2409 859 1706 
z
" transform="scale(0.015625)"/>
      <path id="LiberationSans-65" d="M 863 1572 
Q 863 991 1103 675 
Q 1344 359 1806 359 
Q 2172 359 2392 506 
Q 2613 653 2691 878 
L 3184 738 
Q 2881 -63 1806 -63 
Q 1056 -63 664 384 
Q 272 831 272 1713 
Q 272 2550 664 2997 
Q 1056 3444 1784 3444 
Q 3275 3444 3275 1647 
L 3275 1572 
L 863 1572 
z
M 2694 2003 
Q 2647 2538 2422 2783 
Q 2197 3028 1775 3028 
Q 1366 3028 1127 2754 
Q 888 2481 869 2003 
L 2694 2003 
z
" transform="scale(0.015625)"/>
     </defs>
     <use xlink:href="#LiberationSans-53"/>
     <use xlink:href="#LiberationSans-74" transform="translate(66.699219 0)"/>
     <use xlink:href="#LiberationSans-72" transform="translate(94.482422 0)"/>
     <use xlink:href="#LiberationSans-75" transform="translate(127.783203 0)"/>
     <use xlink:href="#LiberationSans-63" transform="translate(183.398438 0)"/>
     <use xlink:href="#LiberationSans-74" transform="translate(233.398438 0)"/>
     <use xlink:href="#LiberationSans-75" transform="translate(261.181641 0)"/>
     <use xlink:href="#LiberationSans-72" transform="translate(316.796875 0)"/>
     <use xlink:href="#LiberationSans-65" transform="translate(350.097656 0)"/>
    </g>
    <!-- Extraction -->
    <g style="fill: #262626" transform="translate(480.392578 240.814406) scale(0.09 -0.09)">
     <defs>
      <path id="LiberationSans-45" d="M 525 0 
L 525 4403 
L 3866 4403 
L 3866 3916 
L 1122 3916 
L 1122 2503 
L 3678 2503 
L 3678 2022 
L 1122 2022 
L 1122 488 
L 3994 488 
L 3994 0 
L 525 0 
z
" transform="scale(0.015625)"/>
      <path id="LiberationSans-78" d="M 2503 0 
L 1594 1388 
L 678 0 
L 72 0 
L 1275 1738 
L 128 3381 
L 750 3381 
L 1594 2066 
L 2431 3381 
L 3059 3381 
L 1913 1744 
L 3131 0 
L 2503 0 
z
" transform="scale(0.015625)"/>
      <path id="LiberationSans-61" d="M 1294 -63 
Q 784 -63 528 206 
Q 272 475 272 944 
Q 272 1469 617 1750 
Q 963 2031 1731 2050 
L 2491 2063 
L 2491 2247 
Q 2491 2659 2316 2837 
Q 2141 3016 1766 3016 
Q 1388 3016 1216 2887 
Q 1044 2759 1009 2478 
L 422 2531 
Q 566 3444 1778 3444 
Q 2416 3444 2737 3151 
Q 3059 2859 3059 2306 
L 3059 850 
Q 3059 600 3125 473 
Q 3191 347 3375 347 
Q 3456 347 3559 369 
L 3559 19 
Q 3347 -31 3125 -31 
Q 2813 -31 2670 133 
Q 2528 297 2509 647 
L 2491 647 
Q 2275 259 1989 98 
Q 1703 -63 1294 -63 
z
M 1422 359 
Q 1731 359 1972 500 
Q 2213 641 2352 886 
Q 2491 1131 2491 1391 
L 2491 1669 
L 1875 1656 
Q 1478 1650 1273 1575 
Q 1069 1500 959 1344 
Q 850 1188 850 934 
Q 850 659 998 509 
Q 1147 359 1422 359 
z
" transform="scale(0.015625)"/>
      <path id="LiberationSans-69" d="M 428 4100 
L 428 4638 
L 991 4638 
L 991 4100 
L 428 4100 
z
M 428 0 
L 428 3381 
L 991 3381 
L 991 0 
L 428 0 
z
" transform="scale(0.015625)"/>
      <path id="LiberationSans-6f" d="M 3291 1694 
Q 3291 806 2900 371 
Q 2509 -63 1766 -63 
Q 1025 -63 647 389 
Q 269 841 269 1694 
Q 269 3444 1784 3444 
Q 2559 3444 2925 3017 
Q 3291 2591 3291 1694 
z
M 2700 1694 
Q 2700 2394 2492 2711 
Q 2284 3028 1794 3028 
Q 1300 3028 1079 2704 
Q 859 2381 859 1694 
Q 859 1025 1076 689 
Q 1294 353 1759 353 
Q 2266 353 2483 678 
Q 2700 1003 2700 1694 
z
" transform="scale(0.015625)"/>
      <path id="LiberationSans-6e" d="M 2578 0 
L 2578 2144 
Q 2578 2478 2512 2662 
Q 2447 2847 2303 2928 
Q 2159 3009 1881 3009 
Q 1475 3009 1240 2731 
Q 1006 2453 1006 1959 
L 1006 0 
L 444 0 
L 444 2659 
Q 444 3250 425 3381 
L 956 3381 
Q 959 3366 962 3297 
Q 966 3228 970 3139 
Q 975 3050 981 2803 
L 991 2803 
Q 1184 3153 1439 3298 
Q 1694 3444 2072 3444 
Q 2628 3444 2886 3167 
Q 3144 2891 3144 2253 
L 3144 0 
L 2578 0 
z
" transform="scale(0.015625)"/>
     </defs>
     <use xlink:href="#LiberationSans-45"/>
     <use xlink:href="#LiberationSans-78" transform="translate(66.699219 0)"/>
     <use xlink:href="#LiberationSans-74" transform="translate(116.699219 0)"/>
     <use xlink:href="#LiberationSans-72" transform="translate(144.482422 0)"/>
     <use xlink:href="#LiberationSans-61" transform="translate(177.783203 0)"/>
     <use xlink:href="#LiberationSans-63" transform="translate(233.398438 0)"/>
     <use xlink:href="#LiberationSans-74" transform="translate(283.398438 0)"/>
     <use xlink:href="#LiberationSans-69" transform="translate(311.181641 0)"/>
     <use xlink:href="#LiberationSans-6f" transform="translate(333.398438 0)"/>
     <use xlink:href="#LiberationSans-6e" transform="translate(389.013672 0)"/>
    </g>
   </g>
   <g id="text_9">
    <g id="patch_17">
     <path d="M 620.456786 244.481906 
L 662.171786 244.481906 
Q 663.971786 244.481906 663.971786 242.681906 
L 663.971786 224.598094 
Q 663.971786 222.798094 662.171786 222.798094 
L 620.456786 222.798094 
Q 618.656786 222.798094 618.656786 224.598094 
L 618.656786 242.681906 
Q 618.656786 244.481906 620.456786 244.481906 
z
" style="fill: #ffffe0; stroke: #ffa500; stroke-width: 1.5; stroke-linejoin: miter"/>
    </g>
    <!-- Adaptive -->
    <g style="fill: #262626" transform="translate(623.802958 231.120281) scale(0.09 -0.09)">
     <defs>
      <path id="LiberationSans-41" d="M 3647 0 
L 3144 1288 
L 1138 1288 
L 631 0 
L 13 0 
L 1809 4403 
L 2488 4403 
L 4256 0 
L 3647 0 
z
M 2141 3953 
L 2113 3866 
Q 2034 3606 1881 3200 
L 1319 1753 
L 2966 1753 
L 2400 3206 
Q 2313 3422 2225 3694 
L 2141 3953 
z
" transform="scale(0.015625)"/>
      <path id="LiberationSans-64" d="M 2566 544 
Q 2409 219 2151 78 
Q 1894 -63 1513 -63 
Q 872 -63 570 368 
Q 269 800 269 1675 
Q 269 3444 1513 3444 
Q 1897 3444 2153 3303 
Q 2409 3163 2566 2856 
L 2572 2856 
L 2566 3234 
L 2566 4638 
L 3128 4638 
L 3128 697 
Q 3128 169 3147 0 
L 2609 0 
Q 2600 50 2589 231 
Q 2578 413 2578 544 
L 2566 544 
z
M 859 1694 
Q 859 984 1046 678 
Q 1234 372 1656 372 
Q 2134 372 2350 703 
Q 2566 1034 2566 1731 
Q 2566 2403 2350 2715 
Q 2134 3028 1663 3028 
Q 1238 3028 1048 2714 
Q 859 2400 859 1694 
z
" transform="scale(0.015625)"/>
      <path id="LiberationSans-70" d="M 3291 1706 
Q 3291 -63 2047 -63 
Q 1266 -63 997 525 
L 981 525 
Q 994 500 994 -6 
L 994 -1328 
L 431 -1328 
L 431 2691 
Q 431 3213 413 3381 
L 956 3381 
Q 959 3369 965 3292 
Q 972 3216 980 3056 
Q 988 2897 988 2838 
L 1000 2838 
Q 1150 3150 1397 3295 
Q 1644 3441 2047 3441 
Q 2672 3441 2981 3022 
Q 3291 2603 3291 1706 
z
M 2700 1694 
Q 2700 2400 2509 2703 
Q 2319 3006 1903 3006 
Q 1569 3006 1380 2865 
Q 1191 2725 1092 2426 
Q 994 2128 994 1650 
Q 994 984 1206 668 
Q 1419 353 1897 353 
Q 2316 353 2508 661 
Q 2700 969 2700 1694 
z
" transform="scale(0.015625)"/>
      <path id="LiberationSans-76" d="M 1916 0 
L 1250 0 
L 22 3381 
L 622 3381 
L 1366 1181 
Q 1406 1056 1581 441 
L 1691 806 
L 1813 1175 
L 2581 3381 
L 3178 3381 
L 1916 0 
z
" transform="scale(0.015625)"/>
     </defs>
     <use xlink:href="#LiberationSans-41"/>
     <use xlink:href="#LiberationSans-64" transform="translate(66.699219 0)"/>
     <use xlink:href="#LiberationSans-61" transform="translate(122.314453 0)"/>
     <use xlink:href="#LiberationSans-70" transform="translate(177.929688 0)"/>
     <use xlink:href="#LiberationSans-74" transform="translate(233.544922 0)"/>
     <use xlink:href="#LiberationSans-69" transform="translate(261.328125 0)"/>
     <use xlink:href="#LiberationSans-76" transform="translate(283.544922 0)"/>
     <use xlink:href="#LiberationSans-65" transform="translate(333.544922 0)"/>
    </g>
    <!-- Boost α(L) -->
    <g style="fill: #262626" transform="translate(620.456786 240.814406) scale(0.09 -0.09)">
     <defs>
      <path id="LiberationSans-42" d="M 3931 1241 
Q 3931 653 3503 326 
Q 3075 0 2313 0 
L 525 0 
L 525 4403 
L 2125 4403 
Q 3675 4403 3675 3334 
Q 3675 2944 3456 2678 
Q 3238 2413 2838 2322 
Q 3363 2259 3647 1970 
Q 3931 1681 3931 1241 
z
M 3075 3263 
Q 3075 3619 2831 3772 
Q 2588 3925 2125 3925 
L 1122 3925 
L 1122 2531 
L 2125 2531 
Q 2603 2531 2839 2711 
Q 3075 2891 3075 3263 
z
M 3328 1288 
Q 3328 2066 2234 2066 
L 1122 2066 
L 1122 478 
L 2281 478 
Q 2828 478 3078 681 
Q 3328 884 3328 1288 
z
" transform="scale(0.015625)"/>
      <path id="LiberationSans-73" d="M 2969 934 
Q 2969 456 2608 196 
Q 2247 -63 1597 -63 
Q 966 -63 623 145 
Q 281 353 178 794 
L 675 891 
Q 747 619 972 492 
Q 1197 366 1597 366 
Q 2025 366 2223 497 
Q 2422 628 2422 891 
Q 2422 1091 2284 1216 
Q 2147 1341 1841 1422 
L 1438 1528 
Q 953 1653 748 1773 
Q 544 1894 428 2066 
Q 313 2238 313 2488 
Q 313 2950 642 3192 
Q 972 3434 1603 3434 
Q 2163 3434 2492 3237 
Q 2822 3041 2909 2606 
L 2403 2544 
Q 2356 2769 2151 2889 
Q 1947 3009 1603 3009 
Q 1222 3009 1040 2893 
Q 859 2778 859 2544 
Q 859 2400 934 2306 
Q 1009 2213 1156 2147 
Q 1303 2081 1775 1966 
Q 2222 1853 2419 1758 
Q 2616 1663 2730 1547 
Q 2844 1431 2906 1279 
Q 2969 1128 2969 934 
z
" transform="scale(0.015625)"/>
      <path id="LiberationSans-20" transform="scale(0.015625)"/>
      <path id="LiberationSans-3b1" d="M 2634 741 
Q 2438 316 2164 126 
Q 1891 -63 1513 -63 
Q 872 -63 570 368 
Q 269 800 269 1675 
Q 269 2563 608 3003 
Q 947 3444 1600 3444 
Q 1994 3444 2273 3234 
Q 2553 3025 2694 2647 
L 2700 2647 
Q 2772 3019 2928 3381 
L 3516 3381 
Q 3359 3050 3228 2570 
Q 3097 2091 3072 1784 
Q 3088 1284 3180 803 
Q 3272 322 3419 0 
L 2847 0 
Q 2772 191 2717 414 
Q 2663 638 2647 741 
L 2634 741 
z
M 859 1694 
Q 859 1000 1037 686 
Q 1216 372 1628 372 
Q 2003 372 2261 733 
Q 2519 1094 2600 1706 
Q 2509 2366 2271 2697 
Q 2034 3028 1663 3028 
Q 1238 3028 1048 2714 
Q 859 2400 859 1694 
z
" transform="scale(0.015625)"/>
      <path id="LiberationSans-28" d="M 397 1663 
Q 397 2566 680 3284 
Q 963 4003 1550 4638 
L 2094 4638 
Q 1509 3988 1236 3256 
Q 963 2525 963 1656 
Q 963 791 1233 62 
Q 1503 -666 2094 -1325 
L 1550 -1325 
Q 959 -688 678 32 
Q 397 753 397 1650 
L 397 1663 
z
" transform="scale(0.015625)"/>
      <path id="LiberationSans-4c" d="M 525 0 
L 525 4403 
L 1122 4403 
L 1122 488 
L 3347 488 
L 3347 0 
L 525 0 
z
" transform="scale(0.015625)"/>
      <path id="LiberationSans-29" d="M 1734 1650 
Q 1734 747 1451 28 
Q 1169 -691 581 -1325 
L 38 -1325 
Q 625 -669 897 57 
Q 1169 784 1169 1656 
Q 1169 2528 895 3256 
Q 622 3984 38 4638 
L 581 4638 
Q 1172 4000 1453 3279 
Q 1734 2559 1734 1663 
L 1734 1650 
z
" transform="scale(0.015625)"/>
     </defs>
     <use xlink:href="#LiberationSans-42"/>
     <use xlink:href="#LiberationSans-6f" transform="translate(66.699219 0)"/>
     <use xlink:href="#LiberationSans-6f" transform="translate(122.314453 0)"/>
     <use xlink:href="#LiberationSans-73" transform="translate(177.929688 0)"/>
     <use xlink:href="#LiberationSans-74" transform="translate(227.929688 0)"/>
     <use xlink:href="#LiberationSans-20" transform="translate(255.712891 0)"/>
     <use xlink:href="#LiberationSans-3b1" transform="translate(283.496094 0)"/>
     <use xlink:href="#LiberationSans-28" transform="translate(341.308594 0)"/>
     <use xlink:href="#LiberationSans-4c" transform="translate(374.609375 0)"/>
     <use xlink:href="#LiberationSans-29" transform="translate(430.224609 0)"/>
    </g>
   </g>
   <g id="patch_18">
    <path d="M 641.314286 204.995984 
Q 641.314286 190.347003 641.314286 177.375073 
" style="fill: none; stroke: #ffa500; stroke-width: 1.5; stroke-linecap: round"/>
    <path d="M 639.314286 181.375073 
L 641.314286 177.375073 
L 643.314286 181.375073 
" style="fill: none; stroke: #ffa500; stroke-width: 1.5; stroke-linecap: round"/>
   </g>
   <g id="text_10">
    <!-- Holographic Enhancement Pipeline -->
    <g style="fill: #262626" transform="translate(382.942187 44.089687) scale(0.14 -0.14)">
     <defs>
      <path id="LiberationSans-Bold-48" d="M 3269 0 
L 3269 1888 
L 1350 1888 
L 1350 0 
L 428 0 
L 428 4403 
L 1350 4403 
L 1350 2650 
L 3269 2650 
L 3269 4403 
L 4191 4403 
L 4191 0 
L 3269 0 
z
" transform="scale(0.015625)"/>
      <path id="LiberationSans-Bold-67" d="M 1863 -1356 
Q 1244 -1356 867 -1120 
Q 491 -884 403 -447 
L 1281 -344 
Q 1328 -547 1483 -662 
Q 1638 -778 1888 -778 
Q 2253 -778 2422 -553 
Q 2591 -328 2591 116 
L 2591 294 
L 2597 628 
L 2591 628 
Q 2300 6 1503 6 
Q 913 6 588 450 
Q 263 894 263 1719 
Q 263 2547 597 2997 
Q 931 3447 1569 3447 
Q 2306 3447 2591 2838 
L 2606 2838 
Q 2606 2947 2620 3134 
Q 2634 3322 2650 3381 
L 3481 3381 
Q 3463 3044 3463 2600 
L 3463 103 
Q 3463 -619 3053 -987 
Q 2644 -1356 1863 -1356 
z
M 2597 1738 
Q 2597 2259 2411 2551 
Q 2225 2844 1881 2844 
Q 1178 2844 1178 1719 
Q 1178 616 1875 616 
Q 2225 616 2411 908 
Q 2597 1200 2597 1738 
z
" transform="scale(0.015625)"/>
      <path id="LiberationSans-Bold-20" transform="scale(0.015625)"/>
      <path id="LiberationSans-Bold-50" d="M 4050 3009 
Q 4050 2584 3856 2250 
Q 3663 1916 3302 1733 
Q 2941 1550 2444 1550 
L 1350 1550 
L 1350 0 
L 428 0 
L 428 4403 
L 2406 4403 
Q 3197 4403 3623 4039 
Q 4050 3675 4050 3009 
z
M 3122 2994 
Q 3122 3688 2303 3688 
L 1350 3688 
L 1350 2259 
L 2328 2259 
Q 2709 2259 2915 2448 
Q 3122 2638 3122 2994 
z
" transform="scale(0.015625)"/>
     </defs>
     <use xlink:href="#LiberationSans-Bold-48"/>
     <use xlink:href="#LiberationSans-Bold-6f" transform="translate(72.216797 0)"/>
     <use xlink:href="#LiberationSans-Bold-6c" transform="translate(133.300781 0)"/>
     <use xlink:href="#LiberationSans-Bold-6f" transform="translate(161.083984 0)"/>
     <use xlink:href="#LiberationSans-Bold-67" transform="translate(222.167969 0)"/>
     <use xlink:href="#LiberationSans-Bold-72" transform="translate(283.251953 0)"/>
     <use xlink:href="#LiberationSans-Bold-61" transform="translate(322.167969 0)"/>
     <use xlink:href="#LiberationSans-Bold-70" transform="translate(377.783203 0)"/>
     <use xlink:href="#LiberationSans-Bold-68" transform="translate(438.867188 0)"/>
     <use xlink:href="#LiberationSans-Bold-69" transform="translate(499.951172 0)"/>
     <use xlink:href="#LiberationSans-Bold-63" transform="translate(527.734375 0)"/>
     <use xlink:href="#LiberationSans-Bold-20" transform="translate(583.349609 0)"/>
     <use xlink:href="#LiberationSans-Bold-45" transform="translate(611.132812 0)"/>
     <use xlink:href="#LiberationSans-Bold-6e" transform="translate(677.832031 0)"/>
     <use xlink:href="#LiberationSans-Bold-68" transform="translate(738.916016 0)"/>
     <use xlink:href="#LiberationSans-Bold-61" transform="translate(800 0)"/>
     <use xlink:href="#LiberationSans-Bold-6e" transform="translate(855.615234 0)"/>
     <use xlink:href="#LiberationSans-Bold-63" transform="translate(916.699219 0)"/>
     <use xlink:href="#LiberationSans-Bold-65" transform="translate(972.314453 0)"/>
     <use xlink:href="#LiberationSans-Bold-6d" transform="translate(1027.929688 0)"/>
     <use xlink:href="#LiberationSans-Bold-65" transform="translate(1116.845703 0)"/>
     <use xlink:href="#LiberationSans-Bold-6e" transform="translate(1172.460938 0)"/>
     <use xlink:href="#LiberationSans-Bold-74" transform="translate(1233.544922 0)"/>
     <use xlink:href="#LiberationSans-Bold-20" transform="translate(1266.845703 0)"/>
     <use xlink:href="#LiberationSans-Bold-50" transform="translate(1294.628906 0)"/>
     <use xlink:href="#LiberationSans-Bold-69" transform="translate(1361.328125 0)"/>
     <use xlink:href="#LiberationSans-Bold-70" transform="translate(1389.111328 0)"/>
     <use xlink:href="#LiberationSans-Bold-65" transform="translate(1450.195312 0)"/>
     <use xlink:href="#LiberationSans-Bold-6c" transform="translate(1505.810547 0)"/>
     <use xlink:href="#LiberationSans-Bold-69" transform="translate(1533.59375 0)"/>
     <use xlink:href="#LiberationSans-Bold-6e" transform="translate(1561.376953 0)"/>
     <use xlink:href="#LiberationSans-Bold-65" transform="translate(1622.460938 0)"/>
    </g>
   </g>
  </g>
 </g>
</svg>
