<?xml version="1.0" encoding="utf-8" standalone="no"?>
<!DOCTYPE svg PUBLIC "-//W3C//DTD SVG 1.1//EN"
  "http://www.w3.org/Graphics/SVG/1.1/DTD/svg11.dtd">
<svg xmlns:xlink="http://www.w3.org/1999/xlink" width="839.461875pt" height="280.78pt" viewBox="0 0 839.461875 280.78" xmlns="http://www.w3.org/2000/svg" version="1.1">
 <metadata>
  <rdf:RDF xmlns:dc="http://purl.org/dc/elements/1.1/" xmlns:cc="http://creativecommons.org/ns#" xmlns:rdf="http://www.w3.org/1999/02/22-rdf-syntax-ns#">
   <cc:Work>
    <dc:type rdf:resource="http://purl.org/dc/dcmitype/StillImage"/>
    <dc:date>2025-11-25T20:42:29.363198</dc:date>
    <dc:format>image/svg+xml</dc:format>
    <dc:creator>
     <cc:Agent>
      <dc:title>Matplotlib v3.10.7, https://matplotlib.org/</dc:title>
     </cc:Agent>
    </dc:creator>
   </cc:Work>
  </rdf:RDF>
 </metadata>
 <defs>
  <style type="text/css">*{stroke-linejoin: round; stroke-linecap: butt}</style>
 </defs>
 <g id="figure_1">
  <g id="patch_1">
   <path d="M 0 280.78 
L 839.461875 280.78 
L 839.461875 0 
L 0 0 
z
" style="fill: #ffffff"/>
  </g>
  <g id="axes_1">
   <g id="patch_2">
    <path d="M 37.921875 247.43625 
L 263.461875 247.43625 
L 263.461875 21.89625 
L 37.921875 21.89625 
z
" style="fill: #ffffff"/>
   </g>
   <g id="matplotlib.axis_1">
    <g id="xtick_1">
     <g id="line2d_1">
      <path d="M 48.173693 247.43625 
L 48.173693 21.89625 
" clip-path="url(#p35bbdb682d)" style="fill: none; stroke: #cccccc; stroke-opacity: 0.3; stroke-width: 0.8; stroke-linecap: round"/>
     </g>
     <g id="line2d_2"/>
     <g id="text_1">
      <!-- 0.0 -->
      <g style="fill: #262626" transform="translate(41.223693 258.183125) scale(0.1 -0.1)">
       <defs>
        <path id="LiberationSans-30" d="M 3309 2203 
Q 3309 1100 2920 518 
Q 2531 -63 1772 -63 
Q 1013 -63 631 515 
Q 250 1094 250 2203 
Q 250 3338 620 3903 
Q 991 4469 1791 4469 
Q 2569 4469 2939 3897 
Q 3309 3325 3309 2203 
z
M 2738 2203 
Q 2738 3156 2517 3584 
Q 2297 4013 1791 4013 
Q 1272 4013 1045 3591 
Q 819 3169 819 2203 
Q 819 1266 1048 831 
Q 1278 397 1778 397 
Q 2275 397 2506 840 
Q 2738 1284 2738 2203 
z
" transform="scale(0.015625)"/>
        <path id="LiberationSans-2e" d="M 584 0 
L 584 684 
L 1194 684 
L 1194 0 
L 584 0 
z
" transform="scale(0.015625)"/>
       </defs>
       <use xlink:href="#LiberationSans-30"/>
       <use xlink:href="#LiberationSans-2e" transform="translate(55.615234 0)"/>
       <use xlink:href="#LiberationSans-30" transform="translate(83.398438 0)"/>
      </g>
     </g>
    </g>
    <g id="xtick_2">
     <g id="line2d_3">
      <path d="M 89.180966 247.43625 
L 89.180966 21.89625 
" clip-path="url(#p35bbdb682d)" style="fill: none; stroke: #cccccc; stroke-opacity: 0.3; stroke-width: 0.8; stroke-linecap: round"/>
     </g>
     <g id="line2d_4"/>
     <g id="text_2">
      <!-- 0.2 -->
      <g style="fill: #262626" transform="translate(82.230966 258.183125) scale(0.1 -0.1)">
       <defs>
        <path id="LiberationSans-32" d="M 322 0 
L 322 397 
Q 481 763 711 1042 
Q 941 1322 1194 1548 
Q 1447 1775 1695 1969 
Q 1944 2163 2144 2356 
Q 2344 2550 2467 2762 
Q 2591 2975 2591 3244 
Q 2591 3606 2378 3806 
Q 2166 4006 1788 4006 
Q 1428 4006 1195 3811 
Q 963 3616 922 3263 
L 347 3316 
Q 409 3844 795 4156 
Q 1181 4469 1788 4469 
Q 2453 4469 2811 4155 
Q 3169 3841 3169 3263 
Q 3169 3006 3051 2753 
Q 2934 2500 2703 2247 
Q 2472 1994 1819 1463 
Q 1459 1169 1246 933 
Q 1034 697 941 478 
L 3238 478 
L 3238 0 
L 322 0 
z
" transform="scale(0.015625)"/>
       </defs>
       <use xlink:href="#LiberationSans-30"/>
       <use xlink:href="#LiberationSans-2e" transform="translate(55.615234 0)"/>
       <use xlink:href="#LiberationSans-32" transform="translate(83.398438 0)"/>
      </g>
     </g>
    </g>
    <g id="xtick_3">
     <g id="line2d_5">
      <path d="M 130.188239 247.43625 
L 130.188239 21.89625 
" clip-path="url(#p35bbdb682d)" style="fill: none; stroke: #cccccc; stroke-opacity: 0.3; stroke-width: 0.8; stroke-linecap: round"/>
     </g>
     <g id="line2d_6"/>
     <g id="text_3">
      <!-- 0.4 -->
      <g style="fill: #262626" transform="translate(123.238239 258.183125) scale(0.1 -0.1)">
       <defs>
        <path id="LiberationSans-34" d="M 2753 997 
L 2753 0 
L 2222 0 
L 2222 997 
L 147 997 
L 147 1434 
L 2163 4403 
L 2753 4403 
L 2753 1441 
L 3372 1441 
L 3372 997 
L 2753 997 
z
M 2222 3769 
Q 2216 3750 2134 3603 
Q 2053 3456 2013 3397 
L 884 1734 
L 716 1503 
L 666 1441 
L 2222 1441 
L 2222 3769 
z
" transform="scale(0.015625)"/>
       </defs>
       <use xlink:href="#LiberationSans-30"/>
       <use xlink:href="#LiberationSans-2e" transform="translate(55.615234 0)"/>
       <use xlink:href="#LiberationSans-34" transform="translate(83.398438 0)"/>
      </g>
     </g>
    </g>
    <g id="xtick_4">
     <g id="line2d_7">
      <path d="M 171.195511 247.43625 
L 171.195511 21.89625 
" clip-path="url(#p35bbdb682d)" style="fill: none; stroke: #cccccc; stroke-opacity: 0.3; stroke-width: 0.8; stroke-linecap: round"/>
     </g>
     <g id="line2d_8"/>
     <g id="text_4">
      <!-- 0.6 -->
      <g style="fill: #262626" transform="translate(164.245511 258.183125) scale(0.1 -0.1)">
       <defs>
        <path id="LiberationSans-36" d="M 3278 1441 
Q 3278 744 2900 340 
Q 2522 -63 1856 -63 
Q 1113 -63 719 490 
Q 325 1044 325 2100 
Q 325 3244 734 3856 
Q 1144 4469 1900 4469 
Q 2897 4469 3156 3572 
L 2619 3475 
Q 2453 4013 1894 4013 
Q 1413 4013 1148 3564 
Q 884 3116 884 2266 
Q 1038 2550 1316 2698 
Q 1594 2847 1953 2847 
Q 2563 2847 2920 2465 
Q 3278 2084 3278 1441 
z
M 2706 1416 
Q 2706 1894 2472 2153 
Q 2238 2413 1819 2413 
Q 1425 2413 1183 2183 
Q 941 1953 941 1550 
Q 941 1041 1192 716 
Q 1444 391 1838 391 
Q 2244 391 2475 664 
Q 2706 938 2706 1416 
z
" transform="scale(0.015625)"/>
       </defs>
       <use xlink:href="#LiberationSans-30"/>
       <use xlink:href="#LiberationSans-2e" transform="translate(55.615234 0)"/>
       <use xlink:href="#LiberationSans-36" transform="translate(83.398438 0)"/>
      </g>
     </g>
    </g>
    <g id="xtick_5">
     <g id="line2d_9">
      <path d="M 212.202784 247.43625 
L 212.202784 21.89625 
" clip-path="url(#p35bbdb682d)" style="fill: none; stroke: #cccccc; stroke-opacity: 0.3; stroke-width: 0.8; stroke-linecap: round"/>
     </g>
     <g id="line2d_10"/>
     <g id="text_5">
      <!-- 0.8 -->
      <g style="fill: #262626" transform="translate(205.252784 258.183125) scale(0.1 -0.1)">
       <defs>
        <path id="LiberationSans-38" d="M 3281 1228 
Q 3281 619 2893 278 
Q 2506 -63 1781 -63 
Q 1075 -63 676 271 
Q 278 606 278 1222 
Q 278 1653 525 1947 
Q 772 2241 1156 2303 
L 1156 2316 
Q 797 2400 589 2681 
Q 381 2963 381 3341 
Q 381 3844 757 4156 
Q 1134 4469 1769 4469 
Q 2419 4469 2795 4162 
Q 3172 3856 3172 3334 
Q 3172 2956 2962 2675 
Q 2753 2394 2391 2322 
L 2391 2309 
Q 2813 2241 3047 1952 
Q 3281 1663 3281 1228 
z
M 2588 3303 
Q 2588 4050 1769 4050 
Q 1372 4050 1164 3862 
Q 956 3675 956 3303 
Q 956 2925 1170 2726 
Q 1384 2528 1775 2528 
Q 2172 2528 2380 2711 
Q 2588 2894 2588 3303 
z
M 2697 1281 
Q 2697 1691 2453 1898 
Q 2209 2106 1769 2106 
Q 1341 2106 1100 1882 
Q 859 1659 859 1269 
Q 859 359 1788 359 
Q 2247 359 2472 579 
Q 2697 800 2697 1281 
z
" transform="scale(0.015625)"/>
       </defs>
       <use xlink:href="#LiberationSans-30"/>
       <use xlink:href="#LiberationSans-2e" transform="translate(55.615234 0)"/>
       <use xlink:href="#LiberationSans-38" transform="translate(83.398438 0)"/>
      </g>
     </g>
    </g>
    <g id="xtick_6">
     <g id="line2d_11">
      <path d="M 253.210057 247.43625 
L 253.210057 21.89625 
" clip-path="url(#p35bbdb682d)" style="fill: none; stroke: #cccccc; stroke-opacity: 0.3; stroke-width: 0.8; stroke-linecap: round"/>
     </g>
     <g id="line2d_12"/>
     <g id="text_6">
      <!-- 1.0 -->
      <g style="fill: #262626" transform="translate(246.260057 258.183125) scale(0.1 -0.1)">
       <defs>
        <path id="LiberationSans-31" d="M 488 0 
L 488 478 
L 1609 478 
L 1609 3866 
L 616 3156 
L 616 3688 
L 1656 4403 
L 2175 4403 
L 2175 478 
L 3247 478 
L 3247 0 
L 488 0 
z
" transform="scale(0.015625)"/>
       </defs>
       <use xlink:href="#LiberationSans-31"/>
       <use xlink:href="#LiberationSans-2e" transform="translate(55.615234 0)"/>
       <use xlink:href="#LiberationSans-30" transform="translate(83.398438 0)"/>
      </g>
     </g>
    </g>
    <g id="text_7">
     <!-- Intensity I -->
     <g style="fill: #262626" transform="translate(129.294219 271.505) scale(0.1 -0.1)">
      <defs>
       <path id="LiberationSans-49" d="M 591 0 
L 591 4403 
L 1188 4403 
L 1188 0 
L 591 0 
z
" transform="scale(0.015625)"/>
       <path id="LiberationSans-6e" d="M 2578 0 
L 2578 2144 
Q 2578 2478 2512 2662 
Q 2447 2847 2303 2928 
Q 2159 3009 1881 3009 
Q 1475 3009 1240 2731 
Q 1006 2453 1006 1959 
L 1006 0 
L 444 0 
L 444 2659 
Q 444 3250 425 3381 
L 956 3381 
Q 959 3366 962 3297 
Q 966 3228 970 3139 
Q 975 3050 981 2803 
L 991 2803 
Q 1184 3153 1439 3298 
Q 1694 3444 2072 3444 
Q 2628 3444 2886 3167 
Q 3144 2891 3144 2253 
L 3144 0 
L 2578 0 
z
" transform="scale(0.015625)"/>
       <path id="LiberationSans-74" d="M 1731 25 
Q 1453 -50 1163 -50 
Q 488 -50 488 716 
L 488 2972 
L 97 2972 
L 97 3381 
L 509 3381 
L 675 4138 
L 1050 4138 
L 1050 3381 
L 1675 3381 
L 1675 2972 
L 1050 2972 
L 1050 838 
Q 1050 594 1129 495 
Q 1209 397 1406 397 
Q 1519 397 1731 441 
L 1731 25 
z
" transform="scale(0.015625)"/>
       <path id="LiberationSans-65" d="M 863 1572 
Q 863 991 1103 675 
Q 1344 359 1806 359 
Q 2172 359 2392 506 
Q 2613 653 2691 878 
L 3184 738 
Q 2881 -63 1806 -63 
Q 1056 -63 664 384 
Q 272 831 272 1713 
Q 272 2550 664 2997 
Q 1056 3444 1784 3444 
Q 3275 3444 3275 1647 
L 3275 1572 
L 863 1572 
z
M 2694 2003 
Q 2647 2538 2422 2783 
Q 2197 3028 1775 3028 
Q 1366 3028 1127 2754 
Q 888 2481 869 2003 
L 2694 2003 
z
" transform="scale(0.015625)"/>
       <path id="LiberationSans-73" d="M 2969 934 
Q 2969 456 2608 196 
Q 2247 -63 1597 -63 
Q 966 -63 623 145 
Q 281 353 178 794 
L 675 891 
Q 747 619 972 492 
Q 1197 366 1597 366 
Q 2025 366 2223 497 
Q 2422 628 2422 891 
Q 2422 1091 2284 1216 
Q 2147 1341 1841 1422 
L 1438 1528 
Q 953 1653 748 1773 
Q 544 1894 428 2066 
Q 313 2238 313 2488 
Q 313 2950 642 3192 
Q 972 3434 1603 3434 
Q 2163 3434 2492 3237 
Q 2822 3041 2909 2606 
L 2403 2544 
Q 2356 2769 2151 2889 
Q 1947 3009 1603 3009 
Q 1222 3009 1040 2893 
Q 859 2778 859 2544 
Q 859 2400 934 2306 
Q 1009 2213 1156 2147 
Q 1303 2081 1775 1966 
Q 2222 1853 2419 1758 
Q 2616 1663 2730 1547 
Q 2844 1431 2906 1279 
Q 2969 1128 2969 934 
z
" transform="scale(0.015625)"/>
       <path id="LiberationSans-69" d="M 428 4100 
L 428 4638 
L 991 4638 
L 991 4100 
L 428 4100 
z
M 428 0 
L 428 3381 
L 991 3381 
L 991 0 
L 428 0 
z
" transform="scale(0.015625)"/>
       <path id="LiberationSans-79" d="M 597 -1328 
Q 366 -1328 209 -1294 
L 209 -872 
Q 328 -891 472 -891 
Q 997 -891 1303 -119 
L 1356 16 
L 16 3381 
L 616 3381 
L 1328 1513 
Q 1344 1469 1366 1408 
Q 1388 1347 1506 1000 
Q 1625 653 1634 613 
L 1853 1228 
L 2594 3381 
L 3188 3381 
L 1888 0 
Q 1678 -541 1497 -805 
Q 1316 -1069 1095 -1198 
Q 875 -1328 597 -1328 
z
" transform="scale(0.015625)"/>
       <path id="LiberationSans-20" transform="scale(0.015625)"/>
      </defs>
      <use xlink:href="#LiberationSans-49"/>
      <use xlink:href="#LiberationSans-6e" transform="translate(27.783203 0)"/>
      <use xlink:href="#LiberationSans-74" transform="translate(83.398438 0)"/>
      <use xlink:href="#LiberationSans-65" transform="translate(111.181641 0)"/>
      <use xlink:href="#LiberationSans-6e" transform="translate(166.796875 0)"/>
      <use xlink:href="#LiberationSans-73" transform="translate(222.412109 0)"/>
      <use xlink:href="#LiberationSans-69" transform="translate(272.412109 0)"/>
      <use xlink:href="#LiberationSans-74" transform="translate(294.628906 0)"/>
      <use xlink:href="#LiberationSans-79" transform="translate(322.412109 0)"/>
      <use xlink:href="#LiberationSans-20" transform="translate(372.412109 0)"/>
      <use xlink:href="#LiberationSans-49" transform="translate(400.195312 0)"/>
     </g>
    </g>
   </g>
   <g id="matplotlib.axis_2">
    <g id="ytick_1">
     <g id="line2d_13">
      <path d="M 37.921875 237.184432 
L 263.461875 237.184432 
" clip-path="url(#p35bbdb682d)" style="fill: none; stroke: #cccccc; stroke-opacity: 0.3; stroke-width: 0.8; stroke-linecap: round"/>
     </g>
     <g id="line2d_14"/>
     <g id="text_8">
      <!-- 0.0 -->
      <g style="fill: #262626" transform="translate(20.521875 240.807869) scale(0.1 -0.1)">
       <use xlink:href="#LiberationSans-30"/>
       <use xlink:href="#LiberationSans-2e" transform="translate(55.615234 0)"/>
       <use xlink:href="#LiberationSans-30" transform="translate(83.398438 0)"/>
      </g>
     </g>
    </g>
    <g id="ytick_2">
     <g id="line2d_15">
      <path d="M 37.921875 196.177159 
L 263.461875 196.177159 
" clip-path="url(#p35bbdb682d)" style="fill: none; stroke: #cccccc; stroke-opacity: 0.3; stroke-width: 0.8; stroke-linecap: round"/>
     </g>
     <g id="line2d_16"/>
     <g id="text_9">
      <!-- 0.2 -->
      <g style="fill: #262626" transform="translate(20.521875 199.800597) scale(0.1 -0.1)">
       <use xlink:href="#LiberationSans-30"/>
       <use xlink:href="#LiberationSans-2e" transform="translate(55.615234 0)"/>
       <use xlink:href="#LiberationSans-32" transform="translate(83.398438 0)"/>
      </g>
     </g>
    </g>
    <g id="ytick_3">
     <g id="line2d_17">
      <path d="M 37.921875 155.169886 
L 263.461875 155.169886 
" clip-path="url(#p35bbdb682d)" style="fill: none; stroke: #cccccc; stroke-opacity: 0.3; stroke-width: 0.8; stroke-linecap: round"/>
     </g>
     <g id="line2d_18"/>
     <g id="text_10">
      <!-- 0.4 -->
      <g style="fill: #262626" transform="translate(20.521875 158.793324) scale(0.1 -0.1)">
       <use xlink:href="#LiberationSans-30"/>
       <use xlink:href="#LiberationSans-2e" transform="translate(55.615234 0)"/>
       <use xlink:href="#LiberationSans-34" transform="translate(83.398438 0)"/>
      </g>
     </g>
    </g>
    <g id="ytick_4">
     <g id="line2d_19">
      <path d="M 37.921875 114.162614 
L 263.461875 114.162614 
" clip-path="url(#p35bbdb682d)" style="fill: none; stroke: #cccccc; stroke-opacity: 0.3; stroke-width: 0.8; stroke-linecap: round"/>
     </g>
     <g id="line2d_20"/>
     <g id="text_11">
      <!-- 0.6 -->
      <g style="fill: #262626" transform="translate(20.521875 117.786051) scale(0.1 -0.1)">
       <use xlink:href="#LiberationSans-30"/>
       <use xlink:href="#LiberationSans-2e" transform="translate(55.615234 0)"/>
       <use xlink:href="#LiberationSans-36" transform="translate(83.398438 0)"/>
      </g>
     </g>
    </g>
    <g id="ytick_5">
     <g id="line2d_21">
      <path d="M 37.921875 73.155341 
L 263.461875 73.155341 
" clip-path="url(#p35bbdb682d)" style="fill: none; stroke: #cccccc; stroke-opacity: 0.3; stroke-width: 0.8; stroke-linecap: round"/>
     </g>
     <g id="line2d_22"/>
     <g id="text_12">
      <!-- 0.8 -->
      <g style="fill: #262626" transform="translate(20.521875 76.778778) scale(0.1 -0.1)">
       <use xlink:href="#LiberationSans-30"/>
       <use xlink:href="#LiberationSans-2e" transform="translate(55.615234 0)"/>
       <use xlink:href="#LiberationSans-38" transform="translate(83.398438 0)"/>
      </g>
     </g>
    </g>
    <g id="ytick_6">
     <g id="line2d_23">
      <path d="M 37.921875 32.148068 
L 263.461875 32.148068 
" clip-path="url(#p35bbdb682d)" style="fill: none; stroke: #cccccc; stroke-opacity: 0.3; stroke-width: 0.8; stroke-linecap: round"/>
     </g>
     <g id="line2d_24"/>
     <g id="text_13">
      <!-- 1.0 -->
      <g style="fill: #262626" transform="translate(20.521875 35.771506) scale(0.1 -0.1)">
       <use xlink:href="#LiberationSans-31"/>
       <use xlink:href="#LiberationSans-2e" transform="translate(55.615234 0)"/>
       <use xlink:href="#LiberationSans-30" transform="translate(83.398438 0)"/>
      </g>
     </g>
    </g>
    <g id="text_14">
     <!-- Amplitude A -->
     <g style="fill: #262626" transform="translate(14.446875 161.348281) rotate(-90) scale(0.1 -0.1)">
      <defs>
       <path id="LiberationSans-41" d="M 3647 0 
L 3144 1288 
L 1138 1288 
L 631 0 
L 13 0 
L 1809 4403 
L 2488 4403 
L 4256 0 
L 3647 0 
z
M 2141 3953 
L 2113 3866 
Q 2034 3606 1881 3200 
L 1319 1753 
L 2966 1753 
L 2400 3206 
Q 2313 3422 2225 3694 
L 2141 3953 
z
" transform="scale(0.015625)"/>
       <path id="LiberationSans-6d" d="M 2400 0 
L 2400 2144 
Q 2400 2634 2265 2821 
Q 2131 3009 1781 3009 
Q 1422 3009 1212 2734 
Q 1003 2459 1003 1959 
L 1003 0 
L 444 0 
L 444 2659 
Q 444 3250 425 3381 
L 956 3381 
Q 959 3366 962 3297 
Q 966 3228 970 3139 
Q 975 3050 981 2803 
L 991 2803 
Q 1172 3163 1406 3303 
Q 1641 3444 1978 3444 
Q 2363 3444 2586 3291 
Q 2809 3138 2897 2803 
L 2906 2803 
Q 3081 3144 3329 3294 
Q 3578 3444 3931 3444 
Q 4444 3444 4676 3166 
Q 4909 2888 4909 2253 
L 4909 0 
L 4353 0 
L 4353 2144 
Q 4353 2634 4218 2821 
Q 4084 3009 3734 3009 
Q 3366 3009 3161 2736 
Q 2956 2463 2956 1959 
L 2956 0 
L 2400 0 
z
" transform="scale(0.015625)"/>
       <path id="LiberationSans-70" d="M 3291 1706 
Q 3291 -63 2047 -63 
Q 1266 -63 997 525 
L 981 525 
Q 994 500 994 -6 
L 994 -1328 
L 431 -1328 
L 431 2691 
Q 431 3213 413 3381 
L 956 3381 
Q 959 3369 965 3292 
Q 972 3216 980 3056 
Q 988 2897 988 2838 
L 1000 2838 
Q 1150 3150 1397 3295 
Q 1644 3441 2047 3441 
Q 2672 3441 2981 3022 
Q 3291 2603 3291 1706 
z
M 2700 1694 
Q 2700 2400 2509 2703 
Q 2319 3006 1903 3006 
Q 1569 3006 1380 2865 
Q 1191 2725 1092 2426 
Q 994 2128 994 1650 
Q 994 984 1206 668 
Q 1419 353 1897 353 
Q 2316 353 2508 661 
Q 2700 969 2700 1694 
z
" transform="scale(0.015625)"/>
       <path id="LiberationSans-6c" d="M 431 0 
L 431 4638 
L 994 4638 
L 994 0 
L 431 0 
z
" transform="scale(0.015625)"/>
       <path id="LiberationSans-75" d="M 981 3381 
L 981 1238 
Q 981 903 1047 718 
Q 1113 534 1256 453 
Q 1400 372 1678 372 
Q 2084 372 2318 650 
Q 2553 928 2553 1422 
L 2553 3381 
L 3116 3381 
L 3116 722 
Q 3116 131 3134 0 
L 2603 0 
Q 2600 16 2597 84 
Q 2594 153 2589 242 
Q 2584 331 2578 578 
L 2569 578 
Q 2375 228 2120 82 
Q 1866 -63 1488 -63 
Q 931 -63 673 214 
Q 416 491 416 1128 
L 416 3381 
L 981 3381 
z
" transform="scale(0.015625)"/>
       <path id="LiberationSans-64" d="M 2566 544 
Q 2409 219 2151 78 
Q 1894 -63 1513 -63 
Q 872 -63 570 368 
Q 269 800 269 1675 
Q 269 3444 1513 3444 
Q 1897 3444 2153 3303 
Q 2409 3163 2566 2856 
L 2572 2856 
L 2566 3234 
L 2566 4638 
L 3128 4638 
L 3128 697 
Q 3128 169 3147 0 
L 2609 0 
Q 2600 50 2589 231 
Q 2578 413 2578 544 
L 2566 544 
z
M 859 1694 
Q 859 984 1046 678 
Q 1234 372 1656 372 
Q 2134 372 2350 703 
Q 2566 1034 2566 1731 
Q 2566 2403 2350 2715 
Q 2134 3028 1663 3028 
Q 1238 3028 1048 2714 
Q 859 2400 859 1694 
z
" transform="scale(0.015625)"/>
      </defs>
      <use xlink:href="#LiberationSans-41"/>
      <use xlink:href="#LiberationSans-6d" transform="translate(66.699219 0)"/>
      <use xlink:href="#LiberationSans-70" transform="translate(150 0)"/>
      <use xlink:href="#LiberationSans-6c" transform="translate(205.615234 0)"/>
      <use xlink:href="#LiberationSans-69" transform="translate(227.832031 0)"/>
      <use xlink:href="#LiberationSans-74" transform="translate(250.048828 0)"/>
      <use xlink:href="#LiberationSans-75" transform="translate(277.832031 0)"/>
      <use xlink:href="#LiberationSans-64" transform="translate(333.447266 0)"/>
      <use xlink:href="#LiberationSans-65" transform="translate(389.0625 0)"/>
      <use xlink:href="#LiberationSans-20" transform="translate(444.677734 0)"/>
      <use xlink:href="#LiberationSans-41" transform="translate(466.960938 0)"/>
     </g>
    </g>
   </g>
   <g id="line2d_25">
    <path d="M 48.173693 237.184432 
L 253.210057 32.148068 
L 253.210057 32.148068 
" clip-path="url(#p35bbdb682d)" style="fill: none; stroke-dasharray: 5.55,2.4; stroke-dashoffset: 0; stroke: #000000; stroke-opacity: 0.5; stroke-width: 1.5"/>
   </g>
   <g id="line2d_26">
    <path d="M 48.173693 237.184432 
L 48.378935 230.697368 
L 48.789418 225.948508 
L 49.405143 221.294436 
L 50.226109 216.670536 
L 51.252317 212.060143 
L 52.483767 207.456972 
L 54.1257 202.250526 
L 55.972874 197.195487 
L 58.02529 192.240738 
L 60.282948 187.356352 
L 62.951089 182.139873 
L 65.824471 177.02588 
L 68.903095 171.990251 
L 72.392203 166.716885 
L 76.086551 161.532922 
L 80.191384 156.161035 
L 84.501457 150.879666 
L 89.222014 145.4435 
L 94.353054 139.87848 
L 99.894578 134.205492 
L 105.846584 128.441433 
L 112.209074 122.600045 
L 118.982047 116.692576 
L 126.165503 110.728285 
L 133.759443 104.714847 
L 141.763865 98.658663 
L 150.384013 92.419684 
L 159.414643 86.159798 
L 169.060999 79.747798 
L 179.117837 73.329889 
L 189.790401 66.783215 
L 201.078689 60.122058 
L 212.982702 53.358863 
L 225.50244 46.504487 
L 238.637903 39.568418 
L 252.38909 32.558963 
L 253.210057 32.148068 
L 253.210057 32.148068 
" clip-path="url(#p35bbdb682d)" style="fill: none; stroke: #0000ff; stroke-width: 2; stroke-linecap: round"/>
   </g>
   <g id="patch_3">
    <path d="M 37.921875 247.43625 
L 37.921875 21.89625 
" style="fill: none; stroke: #cccccc; stroke-linejoin: miter; stroke-linecap: square"/>
   </g>
   <g id="patch_4">
    <path d="M 263.461875 247.43625 
L 263.461875 21.89625 
" style="fill: none; stroke: #cccccc; stroke-linejoin: miter; stroke-linecap: square"/>
   </g>
   <g id="patch_5">
    <path d="M 37.921875 247.43625 
L 263.461875 247.43625 
" style="fill: none; stroke: #cccccc; stroke-linejoin: miter; stroke-linecap: square"/>
   </g>
   <g id="patch_6">
    <path d="M 37.921875 21.89625 
L 263.461875 21.89625 
" style="fill: none; stroke: #cccccc; stroke-linejoin: miter; stroke-linecap: square"/>
   </g>
   <g id="text_15">
    <!-- Amplitude Transform -->
    <g style="fill: #262626" transform="translate(95.340937 15.89625) scale(0.12 -0.12)">
     <defs>
      <path id="LiberationSans-54" d="M 2250 3916 
L 2250 0 
L 1656 0 
L 1656 3916 
L 144 3916 
L 144 4403 
L 3763 4403 
L 3763 3916 
L 2250 3916 
z
" transform="scale(0.015625)"/>
      <path id="LiberationSans-72" d="M 444 0 
L 444 2594 
Q 444 2950 425 3381 
L 956 3381 
Q 981 2806 981 2691 
L 994 2691 
Q 1128 3125 1303 3284 
Q 1478 3444 1797 3444 
Q 1909 3444 2025 3413 
L 2025 2897 
Q 1913 2928 1725 2928 
Q 1375 2928 1190 2626 
Q 1006 2325 1006 1763 
L 1006 0 
L 444 0 
z
" transform="scale(0.015625)"/>
      <path id="LiberationSans-61" d="M 1294 -63 
Q 784 -63 528 206 
Q 272 475 272 944 
Q 272 1469 617 1750 
Q 963 2031 1731 2050 
L 2491 2063 
L 2491 2247 
Q 2491 2659 2316 2837 
Q 2141 3016 1766 3016 
Q 1388 3016 1216 2887 
Q 1044 2759 1009 2478 
L 422 2531 
Q 566 3444 1778 3444 
Q 2416 3444 2737 3151 
Q 3059 2859 3059 2306 
L 3059 850 
Q 3059 600 3125 473 
Q 3191 347 3375 347 
Q 3456 347 3559 369 
L 3559 19 
Q 3347 -31 3125 -31 
Q 2813 -31 2670 133 
Q 2528 297 2509 647 
L 2491 647 
Q 2275 259 1989 98 
Q 1703 -63 1294 -63 
z
M 1422 359 
Q 1731 359 1972 500 
Q 2213 641 2352 886 
Q 2491 1131 2491 1391 
L 2491 1669 
L 1875 1656 
Q 1478 1650 1273 1575 
Q 1069 1500 959 1344 
Q 850 1188 850 934 
Q 850 659 998 509 
Q 1147 359 1422 359 
z
" transform="scale(0.015625)"/>
      <path id="LiberationSans-66" d="M 1128 2972 
L 1128 0 
L 566 0 
L 566 2972 
L 91 2972 
L 91 3381 
L 566 3381 
L 566 3763 
Q 566 4225 769 4428 
Q 972 4631 1391 4631 
Q 1625 4631 1788 4594 
L 1788 4166 
Q 1647 4191 1538 4191 
Q 1322 4191 1225 4081 
Q 1128 3972 1128 3684 
L 1128 3381 
L 1788 3381 
L 1788 2972 
L 1128 2972 
z
" transform="scale(0.015625)"/>
      <path id="LiberationSans-6f" d="M 3291 1694 
Q 3291 806 2900 371 
Q 2509 -63 1766 -63 
Q 1025 -63 647 389 
Q 269 841 269 1694 
Q 269 3444 1784 3444 
Q 2559 3444 2925 3017 
Q 3291 2591 3291 1694 
z
M 2700 1694 
Q 2700 2394 2492 2711 
Q 2284 3028 1794 3028 
Q 1300 3028 1079 2704 
Q 859 2381 859 1694 
Q 859 1025 1076 689 
Q 1294 353 1759 353 
Q 2266 353 2483 678 
Q 2700 1003 2700 1694 
z
" transform="scale(0.015625)"/>
     </defs>
     <use xlink:href="#LiberationSans-41"/>
     <use xlink:href="#LiberationSans-6d" transform="translate(66.699219 0)"/>
     <use xlink:href="#LiberationSans-70" transform="translate(150 0)"/>
     <use xlink:href="#LiberationSans-6c" transform="translate(205.615234 0)"/>
     <use xlink:href="#LiberationSans-69" transform="translate(227.832031 0)"/>
     <use xlink:href="#LiberationSans-74" transform="translate(250.048828 0)"/>
     <use xlink:href="#LiberationSans-75" transform="translate(277.832031 0)"/>
     <use xlink:href="#LiberationSans-64" transform="translate(333.447266 0)"/>
     <use xlink:href="#LiberationSans-65" transform="translate(389.0625 0)"/>
     <use xlink:href="#LiberationSans-20" transform="translate(444.677734 0)"/>
     <use xlink:href="#LiberationSans-54" transform="translate(470.710938 0)"/>
     <use xlink:href="#LiberationSans-72" transform="translate(528.044922 0)"/>
     <use xlink:href="#LiberationSans-61" transform="translate(561.345703 0)"/>
     <use xlink:href="#LiberationSans-6e" transform="translate(616.960938 0)"/>
     <use xlink:href="#LiberationSans-73" transform="translate(672.576172 0)"/>
     <use xlink:href="#LiberationSans-66" transform="translate(722.576172 0)"/>
     <use xlink:href="#LiberationSans-6f" transform="translate(750.359375 0)"/>
     <use xlink:href="#LiberationSans-72" transform="translate(805.974609 0)"/>
     <use xlink:href="#LiberationSans-6d" transform="translate(839.275391 0)"/>
    </g>
   </g>
   <g id="legend_1">
    <g id="line2d_27">
     <path d="M 46.921875 34.643125 
L 56.921875 34.643125 
L 66.921875 34.643125 
" style="fill: none; stroke-dasharray: 5.55,2.4; stroke-dashoffset: 0; stroke: #000000; stroke-opacity: 0.5; stroke-width: 1.5"/>
    </g>
    <g id="text_16">
     <!-- Identity -->
     <g style="fill: #262626" transform="translate(74.921875 38.143125) scale(0.1 -0.1)">
      <use xlink:href="#LiberationSans-49"/>
      <use xlink:href="#LiberationSans-64" transform="translate(27.783203 0)"/>
      <use xlink:href="#LiberationSans-65" transform="translate(83.398438 0)"/>
      <use xlink:href="#LiberationSans-6e" transform="translate(139.013672 0)"/>
      <use xlink:href="#LiberationSans-74" transform="translate(194.628906 0)"/>
      <use xlink:href="#LiberationSans-69" transform="translate(222.412109 0)"/>
      <use xlink:href="#LiberationSans-74" transform="translate(244.628906 0)"/>
      <use xlink:href="#LiberationSans-79" transform="translate(272.412109 0)"/>
     </g>
    </g>
    <g id="line2d_28">
     <path d="M 46.921875 48.965 
L 56.921875 48.965 
L 66.921875 48.965 
" style="fill: none; stroke: #0000ff; stroke-width: 2; stroke-linecap: round"/>
    </g>
    <g id="text_17">
     <!-- A = √I -->
     <g style="fill: #262626" transform="translate(74.921875 52.465) scale(0.1 -0.1)">
      <defs>
       <path id="LiberationSans-3d" d="M 313 2675 
L 313 3138 
L 3422 3138 
L 3422 2675 
L 313 2675 
z
M 313 1075 
L 313 1538 
L 3422 1538 
L 3422 1075 
L 313 1075 
z
" transform="scale(0.015625)"/>
       <path id="LiberationSans-221a" d="M 1944 -44 
L 1613 -44 
L 728 2431 
L 159 2431 
L 159 2797 
L 1003 2797 
L 1759 641 
L 3103 5063 
L 3506 5063 
L 1944 -44 
z
" transform="scale(0.015625)"/>
      </defs>
      <use xlink:href="#LiberationSans-41"/>
      <use xlink:href="#LiberationSans-20" transform="translate(61.199219 0)"/>
      <use xlink:href="#LiberationSans-3d" transform="translate(88.982422 0)"/>
      <use xlink:href="#LiberationSans-20" transform="translate(147.380859 0)"/>
      <use xlink:href="#LiberationSans-221a" transform="translate(175.164062 0)"/>
      <use xlink:href="#LiberationSans-49" transform="translate(230.046875 0)"/>
     </g>
    </g>
   </g>
  </g>
  <g id="axes_2">
   <g id="patch_7">
    <path d="M 313.621875 247.43625 
L 556.561875 247.43625 
L 556.561875 21.89625 
L 313.621875 21.89625 
z
" style="fill: #ffffff"/>
   </g>
   <g id="matplotlib.axis_3">
    <g id="xtick_7">
     <g id="line2d_29">
      <path d="M 352.27142 247.43625 
L 352.27142 21.89625 
" clip-path="url(#pe9d3a00b70)" style="fill: none; stroke: #cccccc; stroke-opacity: 0.3; stroke-width: 0.8; stroke-linecap: round"/>
     </g>
     <g id="line2d_30"/>
     <g id="text_18">
      <!-- 0.8 -->
      <g style="fill: #262626" transform="translate(345.32142 258.183125) scale(0.1 -0.1)">
       <use xlink:href="#LiberationSans-30"/>
       <use xlink:href="#LiberationSans-2e" transform="translate(55.615234 0)"/>
       <use xlink:href="#LiberationSans-38" transform="translate(83.398438 0)"/>
      </g>
     </g>
    </g>
    <g id="xtick_8">
     <g id="line2d_31">
      <path d="M 407.485057 247.43625 
L 407.485057 21.89625 
" clip-path="url(#pe9d3a00b70)" style="fill: none; stroke: #cccccc; stroke-opacity: 0.3; stroke-width: 0.8; stroke-linecap: round"/>
     </g>
     <g id="line2d_32"/>
     <g id="text_19">
      <!-- 1.0 -->
      <g style="fill: #262626" transform="translate(400.535057 258.183125) scale(0.1 -0.1)">
       <use xlink:href="#LiberationSans-31"/>
       <use xlink:href="#LiberationSans-2e" transform="translate(55.615234 0)"/>
       <use xlink:href="#LiberationSans-30" transform="translate(83.398438 0)"/>
      </g>
     </g>
    </g>
    <g id="xtick_9">
     <g id="line2d_33">
      <path d="M 462.698693 247.43625 
L 462.698693 21.89625 
" clip-path="url(#pe9d3a00b70)" style="fill: none; stroke: #cccccc; stroke-opacity: 0.3; stroke-width: 0.8; stroke-linecap: round"/>
     </g>
     <g id="line2d_34"/>
     <g id="text_20">
      <!-- 1.2 -->
      <g style="fill: #262626" transform="translate(455.748693 258.183125) scale(0.1 -0.1)">
       <use xlink:href="#LiberationSans-31"/>
       <use xlink:href="#LiberationSans-2e" transform="translate(55.615234 0)"/>
       <use xlink:href="#LiberationSans-32" transform="translate(83.398438 0)"/>
      </g>
     </g>
    </g>
    <g id="xtick_10">
     <g id="line2d_35">
      <path d="M 517.91233 247.43625 
L 517.91233 21.89625 
" clip-path="url(#pe9d3a00b70)" style="fill: none; stroke: #cccccc; stroke-opacity: 0.3; stroke-width: 0.8; stroke-linecap: round"/>
     </g>
     <g id="line2d_36"/>
     <g id="text_21">
      <!-- 1.4 -->
      <g style="fill: #262626" transform="translate(510.96233 258.183125) scale(0.1 -0.1)">
       <use xlink:href="#LiberationSans-31"/>
       <use xlink:href="#LiberationSans-2e" transform="translate(55.615234 0)"/>
       <use xlink:href="#LiberationSans-34" transform="translate(83.398438 0)"/>
      </g>
     </g>
    </g>
    <g id="text_22">
     <!-- Enhancement Factor -->
     <g style="fill: #262626" transform="translate(388.681719 271.505) scale(0.1 -0.1)">
      <defs>
       <path id="LiberationSans-45" d="M 525 0 
L 525 4403 
L 3866 4403 
L 3866 3916 
L 1122 3916 
L 1122 2503 
L 3678 2503 
L 3678 2022 
L 1122 2022 
L 1122 488 
L 3994 488 
L 3994 0 
L 525 0 
z
" transform="scale(0.015625)"/>
       <path id="LiberationSans-68" d="M 991 2803 
Q 1172 3134 1426 3289 
Q 1681 3444 2072 3444 
Q 2622 3444 2883 3170 
Q 3144 2897 3144 2253 
L 3144 0 
L 2578 0 
L 2578 2144 
Q 2578 2500 2512 2673 
Q 2447 2847 2297 2928 
Q 2147 3009 1881 3009 
Q 1484 3009 1245 2734 
Q 1006 2459 1006 1994 
L 1006 0 
L 444 0 
L 444 4638 
L 1006 4638 
L 1006 3431 
Q 1006 3241 995 3037 
Q 984 2834 981 2803 
L 991 2803 
z
" transform="scale(0.015625)"/>
       <path id="LiberationSans-63" d="M 859 1706 
Q 859 1031 1071 706 
Q 1284 381 1713 381 
Q 2013 381 2214 543 
Q 2416 706 2463 1044 
L 3031 1006 
Q 2966 519 2616 228 
Q 2266 -63 1728 -63 
Q 1019 -63 645 385 
Q 272 834 272 1694 
Q 272 2547 647 2995 
Q 1022 3444 1722 3444 
Q 2241 3444 2583 3175 
Q 2925 2906 3013 2434 
L 2434 2391 
Q 2391 2672 2212 2837 
Q 2034 3003 1706 3003 
Q 1259 3003 1059 2706 
Q 859 2409 859 1706 
z
" transform="scale(0.015625)"/>
       <path id="LiberationSans-46" d="M 1122 3916 
L 1122 2278 
L 3578 2278 
L 3578 1784 
L 1122 1784 
L 1122 0 
L 525 0 
L 525 4403 
L 3653 4403 
L 3653 3916 
L 1122 3916 
z
" transform="scale(0.015625)"/>
      </defs>
      <use xlink:href="#LiberationSans-45"/>
      <use xlink:href="#LiberationSans-6e" transform="translate(66.699219 0)"/>
      <use xlink:href="#LiberationSans-68" transform="translate(122.314453 0)"/>
      <use xlink:href="#LiberationSans-61" transform="translate(177.929688 0)"/>
      <use xlink:href="#LiberationSans-6e" transform="translate(233.544922 0)"/>
      <use xlink:href="#LiberationSans-63" transform="translate(289.160156 0)"/>
      <use xlink:href="#LiberationSans-65" transform="translate(339.160156 0)"/>
      <use xlink:href="#LiberationSans-6d" transform="translate(394.775391 0)"/>
      <use xlink:href="#LiberationSans-65" transform="translate(478.076172 0)"/>
      <use xlink:href="#LiberationSans-6e" transform="translate(533.691406 0)"/>
      <use xlink:href="#LiberationSans-74" transform="translate(589.306641 0)"/>
      <use xlink:href="#LiberationSans-20" transform="translate(617.089844 0)"/>
      <use xlink:href="#LiberationSans-46" transform="translate(644.873047 0)"/>
      <use xlink:href="#LiberationSans-61" transform="translate(705.957031 0)"/>
      <use xlink:href="#LiberationSans-63" transform="translate(761.572266 0)"/>
      <use xlink:href="#LiberationSans-74" transform="translate(811.572266 0)"/>
      <use xlink:href="#LiberationSans-6f" transform="translate(839.355469 0)"/>
      <use xlink:href="#LiberationSans-72" transform="translate(894.970703 0)"/>
     </g>
    </g>
   </g>
   <g id="matplotlib.axis_4">
    <g id="ytick_7">
     <g id="line2d_37">
      <path d="M 313.621875 247.43625 
L 556.561875 247.43625 
" clip-path="url(#pe9d3a00b70)" style="fill: none; stroke: #cccccc; stroke-opacity: 0.3; stroke-width: 0.8; stroke-linecap: round"/>
     </g>
     <g id="line2d_38"/>
     <g id="text_23">
      <!-- 0 -->
      <g style="fill: #262626" transform="translate(304.560938 251.059687) scale(0.1 -0.1)">
       <use xlink:href="#LiberationSans-30"/>
      </g>
     </g>
    </g>
    <g id="ytick_8">
     <g id="line2d_39">
      <path d="M 313.621875 207.796112 
L 556.561875 207.796112 
" clip-path="url(#pe9d3a00b70)" style="fill: none; stroke: #cccccc; stroke-opacity: 0.3; stroke-width: 0.8; stroke-linecap: round"/>
     </g>
     <g id="line2d_40"/>
     <g id="text_24">
      <!-- 2 -->
      <g style="fill: #262626" transform="translate(304.560938 211.419549) scale(0.1 -0.1)">
       <use xlink:href="#LiberationSans-32"/>
      </g>
     </g>
    </g>
    <g id="ytick_9">
     <g id="line2d_41">
      <path d="M 313.621875 168.155973 
L 556.561875 168.155973 
" clip-path="url(#pe9d3a00b70)" style="fill: none; stroke: #cccccc; stroke-opacity: 0.3; stroke-width: 0.8; stroke-linecap: round"/>
     </g>
     <g id="line2d_42"/>
     <g id="text_25">
      <!-- 4 -->
      <g style="fill: #262626" transform="translate(304.560938 171.779411) scale(0.1 -0.1)">
       <use xlink:href="#LiberationSans-34"/>
      </g>
     </g>
    </g>
    <g id="ytick_10">
     <g id="line2d_43">
      <path d="M 313.621875 128.515835 
L 556.561875 128.515835 
" clip-path="url(#pe9d3a00b70)" style="fill: none; stroke: #cccccc; stroke-opacity: 0.3; stroke-width: 0.8; stroke-linecap: round"/>
     </g>
     <g id="line2d_44"/>
     <g id="text_26">
      <!-- 6 -->
      <g style="fill: #262626" transform="translate(304.560938 132.139272) scale(0.1 -0.1)">
       <use xlink:href="#LiberationSans-36"/>
      </g>
     </g>
    </g>
    <g id="ytick_11">
     <g id="line2d_45">
      <path d="M 313.621875 88.875696 
L 556.561875 88.875696 
" clip-path="url(#pe9d3a00b70)" style="fill: none; stroke: #cccccc; stroke-opacity: 0.3; stroke-width: 0.8; stroke-linecap: round"/>
     </g>
     <g id="line2d_46"/>
     <g id="text_27">
      <!-- 8 -->
      <g style="fill: #262626" transform="translate(304.560938 92.499134) scale(0.1 -0.1)">
       <use xlink:href="#LiberationSans-38"/>
      </g>
     </g>
    </g>
    <g id="ytick_12">
     <g id="line2d_47">
      <path d="M 313.621875 49.235558 
L 556.561875 49.235558 
" clip-path="url(#pe9d3a00b70)" style="fill: none; stroke: #cccccc; stroke-opacity: 0.3; stroke-width: 0.8; stroke-linecap: round"/>
     </g>
     <g id="line2d_48"/>
     <g id="text_28">
      <!-- 10 -->
      <g style="fill: #262626" transform="translate(299 52.858995) scale(0.1 -0.1)">
       <use xlink:href="#LiberationSans-31"/>
       <use xlink:href="#LiberationSans-30" transform="translate(55.615234 0)"/>
      </g>
     </g>
    </g>
    <g id="text_29">
     <!-- Density -->
     <g style="fill: #262626" transform="translate(292.925 151.338125) rotate(-90) scale(0.1 -0.1)">
      <defs>
       <path id="LiberationSans-44" d="M 4316 2247 
Q 4316 1566 4050 1055 
Q 3784 544 3296 272 
Q 2809 0 2172 0 
L 525 0 
L 525 4403 
L 1981 4403 
Q 3100 4403 3708 3842 
Q 4316 3281 4316 2247 
z
M 3716 2247 
Q 3716 3066 3267 3495 
Q 2819 3925 1969 3925 
L 1122 3925 
L 1122 478 
L 2103 478 
Q 2588 478 2955 690 
Q 3322 903 3519 1303 
Q 3716 1703 3716 2247 
z
" transform="scale(0.015625)"/>
      </defs>
      <use xlink:href="#LiberationSans-44"/>
      <use xlink:href="#LiberationSans-65" transform="translate(72.216797 0)"/>
      <use xlink:href="#LiberationSans-6e" transform="translate(127.832031 0)"/>
      <use xlink:href="#LiberationSans-73" transform="translate(183.447266 0)"/>
      <use xlink:href="#LiberationSans-69" transform="translate(233.447266 0)"/>
      <use xlink:href="#LiberationSans-74" transform="translate(255.664062 0)"/>
      <use xlink:href="#LiberationSans-79" transform="translate(283.447266 0)"/>
     </g>
    </g>
   </g>
   <g id="patch_8">
    <path d="M 324.664602 247.43625 
L 329.081693 247.43625 
L 329.081693 32.63625 
L 324.664602 32.63625 
z
" clip-path="url(#pe9d3a00b70)" style="fill: #008000; opacity: 0.7; stroke: #006400; stroke-linejoin: miter"/>
   </g>
   <g id="patch_9">
    <path d="M 329.081693 247.43625 
L 333.498784 247.43625 
L 333.498784 230.217565 
L 329.081693 230.217565 
z
" clip-path="url(#pe9d3a00b70)" style="fill: #008000; opacity: 0.7; stroke: #006400; stroke-linejoin: miter"/>
   </g>
   <g id="patch_10">
    <path d="M 333.498784 247.43625 
L 337.915875 247.43625 
L 337.915875 230.589191 
L 333.498784 230.589191 
z
" clip-path="url(#pe9d3a00b70)" style="fill: #008000; opacity: 0.7; stroke: #006400; stroke-linejoin: miter"/>
   </g>
   <g id="patch_11">
    <path d="M 337.915875 247.43625 
L 342.332966 247.43625 
L 342.332966 226.501302 
L 337.915875 226.501302 
z
" clip-path="url(#pe9d3a00b70)" style="fill: #008000; opacity: 0.7; stroke: #006400; stroke-linejoin: miter"/>
   </g>
   <g id="patch_12">
    <path d="M 342.332966 247.43625 
L 346.750057 247.43625 
L 346.750057 227.863932 
L 342.332966 227.863932 
z
" clip-path="url(#pe9d3a00b70)" style="fill: #008000; opacity: 0.7; stroke: #006400; stroke-linejoin: miter"/>
   </g>
   <g id="patch_13">
    <path d="M 346.750057 247.43625 
L 351.167148 247.43625 
L 351.167148 229.598188 
L 346.750057 229.598188 
z
" clip-path="url(#pe9d3a00b70)" style="fill: #008000; opacity: 0.7; stroke: #006400; stroke-linejoin: miter"/>
   </g>
   <g id="patch_14">
    <path d="M 351.167148 247.43625 
L 355.584239 247.43625 
L 355.584239 225.758049 
L 351.167148 225.758049 
z
" clip-path="url(#pe9d3a00b70)" style="fill: #008000; opacity: 0.7; stroke: #006400; stroke-linejoin: miter"/>
   </g>
   <g id="patch_15">
    <path d="M 355.584239 247.43625 
L 360.00133 247.43625 
L 360.00133 224.271544 
L 355.584239 224.271544 
z
" clip-path="url(#pe9d3a00b70)" style="fill: #008000; opacity: 0.7; stroke: #006400; stroke-linejoin: miter"/>
   </g>
   <g id="patch_16">
    <path d="M 360.00133 247.43625 
L 364.41842 247.43625 
L 364.41842 224.890921 
L 360.00133 224.890921 
z
" clip-path="url(#pe9d3a00b70)" style="fill: #008000; opacity: 0.7; stroke: #006400; stroke-linejoin: miter"/>
   </g>
   <g id="patch_17">
    <path d="M 364.41842 247.43625 
L 368.835511 247.43625 
L 368.835511 224.023793 
L 364.41842 224.023793 
z
" clip-path="url(#pe9d3a00b70)" style="fill: #008000; opacity: 0.7; stroke: #006400; stroke-linejoin: miter"/>
   </g>
   <g id="patch_18">
    <path d="M 368.835511 247.43625 
L 373.252602 247.43625 
L 373.252602 223.776042 
L 368.835511 223.776042 
z
" clip-path="url(#pe9d3a00b70)" style="fill: #008000; opacity: 0.7; stroke: #006400; stroke-linejoin: miter"/>
   </g>
   <g id="patch_19">
    <path d="M 373.252602 247.43625 
L 377.669693 247.43625 
L 377.669693 222.289537 
L 373.252602 222.289537 
z
" clip-path="url(#pe9d3a00b70)" style="fill: #008000; opacity: 0.7; stroke: #006400; stroke-linejoin: miter"/>
   </g>
   <g id="patch_20">
    <path d="M 377.669693 247.43625 
L 382.086784 247.43625 
L 382.086784 222.785039 
L 377.669693 222.785039 
z
" clip-path="url(#pe9d3a00b70)" style="fill: #008000; opacity: 0.7; stroke: #006400; stroke-linejoin: miter"/>
   </g>
   <g id="patch_21">
    <path d="M 382.086784 247.43625 
L 386.503875 247.43625 
L 386.503875 223.528292 
L 382.086784 223.528292 
z
" clip-path="url(#pe9d3a00b70)" style="fill: #008000; opacity: 0.7; stroke: #006400; stroke-linejoin: miter"/>
   </g>
   <g id="patch_22">
    <path d="M 386.503875 247.43625 
L 390.920966 247.43625 
L 390.920966 219.688153 
L 386.503875 219.688153 
z
" clip-path="url(#pe9d3a00b70)" style="fill: #008000; opacity: 0.7; stroke: #006400; stroke-linejoin: miter"/>
   </g>
   <g id="patch_23">
    <path d="M 390.920966 247.43625 
L 395.338057 247.43625 
L 395.338057 221.67016 
L 390.920966 221.67016 
z
" clip-path="url(#pe9d3a00b70)" style="fill: #008000; opacity: 0.7; stroke: #006400; stroke-linejoin: miter"/>
   </g>
   <g id="patch_24">
    <path d="M 395.338057 247.43625 
L 399.755148 247.43625 
L 399.755148 223.156665 
L 395.338057 223.156665 
z
" clip-path="url(#pe9d3a00b70)" style="fill: #008000; opacity: 0.7; stroke: #006400; stroke-linejoin: miter"/>
   </g>
   <g id="patch_25">
    <path d="M 399.755148 247.43625 
L 404.172239 247.43625 
L 404.172239 220.926907 
L 399.755148 220.926907 
z
" clip-path="url(#pe9d3a00b70)" style="fill: #008000; opacity: 0.7; stroke: #006400; stroke-linejoin: miter"/>
   </g>
   <g id="patch_26">
    <path d="M 404.172239 247.43625 
L 408.58933 247.43625 
L 408.58933 220.431406 
L 404.172239 220.431406 
z
" clip-path="url(#pe9d3a00b70)" style="fill: #008000; opacity: 0.7; stroke: #006400; stroke-linejoin: miter"/>
   </g>
   <g id="patch_27">
    <path d="M 408.58933 247.43625 
L 413.00642 247.43625 
L 413.00642 221.174658 
L 408.58933 221.174658 
z
" clip-path="url(#pe9d3a00b70)" style="fill: #008000; opacity: 0.7; stroke: #006400; stroke-linejoin: miter"/>
   </g>
   <g id="patch_28">
    <path d="M 413.00642 247.43625 
L 417.423511 247.43625 
L 417.423511 221.546285 
L 413.00642 221.546285 
z
" clip-path="url(#pe9d3a00b70)" style="fill: #008000; opacity: 0.7; stroke: #006400; stroke-linejoin: miter"/>
   </g>
   <g id="patch_29">
    <path d="M 417.423511 247.43625 
L 421.840602 247.43625 
L 421.840602 223.652167 
L 417.423511 223.652167 
z
" clip-path="url(#pe9d3a00b70)" style="fill: #008000; opacity: 0.7; stroke: #006400; stroke-linejoin: miter"/>
   </g>
   <g id="patch_30">
    <path d="M 421.840602 247.43625 
L 426.257693 247.43625 
L 426.257693 218.077772 
L 421.840602 218.077772 
z
" clip-path="url(#pe9d3a00b70)" style="fill: #008000; opacity: 0.7; stroke: #006400; stroke-linejoin: miter"/>
   </g>
   <g id="patch_31">
    <path d="M 426.257693 247.43625 
L 430.674784 247.43625 
L 430.674784 223.404416 
L 426.257693 223.404416 
z
" clip-path="url(#pe9d3a00b70)" style="fill: #008000; opacity: 0.7; stroke: #006400; stroke-linejoin: miter"/>
   </g>
   <g id="patch_32">
    <path d="M 430.674784 247.43625 
L 435.091875 247.43625 
L 435.091875 219.935904 
L 430.674784 219.935904 
z
" clip-path="url(#pe9d3a00b70)" style="fill: #008000; opacity: 0.7; stroke: #006400; stroke-linejoin: miter"/>
   </g>
   <g id="patch_33">
    <path d="M 435.091875 247.43625 
L 439.508966 247.43625 
L 439.508966 224.519295 
L 435.091875 224.519295 
z
" clip-path="url(#pe9d3a00b70)" style="fill: #008000; opacity: 0.7; stroke: #006400; stroke-linejoin: miter"/>
   </g>
   <g id="patch_34">
    <path d="M 439.508966 247.43625 
L 443.926057 247.43625 
L 443.926057 221.546285 
L 439.508966 221.546285 
z
" clip-path="url(#pe9d3a00b70)" style="fill: #008000; opacity: 0.7; stroke: #006400; stroke-linejoin: miter"/>
   </g>
   <g id="patch_35">
    <path d="M 443.926057 247.43625 
L 448.343148 247.43625 
L 448.343148 223.528292 
L 443.926057 223.528292 
z
" clip-path="url(#pe9d3a00b70)" style="fill: #008000; opacity: 0.7; stroke: #006400; stroke-linejoin: miter"/>
   </g>
   <g id="patch_36">
    <path d="M 448.343148 247.43625 
L 452.760239 247.43625 
L 452.760239 224.271544 
L 448.343148 224.271544 
z
" clip-path="url(#pe9d3a00b70)" style="fill: #008000; opacity: 0.7; stroke: #006400; stroke-linejoin: miter"/>
   </g>
   <g id="patch_37">
    <path d="M 452.760239 247.43625 
L 457.17733 247.43625 
L 457.17733 226.377426 
L 452.760239 226.377426 
z
" clip-path="url(#pe9d3a00b70)" style="fill: #008000; opacity: 0.7; stroke: #006400; stroke-linejoin: miter"/>
   </g>
   <g id="patch_38">
    <path d="M 457.17733 247.43625 
L 461.59442 247.43625 
L 461.59442 225.758049 
L 457.17733 225.758049 
z
" clip-path="url(#pe9d3a00b70)" style="fill: #008000; opacity: 0.7; stroke: #006400; stroke-linejoin: miter"/>
   </g>
   <g id="patch_39">
    <path d="M 461.59442 247.43625 
L 466.011511 247.43625 
L 466.011511 224.39542 
L 461.59442 224.39542 
z
" clip-path="url(#pe9d3a00b70)" style="fill: #008000; opacity: 0.7; stroke: #006400; stroke-linejoin: miter"/>
   </g>
   <g id="patch_40">
    <path d="M 466.011511 247.43625 
L 470.428602 247.43625 
L 470.428602 226.996804 
L 466.011511 226.996804 
z
" clip-path="url(#pe9d3a00b70)" style="fill: #008000; opacity: 0.7; stroke: #006400; stroke-linejoin: miter"/>
   </g>
   <g id="patch_41">
    <path d="M 470.428602 247.43625 
L 474.845693 247.43625 
L 474.845693 231.456319 
L 470.428602 231.456319 
z
" clip-path="url(#pe9d3a00b70)" style="fill: #008000; opacity: 0.7; stroke: #006400; stroke-linejoin: miter"/>
   </g>
   <g id="patch_42">
    <path d="M 474.845693 247.43625 
L 479.262784 247.43625 
L 479.262784 228.483309 
L 474.845693 228.483309 
z
" clip-path="url(#pe9d3a00b70)" style="fill: #008000; opacity: 0.7; stroke: #006400; stroke-linejoin: miter"/>
   </g>
   <g id="patch_43">
    <path d="M 479.262784 247.43625 
L 483.679875 247.43625 
L 483.679875 231.332444 
L 479.262784 231.332444 
z
" clip-path="url(#pe9d3a00b70)" style="fill: #008000; opacity: 0.7; stroke: #006400; stroke-linejoin: miter"/>
   </g>
   <g id="patch_44">
    <path d="M 483.679875 247.43625 
L 488.096966 247.43625 
L 488.096966 230.465316 
L 483.679875 230.465316 
z
" clip-path="url(#pe9d3a00b70)" style="fill: #008000; opacity: 0.7; stroke: #006400; stroke-linejoin: miter"/>
   </g>
   <g id="patch_45">
    <path d="M 488.096966 247.43625 
L 492.514057 247.43625 
L 492.514057 233.686077 
L 488.096966 233.686077 
z
" clip-path="url(#pe9d3a00b70)" style="fill: #008000; opacity: 0.7; stroke: #006400; stroke-linejoin: miter"/>
   </g>
   <g id="patch_46">
    <path d="M 492.514057 247.43625 
L 496.931148 247.43625 
L 496.931148 230.713067 
L 492.514057 230.713067 
z
" clip-path="url(#pe9d3a00b70)" style="fill: #008000; opacity: 0.7; stroke: #006400; stroke-linejoin: miter"/>
   </g>
   <g id="patch_47">
    <path d="M 496.931148 247.43625 
L 501.348239 247.43625 
L 501.348239 233.933828 
L 496.931148 233.933828 
z
" clip-path="url(#pe9d3a00b70)" style="fill: #008000; opacity: 0.7; stroke: #006400; stroke-linejoin: miter"/>
   </g>
   <g id="patch_48">
    <path d="M 501.348239 247.43625 
L 505.76533 247.43625 
L 505.76533 233.562202 
L 501.348239 233.562202 
z
" clip-path="url(#pe9d3a00b70)" style="fill: #008000; opacity: 0.7; stroke: #006400; stroke-linejoin: miter"/>
   </g>
   <g id="patch_49">
    <path d="M 505.76533 247.43625 
L 510.18242 247.43625 
L 510.18242 233.190575 
L 505.76533 233.190575 
z
" clip-path="url(#pe9d3a00b70)" style="fill: #008000; opacity: 0.7; stroke: #006400; stroke-linejoin: miter"/>
   </g>
   <g id="patch_50">
    <path d="M 510.18242 247.43625 
L 514.599511 247.43625 
L 514.599511 236.03971 
L 510.18242 236.03971 
z
" clip-path="url(#pe9d3a00b70)" style="fill: #008000; opacity: 0.7; stroke: #006400; stroke-linejoin: miter"/>
   </g>
   <g id="patch_51">
    <path d="M 514.599511 247.43625 
L 519.016602 247.43625 
L 519.016602 237.650091 
L 514.599511 237.650091 
z
" clip-path="url(#pe9d3a00b70)" style="fill: #008000; opacity: 0.7; stroke: #006400; stroke-linejoin: miter"/>
   </g>
   <g id="patch_52">
    <path d="M 519.016602 247.43625 
L 523.433693 247.43625 
L 523.433693 236.03971 
L 519.016602 236.03971 
z
" clip-path="url(#pe9d3a00b70)" style="fill: #008000; opacity: 0.7; stroke: #006400; stroke-linejoin: miter"/>
   </g>
   <g id="patch_53">
    <path d="M 523.433693 247.43625 
L 527.850784 247.43625 
L 527.850784 238.145593 
L 523.433693 238.145593 
z
" clip-path="url(#pe9d3a00b70)" style="fill: #008000; opacity: 0.7; stroke: #006400; stroke-linejoin: miter"/>
   </g>
   <g id="patch_54">
    <path d="M 527.850784 247.43625 
L 532.267875 247.43625 
L 532.267875 238.641094 
L 527.850784 238.641094 
z
" clip-path="url(#pe9d3a00b70)" style="fill: #008000; opacity: 0.7; stroke: #006400; stroke-linejoin: miter"/>
   </g>
   <g id="patch_55">
    <path d="M 532.267875 247.43625 
L 536.684966 247.43625 
L 536.684966 239.755973 
L 532.267875 239.755973 
z
" clip-path="url(#pe9d3a00b70)" style="fill: #008000; opacity: 0.7; stroke: #006400; stroke-linejoin: miter"/>
   </g>
   <g id="patch_56">
    <path d="M 536.684966 247.43625 
L 541.102057 247.43625 
L 541.102057 239.260471 
L 536.684966 239.260471 
z
" clip-path="url(#pe9d3a00b70)" style="fill: #008000; opacity: 0.7; stroke: #006400; stroke-linejoin: miter"/>
   </g>
   <g id="patch_57">
    <path d="M 541.102057 247.43625 
L 545.519148 247.43625 
L 545.519148 180.915143 
L 541.102057 180.915143 
z
" clip-path="url(#pe9d3a00b70)" style="fill: #008000; opacity: 0.7; stroke: #006400; stroke-linejoin: miter"/>
   </g>
   <g id="line2d_49">
    <path d="M 407.485057 247.43625 
L 407.485057 21.89625 
" clip-path="url(#pe9d3a00b70)" style="fill: none; stroke-dasharray: 7.4,3.2; stroke-dashoffset: 0; stroke: #ff0000; stroke-width: 2"/>
   </g>
   <g id="line2d_50">
    <path d="M 324.664602 247.43625 
L 324.664602 21.89625 
" clip-path="url(#pe9d3a00b70)" style="fill: none; stroke-dasharray: 2,3.3; stroke-dashoffset: 0; stroke: #ffa500; stroke-width: 2"/>
   </g>
   <g id="line2d_51">
    <path d="M 545.519148 247.43625 
L 545.519148 21.89625 
" clip-path="url(#pe9d3a00b70)" style="fill: none; stroke-dasharray: 2,3.3; stroke-dashoffset: 0; stroke: #ffa500; stroke-width: 2"/>
   </g>
   <g id="patch_58">
    <path d="M 313.621875 247.43625 
L 313.621875 21.89625 
" style="fill: none; stroke: #cccccc; stroke-linejoin: miter; stroke-linecap: square"/>
   </g>
   <g id="patch_59">
    <path d="M 556.561875 247.43625 
L 556.561875 21.89625 
" style="fill: none; stroke: #cccccc; stroke-linejoin: miter; stroke-linecap: square"/>
   </g>
   <g id="patch_60">
    <path d="M 313.621875 247.43625 
L 556.561875 247.43625 
" style="fill: none; stroke: #cccccc; stroke-linejoin: miter; stroke-linecap: square"/>
   </g>
   <g id="patch_61">
    <path d="M 313.621875 21.89625 
L 556.561875 21.89625 
" style="fill: none; stroke: #cccccc; stroke-linejoin: miter; stroke-linecap: square"/>
   </g>
   <g id="text_30">
    <!-- Factor Distribution (typical image) -->
    <g style="fill: #262626" transform="translate(345.735938 15.89625) scale(0.12 -0.12)">
     <defs>
      <path id="LiberationSans-62" d="M 3291 1706 
Q 3291 -63 2047 -63 
Q 1663 -63 1408 76 
Q 1153 216 994 525 
L 988 525 
Q 988 428 975 229 
Q 963 31 956 0 
L 413 0 
Q 431 169 431 697 
L 431 4638 
L 994 4638 
L 994 3316 
Q 994 3113 981 2838 
L 994 2838 
Q 1150 3163 1408 3303 
Q 1666 3444 2047 3444 
Q 2688 3444 2989 3012 
Q 3291 2581 3291 1706 
z
M 2700 1688 
Q 2700 2397 2512 2703 
Q 2325 3009 1903 3009 
Q 1428 3009 1211 2684 
Q 994 2359 994 1653 
Q 994 988 1206 670 
Q 1419 353 1897 353 
Q 2322 353 2511 667 
Q 2700 981 2700 1688 
z
" transform="scale(0.015625)"/>
      <path id="LiberationSans-28" d="M 397 1663 
Q 397 2566 680 3284 
Q 963 4003 1550 4638 
L 2094 4638 
Q 1509 3988 1236 3256 
Q 963 2525 963 1656 
Q 963 791 1233 62 
Q 1503 -666 2094 -1325 
L 1550 -1325 
Q 959 -688 678 32 
Q 397 753 397 1650 
L 397 1663 
z
" transform="scale(0.015625)"/>
      <path id="LiberationSans-67" d="M 1713 -1328 
Q 1159 -1328 831 -1111 
Q 503 -894 409 -494 
L 975 -413 
Q 1031 -647 1223 -773 
Q 1416 -900 1728 -900 
Q 2569 -900 2569 84 
L 2569 628 
L 2563 628 
Q 2403 303 2125 139 
Q 1847 -25 1475 -25 
Q 853 -25 561 387 
Q 269 800 269 1684 
Q 269 2581 583 3007 
Q 897 3434 1538 3434 
Q 1897 3434 2161 3270 
Q 2425 3106 2569 2803 
L 2575 2803 
Q 2575 2897 2587 3128 
Q 2600 3359 2613 3381 
L 3147 3381 
Q 3128 3213 3128 2681 
L 3128 97 
Q 3128 -1328 1713 -1328 
z
M 2569 1691 
Q 2569 2103 2456 2401 
Q 2344 2700 2139 2858 
Q 1934 3016 1675 3016 
Q 1244 3016 1047 2703 
Q 850 2391 850 1691 
Q 850 997 1034 694 
Q 1219 391 1666 391 
Q 1931 391 2137 547 
Q 2344 703 2456 995 
Q 2569 1288 2569 1691 
z
" transform="scale(0.015625)"/>
      <path id="LiberationSans-29" d="M 1734 1650 
Q 1734 747 1451 28 
Q 1169 -691 581 -1325 
L 38 -1325 
Q 625 -669 897 57 
Q 1169 784 1169 1656 
Q 1169 2528 895 3256 
Q 622 3984 38 4638 
L 581 4638 
Q 1172 4000 1453 3279 
Q 1734 2559 1734 1663 
L 1734 1650 
z
" transform="scale(0.015625)"/>
     </defs>
     <use xlink:href="#LiberationSans-46"/>
     <use xlink:href="#LiberationSans-61" transform="translate(61.083984 0)"/>
     <use xlink:href="#LiberationSans-63" transform="translate(116.699219 0)"/>
     <use xlink:href="#LiberationSans-74" transform="translate(166.699219 0)"/>
     <use xlink:href="#LiberationSans-6f" transform="translate(194.482422 0)"/>
     <use xlink:href="#LiberationSans-72" transform="translate(250.097656 0)"/>
     <use xlink:href="#LiberationSans-20" transform="translate(283.398438 0)"/>
     <use xlink:href="#LiberationSans-44" transform="translate(311.181641 0)"/>
     <use xlink:href="#LiberationSans-69" transform="translate(383.398438 0)"/>
     <use xlink:href="#LiberationSans-73" transform="translate(405.615234 0)"/>
     <use xlink:href="#LiberationSans-74" transform="translate(455.615234 0)"/>
     <use xlink:href="#LiberationSans-72" transform="translate(483.398438 0)"/>
     <use xlink:href="#LiberationSans-69" transform="translate(516.699219 0)"/>
     <use xlink:href="#LiberationSans-62" transform="translate(538.916016 0)"/>
     <use xlink:href="#LiberationSans-75" transform="translate(594.53125 0)"/>
     <use xlink:href="#LiberationSans-74" transform="translate(650.146484 0)"/>
     <use xlink:href="#LiberationSans-69" transform="translate(677.929688 0)"/>
     <use xlink:href="#LiberationSans-6f" transform="translate(700.146484 0)"/>
     <use xlink:href="#LiberationSans-6e" transform="translate(755.761719 0)"/>
     <use xlink:href="#LiberationSans-20" transform="translate(811.376953 0)"/>
     <use xlink:href="#LiberationSans-28" transform="translate(839.160156 0)"/>
     <use xlink:href="#LiberationSans-74" transform="translate(872.460938 0)"/>
     <use xlink:href="#LiberationSans-79" transform="translate(900.244141 0)"/>
     <use xlink:href="#LiberationSans-70" transform="translate(950.244141 0)"/>
     <use xlink:href="#LiberationSans-69" transform="translate(1005.859375 0)"/>
     <use xlink:href="#LiberationSans-63" transform="translate(1028.076172 0)"/>
     <use xlink:href="#LiberationSans-61" transform="translate(1078.076172 0)"/>
     <use xlink:href="#LiberationSans-6c" transform="translate(1133.691406 0)"/>
     <use xlink:href="#LiberationSans-20" transform="translate(1155.908203 0)"/>
     <use xlink:href="#LiberationSans-69" transform="translate(1183.691406 0)"/>
     <use xlink:href="#LiberationSans-6d" transform="translate(1205.908203 0)"/>
     <use xlink:href="#LiberationSans-61" transform="translate(1289.208984 0)"/>
     <use xlink:href="#LiberationSans-67" transform="translate(1344.824219 0)"/>
     <use xlink:href="#LiberationSans-65" transform="translate(1400.439453 0)"/>
     <use xlink:href="#LiberationSans-29" transform="translate(1456.054688 0)"/>
    </g>
   </g>
   <g id="legend_2">
    <g id="line2d_52">
     <path d="M 470.088437 34.643125 
L 480.088437 34.643125 
L 490.088437 34.643125 
" style="fill: none; stroke-dasharray: 7.4,3.2; stroke-dashoffset: 0; stroke: #ff0000; stroke-width: 2"/>
    </g>
    <g id="text_31">
     <!-- No change -->
     <g style="fill: #262626" transform="translate(498.088437 38.143125) scale(0.1 -0.1)">
      <defs>
       <path id="LiberationSans-4e" d="M 3381 0 
L 1025 3750 
L 1041 3447 
L 1056 2925 
L 1056 0 
L 525 0 
L 525 4403 
L 1219 4403 
L 3600 628 
Q 3563 1241 3563 1516 
L 3563 4403 
L 4100 4403 
L 4100 0 
L 3381 0 
z
" transform="scale(0.015625)"/>
      </defs>
      <use xlink:href="#LiberationSans-4e"/>
      <use xlink:href="#LiberationSans-6f" transform="translate(72.216797 0)"/>
      <use xlink:href="#LiberationSans-20" transform="translate(127.832031 0)"/>
      <use xlink:href="#LiberationSans-63" transform="translate(155.615234 0)"/>
      <use xlink:href="#LiberationSans-68" transform="translate(205.615234 0)"/>
      <use xlink:href="#LiberationSans-61" transform="translate(261.230469 0)"/>
      <use xlink:href="#LiberationSans-6e" transform="translate(316.845703 0)"/>
      <use xlink:href="#LiberationSans-67" transform="translate(372.460938 0)"/>
      <use xlink:href="#LiberationSans-65" transform="translate(428.076172 0)"/>
     </g>
    </g>
    <g id="line2d_53">
     <path d="M 470.088437 48.965 
L 480.088437 48.965 
L 490.088437 48.965 
" style="fill: none; stroke-dasharray: 2,3.3; stroke-dashoffset: 0; stroke: #ffa500; stroke-width: 2"/>
    </g>
    <g id="text_32">
     <!-- Min bound -->
     <g style="fill: #262626" transform="translate(498.088437 52.465) scale(0.1 -0.1)">
      <defs>
       <path id="LiberationSans-4d" d="M 4269 0 
L 4269 2938 
Q 4269 3425 4297 3875 
Q 4144 3316 4022 3000 
L 2884 0 
L 2466 0 
L 1313 3000 
L 1138 3531 
L 1034 3875 
L 1044 3528 
L 1056 2938 
L 1056 0 
L 525 0 
L 525 4403 
L 1309 4403 
L 2481 1350 
Q 2544 1166 2601 955 
Q 2659 744 2678 650 
Q 2703 775 2783 1029 
Q 2863 1284 2891 1350 
L 4041 4403 
L 4806 4403 
L 4806 0 
L 4269 0 
z
" transform="scale(0.015625)"/>
      </defs>
      <use xlink:href="#LiberationSans-4d"/>
      <use xlink:href="#LiberationSans-69" transform="translate(83.300781 0)"/>
      <use xlink:href="#LiberationSans-6e" transform="translate(105.517578 0)"/>
      <use xlink:href="#LiberationSans-20" transform="translate(161.132812 0)"/>
      <use xlink:href="#LiberationSans-62" transform="translate(188.916016 0)"/>
      <use xlink:href="#LiberationSans-6f" transform="translate(244.53125 0)"/>
      <use xlink:href="#LiberationSans-75" transform="translate(300.146484 0)"/>
      <use xlink:href="#LiberationSans-6e" transform="translate(355.761719 0)"/>
      <use xlink:href="#LiberationSans-64" transform="translate(411.376953 0)"/>
     </g>
    </g>
    <g id="line2d_54">
     <path d="M 470.088437 63.286875 
L 480.088437 63.286875 
L 490.088437 63.286875 
" style="fill: none; stroke-dasharray: 2,3.3; stroke-dashoffset: 0; stroke: #ffa500; stroke-width: 2"/>
    </g>
    <g id="text_33">
     <!-- Max bound -->
     <g style="fill: #262626" transform="translate(498.088437 66.786875) scale(0.1 -0.1)">
      <defs>
       <path id="LiberationSans-78" d="M 2503 0 
L 1594 1388 
L 678 0 
L 72 0 
L 1275 1738 
L 128 3381 
L 750 3381 
L 1594 2066 
L 2431 3381 
L 3059 3381 
L 1913 1744 
L 3131 0 
L 2503 0 
z
" transform="scale(0.015625)"/>
      </defs>
      <use xlink:href="#LiberationSans-4d"/>
      <use xlink:href="#LiberationSans-61" transform="translate(83.300781 0)"/>
      <use xlink:href="#LiberationSans-78" transform="translate(138.916016 0)"/>
      <use xlink:href="#LiberationSans-20" transform="translate(188.916016 0)"/>
      <use xlink:href="#LiberationSans-62" transform="translate(216.699219 0)"/>
      <use xlink:href="#LiberationSans-6f" transform="translate(272.314453 0)"/>
      <use xlink:href="#LiberationSans-75" transform="translate(327.929688 0)"/>
      <use xlink:href="#LiberationSans-6e" transform="translate(383.544922 0)"/>
      <use xlink:href="#LiberationSans-64" transform="translate(439.160156 0)"/>
     </g>
    </g>
   </g>
  </g>
  <g id="axes_3">
   <g id="patch_62">
    <path d="M 606.721875 247.43625 
L 832.261875 247.43625 
L 832.261875 21.89625 
L 606.721875 21.89625 
z
" style="fill: #ffffff"/>
   </g>
   <g id="matplotlib.axis_5">
    <g id="xtick_11">
     <g id="line2d_55">
      <path d="M 616.973693 247.43625 
L 616.973693 21.89625 
" clip-path="url(#p69f4b20621)" style="fill: none; stroke: #cccccc; stroke-opacity: 0.3; stroke-width: 0.8; stroke-linecap: round"/>
     </g>
     <g id="line2d_56"/>
     <g id="text_34">
      <!-- 0.0 -->
      <g style="fill: #262626" transform="translate(610.023693 258.183125) scale(0.1 -0.1)">
       <use xlink:href="#LiberationSans-30"/>
       <use xlink:href="#LiberationSans-2e" transform="translate(55.615234 0)"/>
       <use xlink:href="#LiberationSans-30" transform="translate(83.398438 0)"/>
      </g>
     </g>
    </g>
    <g id="xtick_12">
     <g id="line2d_57">
      <path d="M 657.980966 247.43625 
L 657.980966 21.89625 
" clip-path="url(#p69f4b20621)" style="fill: none; stroke: #cccccc; stroke-opacity: 0.3; stroke-width: 0.8; stroke-linecap: round"/>
     </g>
     <g id="line2d_58"/>
     <g id="text_35">
      <!-- 0.2 -->
      <g style="fill: #262626" transform="translate(651.030966 258.183125) scale(0.1 -0.1)">
       <use xlink:href="#LiberationSans-30"/>
       <use xlink:href="#LiberationSans-2e" transform="translate(55.615234 0)"/>
       <use xlink:href="#LiberationSans-32" transform="translate(83.398438 0)"/>
      </g>
     </g>
    </g>
    <g id="xtick_13">
     <g id="line2d_59">
      <path d="M 698.988239 247.43625 
L 698.988239 21.89625 
" clip-path="url(#p69f4b20621)" style="fill: none; stroke: #cccccc; stroke-opacity: 0.3; stroke-width: 0.8; stroke-linecap: round"/>
     </g>
     <g id="line2d_60"/>
     <g id="text_36">
      <!-- 0.4 -->
      <g style="fill: #262626" transform="translate(692.038239 258.183125) scale(0.1 -0.1)">
       <use xlink:href="#LiberationSans-30"/>
       <use xlink:href="#LiberationSans-2e" transform="translate(55.615234 0)"/>
       <use xlink:href="#LiberationSans-34" transform="translate(83.398438 0)"/>
      </g>
     </g>
    </g>
    <g id="xtick_14">
     <g id="line2d_61">
      <path d="M 739.995511 247.43625 
L 739.995511 21.89625 
" clip-path="url(#p69f4b20621)" style="fill: none; stroke: #cccccc; stroke-opacity: 0.3; stroke-width: 0.8; stroke-linecap: round"/>
     </g>
     <g id="line2d_62"/>
     <g id="text_37">
      <!-- 0.6 -->
      <g style="fill: #262626" transform="translate(733.045511 258.183125) scale(0.1 -0.1)">
       <use xlink:href="#LiberationSans-30"/>
       <use xlink:href="#LiberationSans-2e" transform="translate(55.615234 0)"/>
       <use xlink:href="#LiberationSans-36" transform="translate(83.398438 0)"/>
      </g>
     </g>
    </g>
    <g id="xtick_15">
     <g id="line2d_63">
      <path d="M 781.002784 247.43625 
L 781.002784 21.89625 
" clip-path="url(#p69f4b20621)" style="fill: none; stroke: #cccccc; stroke-opacity: 0.3; stroke-width: 0.8; stroke-linecap: round"/>
     </g>
     <g id="line2d_64"/>
     <g id="text_38">
      <!-- 0.8 -->
      <g style="fill: #262626" transform="translate(774.052784 258.183125) scale(0.1 -0.1)">
       <use xlink:href="#LiberationSans-30"/>
       <use xlink:href="#LiberationSans-2e" transform="translate(55.615234 0)"/>
       <use xlink:href="#LiberationSans-38" transform="translate(83.398438 0)"/>
      </g>
     </g>
    </g>
    <g id="xtick_16">
     <g id="line2d_65">
      <path d="M 822.010057 247.43625 
L 822.010057 21.89625 
" clip-path="url(#p69f4b20621)" style="fill: none; stroke: #cccccc; stroke-opacity: 0.3; stroke-width: 0.8; stroke-linecap: round"/>
     </g>
     <g id="line2d_66"/>
     <g id="text_39">
      <!-- 1.0 -->
      <g style="fill: #262626" transform="translate(815.060057 258.183125) scale(0.1 -0.1)">
       <use xlink:href="#LiberationSans-31"/>
       <use xlink:href="#LiberationSans-2e" transform="translate(55.615234 0)"/>
       <use xlink:href="#LiberationSans-30" transform="translate(83.398438 0)"/>
      </g>
     </g>
    </g>
    <g id="text_40">
     <!-- Encoded Value -->
     <g style="fill: #262626" transform="translate(685.946562 271.505) scale(0.1 -0.1)">
      <defs>
       <path id="LiberationSans-56" d="M 2444 0 
L 1825 0 
L 28 4403 
L 656 4403 
L 1875 1303 
L 2138 525 
L 2400 1303 
L 3613 4403 
L 4241 4403 
L 2444 0 
z
" transform="scale(0.015625)"/>
      </defs>
      <use xlink:href="#LiberationSans-45"/>
      <use xlink:href="#LiberationSans-6e" transform="translate(66.699219 0)"/>
      <use xlink:href="#LiberationSans-63" transform="translate(122.314453 0)"/>
      <use xlink:href="#LiberationSans-6f" transform="translate(172.314453 0)"/>
      <use xlink:href="#LiberationSans-64" transform="translate(227.929688 0)"/>
      <use xlink:href="#LiberationSans-65" transform="translate(283.544922 0)"/>
      <use xlink:href="#LiberationSans-64" transform="translate(339.160156 0)"/>
      <use xlink:href="#LiberationSans-20" transform="translate(394.775391 0)"/>
      <use xlink:href="#LiberationSans-56" transform="translate(422.558594 0)"/>
      <use xlink:href="#LiberationSans-61" transform="translate(481.882812 0)"/>
      <use xlink:href="#LiberationSans-6c" transform="translate(537.498047 0)"/>
      <use xlink:href="#LiberationSans-75" transform="translate(559.714844 0)"/>
      <use xlink:href="#LiberationSans-65" transform="translate(615.330078 0)"/>
     </g>
    </g>
   </g>
   <g id="matplotlib.axis_6">
    <g id="ytick_13">
     <g id="line2d_67">
      <path d="M 606.721875 237.184432 
L 832.261875 237.184432 
" clip-path="url(#p69f4b20621)" style="fill: none; stroke: #cccccc; stroke-opacity: 0.3; stroke-width: 0.8; stroke-linecap: round"/>
     </g>
     <g id="line2d_68"/>
     <g id="text_41">
      <!-- 0.0 -->
      <g style="fill: #262626" transform="translate(589.321875 240.807869) scale(0.1 -0.1)">
       <use xlink:href="#LiberationSans-30"/>
       <use xlink:href="#LiberationSans-2e" transform="translate(55.615234 0)"/>
       <use xlink:href="#LiberationSans-30" transform="translate(83.398438 0)"/>
      </g>
     </g>
    </g>
    <g id="ytick_14">
     <g id="line2d_69">
      <path d="M 606.721875 196.177159 
L 832.261875 196.177159 
" clip-path="url(#p69f4b20621)" style="fill: none; stroke: #cccccc; stroke-opacity: 0.3; stroke-width: 0.8; stroke-linecap: round"/>
     </g>
     <g id="line2d_70"/>
     <g id="text_42">
      <!-- 0.2 -->
      <g style="fill: #262626" transform="translate(589.321875 199.800597) scale(0.1 -0.1)">
       <use xlink:href="#LiberationSans-30"/>
       <use xlink:href="#LiberationSans-2e" transform="translate(55.615234 0)"/>
       <use xlink:href="#LiberationSans-32" transform="translate(83.398438 0)"/>
      </g>
     </g>
    </g>
    <g id="ytick_15">
     <g id="line2d_71">
      <path d="M 606.721875 155.169886 
L 832.261875 155.169886 
" clip-path="url(#p69f4b20621)" style="fill: none; stroke: #cccccc; stroke-opacity: 0.3; stroke-width: 0.8; stroke-linecap: round"/>
     </g>
     <g id="line2d_72"/>
     <g id="text_43">
      <!-- 0.4 -->
      <g style="fill: #262626" transform="translate(589.321875 158.793324) scale(0.1 -0.1)">
       <use xlink:href="#LiberationSans-30"/>
       <use xlink:href="#LiberationSans-2e" transform="translate(55.615234 0)"/>
       <use xlink:href="#LiberationSans-34" transform="translate(83.398438 0)"/>
      </g>
     </g>
    </g>
    <g id="ytick_16">
     <g id="line2d_73">
      <path d="M 606.721875 114.162614 
L 832.261875 114.162614 
" clip-path="url(#p69f4b20621)" style="fill: none; stroke: #cccccc; stroke-opacity: 0.3; stroke-width: 0.8; stroke-linecap: round"/>
     </g>
     <g id="line2d_74"/>
     <g id="text_44">
      <!-- 0.6 -->
      <g style="fill: #262626" transform="translate(589.321875 117.786051) scale(0.1 -0.1)">
       <use xlink:href="#LiberationSans-30"/>
       <use xlink:href="#LiberationSans-2e" transform="translate(55.615234 0)"/>
       <use xlink:href="#LiberationSans-36" transform="translate(83.398438 0)"/>
      </g>
     </g>
    </g>
    <g id="ytick_17">
     <g id="line2d_75">
      <path d="M 606.721875 73.155341 
L 832.261875 73.155341 
" clip-path="url(#p69f4b20621)" style="fill: none; stroke: #cccccc; stroke-opacity: 0.3; stroke-width: 0.8; stroke-linecap: round"/>
     </g>
     <g id="line2d_76"/>
     <g id="text_45">
      <!-- 0.8 -->
      <g style="fill: #262626" transform="translate(589.321875 76.778778) scale(0.1 -0.1)">
       <use xlink:href="#LiberationSans-30"/>
       <use xlink:href="#LiberationSans-2e" transform="translate(55.615234 0)"/>
       <use xlink:href="#LiberationSans-38" transform="translate(83.398438 0)"/>
      </g>
     </g>
    </g>
    <g id="ytick_18">
     <g id="line2d_77">
      <path d="M 606.721875 32.148068 
L 832.261875 32.148068 
" clip-path="url(#p69f4b20621)" style="fill: none; stroke: #cccccc; stroke-opacity: 0.3; stroke-width: 0.8; stroke-linecap: round"/>
     </g>
     <g id="line2d_78"/>
     <g id="text_46">
      <!-- 1.0 -->
      <g style="fill: #262626" transform="translate(589.321875 35.771506) scale(0.1 -0.1)">
       <use xlink:href="#LiberationSans-31"/>
       <use xlink:href="#LiberationSans-2e" transform="translate(55.615234 0)"/>
       <use xlink:href="#LiberationSans-30" transform="translate(83.398438 0)"/>
      </g>
     </g>
    </g>
    <g id="text_47">
     <!-- Linear Intensity -->
     <g style="fill: #262626" transform="translate(583.246875 168.5725) rotate(-90) scale(0.1 -0.1)">
      <defs>
       <path id="LiberationSans-4c" d="M 525 0 
L 525 4403 
L 1122 4403 
L 1122 488 
L 3347 488 
L 3347 0 
L 525 0 
z
" transform="scale(0.015625)"/>
      </defs>
      <use xlink:href="#LiberationSans-4c"/>
      <use xlink:href="#LiberationSans-69" transform="translate(55.615234 0)"/>
      <use xlink:href="#LiberationSans-6e" transform="translate(77.832031 0)"/>
      <use xlink:href="#LiberationSans-65" transform="translate(133.447266 0)"/>
      <use xlink:href="#LiberationSans-61" transform="translate(189.0625 0)"/>
      <use xlink:href="#LiberationSans-72" transform="translate(244.677734 0)"/>
      <use xlink:href="#LiberationSans-20" transform="translate(277.978516 0)"/>
      <use xlink:href="#LiberationSans-49" transform="translate(305.761719 0)"/>
      <use xlink:href="#LiberationSans-6e" transform="translate(333.544922 0)"/>
      <use xlink:href="#LiberationSans-74" transform="translate(389.160156 0)"/>
      <use xlink:href="#LiberationSans-65" transform="translate(416.943359 0)"/>
      <use xlink:href="#LiberationSans-6e" transform="translate(472.558594 0)"/>
      <use xlink:href="#LiberationSans-73" transform="translate(528.173828 0)"/>
      <use xlink:href="#LiberationSans-69" transform="translate(578.173828 0)"/>
      <use xlink:href="#LiberationSans-74" transform="translate(600.390625 0)"/>
      <use xlink:href="#LiberationSans-79" transform="translate(628.173828 0)"/>
     </g>
    </g>
   </g>
   <g id="line2d_79">
    <path d="M 616.973693 237.184432 
L 822.010057 32.148068 
L 822.010057 32.148068 
" clip-path="url(#p69f4b20621)" style="fill: none; stroke: #808080; stroke-width: 2; stroke-linecap: round"/>
   </g>
   <g id="line2d_80">
    <path d="M 616.973693 237.184432 
L 620.257559 237.064197 
L 624.157149 236.692465 
L 628.261981 236.074578 
L 632.572055 235.197983 
L 637.08737 234.045225 
L 641.602686 232.664423 
L 646.323243 230.986913 
L 651.0438 229.078414 
L 655.969598 226.848027 
L 661.100638 224.272172 
L 666.231678 221.444848 
L 671.56796 218.24356 
L 676.904242 214.78164 
L 682.445765 210.915873 
L 687.987289 206.779083 
L 693.734054 202.207485 
L 699.480818 197.353551 
L 705.432825 192.032941 
L 711.384832 186.417945 
L 717.54208 180.303598 
L 723.90457 173.662907 
L 730.267059 166.698353 
L 736.834791 159.173379 
L 743.402522 151.311104 
L 750.175495 142.853643 
L 756.948468 134.044964 
L 763.926683 124.605674 
L 771.110139 114.506937 
L 778.293595 104.024491 
L 785.682293 92.8459 
L 793.07099 81.268631 
L 800.66493 68.957906 
L 808.464111 55.883527 
L 816.263292 42.376056 
L 822.010057 32.148068 
L 822.010057 32.148068 
" clip-path="url(#p69f4b20621)" style="fill: none; stroke: #0000ff; stroke-width: 2; stroke-linecap: round"/>
   </g>
   <g id="line2d_81">
    <path d="M 616.973693 237.184432 
L 623.541425 237.078722 
L 629.288189 236.763008 
L 634.624471 236.254002 
L 639.960753 235.520765 
L 645.091793 234.592807 
L 650.222833 233.43712 
L 655.353873 232.045908 
L 660.279672 230.482373 
L 665.20547 228.689965 
L 670.131269 226.663692 
L 675.057067 224.398954 
L 679.982866 221.891483 
L 684.908665 219.137291 
L 689.834463 216.132634 
L 694.760262 212.873977 
L 699.891302 209.205842 
L 705.022342 205.254877 
L 710.153382 201.017664 
L 715.284422 196.490941 
L 720.415462 191.671585 
L 725.751744 186.345815 
L 731.088026 180.697061 
L 736.424307 174.722217 
L 741.760589 168.418285 
L 747.302113 161.520481 
L 752.843636 154.261549 
L 758.385159 146.638466 
L 764.131924 138.345292 
L 769.878689 129.654191 
L 775.625454 120.562105 
L 781.577461 110.719409 
L 787.529467 100.440183 
L 793.481474 89.721315 
L 799.638722 78.166965 
L 805.79597 66.13563 
L 811.953218 53.624136 
L 818.315708 40.187876 
L 822.010057 32.148068 
L 822.010057 32.148068 
" clip-path="url(#p69f4b20621)" style="fill: none; stroke: #ff0000; stroke-width: 2; stroke-linecap: round"/>
   </g>
   <g id="line2d_82">
    <path d="M 616.973693 237.184432 
L 628.261981 237.075312 
L 635.650679 236.780351 
L 642.218411 236.299899 
L 648.375659 235.624311 
L 654.122424 234.769389 
L 659.663947 233.71766 
L 665.000229 232.475506 
L 670.131269 231.053309 
L 675.057067 229.464644 
L 679.982866 227.645046 
L 684.908665 225.582952 
L 689.629221 223.368852 
L 694.349778 220.912162 
L 699.070335 218.203541 
L 703.790892 215.233873 
L 708.511449 211.994253 
L 713.232006 208.475964 
L 717.952563 204.67047 
L 722.67312 200.5694 
L 727.393677 196.164537 
L 732.114234 191.447812 
L 736.834791 186.411292 
L 741.555348 181.047171 
L 746.275904 175.347768 
L 750.996461 169.305517 
L 755.717018 162.91296 
L 760.642817 155.861032 
L 765.568615 148.411432 
L 770.494414 140.556035 
L 775.420212 132.28682 
L 780.551253 123.22448 
L 785.682293 113.695695 
L 790.813333 103.691741 
L 795.944373 93.203996 
L 801.280655 81.774383 
L 806.616936 69.80282 
L 811.953218 57.279945 
L 817.2895 44.196502 
L 822.010057 32.148068 
L 822.010057 32.148068 
" clip-path="url(#p69f4b20621)" style="fill: none; stroke: #800080; stroke-width: 2; stroke-linecap: round"/>
   </g>
   <g id="patch_63">
    <path d="M 606.721875 247.43625 
L 606.721875 21.89625 
" style="fill: none; stroke: #cccccc; stroke-linejoin: miter; stroke-linecap: square"/>
   </g>
   <g id="patch_64">
    <path d="M 832.261875 247.43625 
L 832.261875 21.89625 
" style="fill: none; stroke: #cccccc; stroke-linejoin: miter; stroke-linecap: square"/>
   </g>
   <g id="patch_65">
    <path d="M 606.721875 247.43625 
L 832.261875 247.43625 
" style="fill: none; stroke: #cccccc; stroke-linejoin: miter; stroke-linecap: square"/>
   </g>
   <g id="patch_66">
    <path d="M 606.721875 21.89625 
L 832.261875 21.89625 
" style="fill: none; stroke: #cccccc; stroke-linejoin: miter; stroke-linecap: square"/>
   </g>
   <g id="text_48">
    <!-- Gamma Decoding: I_linear = V^γ -->
    <g style="fill: #262626" transform="translate(631.47375 15.89625) scale(0.12 -0.12)">
     <defs>
      <path id="LiberationSans-47" d="M 322 2222 
Q 322 3294 897 3881 
Q 1472 4469 2513 4469 
Q 3244 4469 3700 4222 
Q 4156 3975 4403 3431 
L 3834 3263 
Q 3647 3638 3317 3809 
Q 2988 3981 2497 3981 
Q 1734 3981 1331 3520 
Q 928 3059 928 2222 
Q 928 1388 1356 905 
Q 1784 422 2541 422 
Q 2972 422 3345 553 
Q 3719 684 3950 909 
L 3950 1703 
L 2634 1703 
L 2634 2203 
L 4500 2203 
L 4500 684 
Q 4150 328 3642 132 
Q 3134 -63 2541 -63 
Q 1850 -63 1350 212 
Q 850 488 586 1005 
Q 322 1522 322 2222 
z
" transform="scale(0.015625)"/>
      <path id="LiberationSans-3a" d="M 584 2734 
L 584 3381 
L 1194 3381 
L 1194 2734 
L 584 2734 
z
M 584 0 
L 584 647 
L 1194 647 
L 1194 0 
L 584 0 
z
" transform="scale(0.015625)"/>
      <path id="LiberationSans-5f" d="M -97 -1272 
L -97 -866 
L 3631 -866 
L 3631 -1272 
L -97 -1272 
z
" transform="scale(0.015625)"/>
      <path id="LiberationSans-5e" d="M 2459 2103 
L 1494 4081 
L 538 2103 
L 31 2103 
L 1181 4403 
L 1816 4403 
L 2972 2103 
L 2459 2103 
z
" transform="scale(0.015625)"/>
      <path id="LiberationSans-3b3" d="M 22 3381 
L 622 3381 
L 1388 1272 
Q 1409 1203 1442 1104 
Q 1475 1006 1506 901 
Q 1538 797 1564 698 
Q 1591 600 1603 531 
Q 1672 816 1834 1266 
L 2581 3381 
L 3178 3381 
L 1959 166 
Q 1853 -116 1762 -539 
Q 1672 -963 1631 -1325 
L 1034 -1325 
Q 1113 -725 1313 34 
L 22 3381 
z
" transform="scale(0.015625)"/>
     </defs>
     <use xlink:href="#LiberationSans-47"/>
     <use xlink:href="#LiberationSans-61" transform="translate(77.783203 0)"/>
     <use xlink:href="#LiberationSans-6d" transform="translate(133.398438 0)"/>
     <use xlink:href="#LiberationSans-6d" transform="translate(216.699219 0)"/>
     <use xlink:href="#LiberationSans-61" transform="translate(300 0)"/>
     <use xlink:href="#LiberationSans-20" transform="translate(355.615234 0)"/>
     <use xlink:href="#LiberationSans-44" transform="translate(383.398438 0)"/>
     <use xlink:href="#LiberationSans-65" transform="translate(455.615234 0)"/>
     <use xlink:href="#LiberationSans-63" transform="translate(511.230469 0)"/>
     <use xlink:href="#LiberationSans-6f" transform="translate(561.230469 0)"/>
     <use xlink:href="#LiberationSans-64" transform="translate(616.845703 0)"/>
     <use xlink:href="#LiberationSans-69" transform="translate(672.460938 0)"/>
     <use xlink:href="#LiberationSans-6e" transform="translate(694.677734 0)"/>
     <use xlink:href="#LiberationSans-67" transform="translate(750.292969 0)"/>
     <use xlink:href="#LiberationSans-3a" transform="translate(805.908203 0)"/>
     <use xlink:href="#LiberationSans-20" transform="translate(833.691406 0)"/>
     <use xlink:href="#LiberationSans-49" transform="translate(861.474609 0)"/>
     <use xlink:href="#LiberationSans-5f" transform="translate(889.257812 0)"/>
     <use xlink:href="#LiberationSans-6c" transform="translate(944.873047 0)"/>
     <use xlink:href="#LiberationSans-69" transform="translate(967.089844 0)"/>
     <use xlink:href="#LiberationSans-6e" transform="translate(989.306641 0)"/>
     <use xlink:href="#LiberationSans-65" transform="translate(1044.921875 0)"/>
     <use xlink:href="#LiberationSans-61" transform="translate(1100.537109 0)"/>
     <use xlink:href="#LiberationSans-72" transform="translate(1156.152344 0)"/>
     <use xlink:href="#LiberationSans-20" transform="translate(1189.453125 0)"/>
     <use xlink:href="#LiberationSans-3d" transform="translate(1217.236328 0)"/>
     <use xlink:href="#LiberationSans-20" transform="translate(1275.634766 0)"/>
     <use xlink:href="#LiberationSans-56" transform="translate(1303.417969 0)"/>
     <use xlink:href="#LiberationSans-5e" transform="translate(1370.117188 0)"/>
     <use xlink:href="#LiberationSans-3b3" transform="translate(1417.041016 0)"/>
    </g>
   </g>
   <g id="legend_3">
    <g id="line2d_83">
     <path d="M 615.721875 34.643125 
L 625.721875 34.643125 
L 635.721875 34.643125 
" style="fill: none; stroke: #808080; stroke-width: 2; stroke-linecap: round"/>
    </g>
    <g id="text_49">
     <!-- γ = 1.0 -->
     <g style="fill: #262626" transform="translate(643.721875 38.143125) scale(0.1 -0.1)">
      <use xlink:href="#LiberationSans-3b3"/>
      <use xlink:href="#LiberationSans-20" transform="translate(50 0)"/>
      <use xlink:href="#LiberationSans-3d" transform="translate(77.783203 0)"/>
      <use xlink:href="#LiberationSans-20" transform="translate(136.181641 0)"/>
      <use xlink:href="#LiberationSans-31" transform="translate(163.964844 0)"/>
      <use xlink:href="#LiberationSans-2e" transform="translate(219.580078 0)"/>
      <use xlink:href="#LiberationSans-30" transform="translate(247.363281 0)"/>
     </g>
    </g>
    <g id="line2d_84">
     <path d="M 615.721875 48.965 
L 625.721875 48.965 
L 635.721875 48.965 
" style="fill: none; stroke: #0000ff; stroke-width: 2; stroke-linecap: round"/>
    </g>
    <g id="text_50">
     <!-- γ = 1.8 -->
     <g style="fill: #262626" transform="translate(643.721875 52.465) scale(0.1 -0.1)">
      <use xlink:href="#LiberationSans-3b3"/>
      <use xlink:href="#LiberationSans-20" transform="translate(50 0)"/>
      <use xlink:href="#LiberationSans-3d" transform="translate(77.783203 0)"/>
      <use xlink:href="#LiberationSans-20" transform="translate(136.181641 0)"/>
      <use xlink:href="#LiberationSans-31" transform="translate(163.964844 0)"/>
      <use xlink:href="#LiberationSans-2e" transform="translate(219.580078 0)"/>
      <use xlink:href="#LiberationSans-38" transform="translate(247.363281 0)"/>
     </g>
    </g>
    <g id="line2d_85">
     <path d="M 615.721875 63.286875 
L 625.721875 63.286875 
L 635.721875 63.286875 
" style="fill: none; stroke: #ff0000; stroke-width: 2; stroke-linecap: round"/>
    </g>
    <g id="text_51">
     <!-- γ = 2.2 -->
     <g style="fill: #262626" transform="translate(643.721875 66.786875) scale(0.1 -0.1)">
      <use xlink:href="#LiberationSans-3b3"/>
      <use xlink:href="#LiberationSans-20" transform="translate(50 0)"/>
      <use xlink:href="#LiberationSans-3d" transform="translate(77.783203 0)"/>
      <use xlink:href="#LiberationSans-20" transform="translate(136.181641 0)"/>
      <use xlink:href="#LiberationSans-32" transform="translate(163.964844 0)"/>
      <use xlink:href="#LiberationSans-2e" transform="translate(219.580078 0)"/>
      <use xlink:href="#LiberationSans-32" transform="translate(247.363281 0)"/>
     </g>
    </g>
    <g id="line2d_86">
     <path d="M 615.721875 77.60875 
L 625.721875 77.60875 
L 635.721875 77.60875 
" style="fill: none; stroke: #800080; stroke-width: 2; stroke-linecap: round"/>
    </g>
    <g id="text_52">
     <!-- γ = 2.6 -->
     <g style="fill: #262626" transform="translate(643.721875 81.10875) scale(0.1 -0.1)">
      <use xlink:href="#LiberationSans-3b3"/>
      <use xlink:href="#LiberationSans-20" transform="translate(50 0)"/>
      <use xlink:href="#LiberationSans-3d" transform="translate(77.783203 0)"/>
      <use xlink:href="#LiberationSans-20" transform="translate(136.181641 0)"/>
      <use xlink:href="#LiberationSans-32" transform="translate(163.964844 0)"/>
      <use xlink:href="#LiberationSans-2e" transform="translate(219.580078 0)"/>
      <use xlink:href="#LiberationSans-36" transform="translate(247.363281 0)"/>
     </g>
    </g>
   </g>
  </g>
 </g>
 <defs>
  <clipPath id="p35bbdb682d">
   <rect x="37.921875" y="21.89625" width="225.54" height="225.54"/>
  </clipPath>
  <clipPath id="pe9d3a00b70">
   <rect x="313.621875" y="21.89625" width="242.94" height="225.54"/>
  </clipPath>
  <clipPath id="p69f4b20621">
   <rect x="606.721875" y="21.89625" width="225.54" height="225.54"/>
  </clipPath>
 </defs>
</svg>
